<svg xmlns="http://www.w3.org/2000/svg" xmlns:xlink="http://www.w3.org/1999/xlink" viewBox="0 0 3002 2002"><defs><style>.cls-1,.cls-18,.cls-2,.cls-20,.cls-5{fill:#fff;}.cls-1,.cls-18,.cls-20,.cls-4,.cls-5{stroke:#000;stroke-miterlimit:10;}.cls-1,.cls-4,.cls-5{stroke-width:2px;}.cls-3{clip-path:url(#clip-path);}.cls-4{fill:none;}.cls-5{font-size:49.74px;font-family:HVDComicSerifPro, HVD Comic Serif Pro;}.cls-6{letter-spacing:-0.04em;}.cls-7{letter-spacing:-0.01em;}.cls-8{letter-spacing:-0.02em;}.cls-9{letter-spacing:-0.03em;}.cls-10{letter-spacing:0em;}.cls-11{letter-spacing:-0.02em;}.cls-12{letter-spacing:-0.06em;}.cls-13{letter-spacing:-0.02em;}.cls-14{letter-spacing:-0.01em;}.cls-15{letter-spacing:0.02em;}.cls-16{letter-spacing:-0.05em;}.cls-17{letter-spacing:-0.01em;}.cls-18{stroke-width:3px;}.cls-19{opacity:0.5;}</style><clipPath id="clip-path"><rect class="cls-1" x="1" y="1001" width="3000" height="1000"/></clipPath></defs><g id="Camada_2" data-name="Camada 2"><g id="Camada_1-2" data-name="Camada 1"><rect class="cls-2" x="1" y="1001" width="3000" height="1000"/><g class="cls-3"><image width="7952" height="5304" transform="translate(1) scale(0.38)" xlink:href="../mulher-frequentando-aula-online.jpg"/></g><rect class="cls-4" x="1" y="1001" width="3000" height="1000"/><text class="cls-5" transform="translate(1710.87 1691.6)">Es<tspan class="cls-6" x="57.06" y="0">t</tspan><tspan x="80.14" y="0">u</tspan><tspan class="cls-7" x="112.22" y="0">d</tspan><tspan x="143.81" y="0">e </tspan><tspan class="cls-7" x="191.11" y="0">c</tspan><tspan class="cls-8" x="218.22" y="0">on</tspan><tspan class="cls-9" x="275.63" y="0">t</tspan><tspan class="cls-10" x="299.21" y="0">eúdos </tspan><tspan class="cls-7" x="462.86" y="0">d</tspan><tspan class="cls-10" x="494.45" y="0">e </tspan><tspan class="cls-11" x="541.75" y="0">t</tspan><tspan x="565.83" y="0">odos os anos</tspan></text><circle class="cls-1" cx="1668.08" cy="1672.07" r="12.08"/><text class="cls-5" transform="translate(1711.91 1773)"><tspan class="cls-9">Q</tspan><tspan x="34.52" y="0">ualquer ho</tspan><tspan class="cls-12" x="316.66" y="0">r</tspan><tspan class="cls-10" x="342.13" y="0">a e em qualquer </tspan><tspan class="cls-6" x="791.41" y="0">l</tspan><tspan x="810.61" y="0">ugar</tspan></text><circle class="cls-1" cx="1668.08" cy="1760.84" r="12.08"/><text class="cls-5" transform="translate(1712.11 1854.04)"><tspan class="cls-13">C</tspan><tspan class="cls-14" x="30.79" y="0">o</tspan><tspan class="cls-8" x="57.6" y="0">m</tspan><tspan class="cls-15" x="105.41" y="0">p</tspan><tspan x="138.49" y="0">a</tspan><tspan class="cls-8" x="170.57" y="0">r</tspan><tspan x="198.03" y="0">tilhe e </tspan><tspan class="cls-6" x="392.17" y="0">r</tspan><tspan x="418.64" y="0">ec</tspan><tspan class="cls-16" x="472.06" y="0">e</tspan><tspan class="cls-15" x="495.39" y="0">b</tspan><tspan class="cls-10" x="528.47" y="0">a </tspan><tspan class="cls-7" x="582.04" y="0">c</tspan><tspan class="cls-8" x="609.15" y="0">on</tspan><tspan class="cls-9" x="666.56" y="0">t</tspan><tspan class="cls-10" x="690.14" y="0">eúdos, </tspan><tspan class="cls-8" x="869.11" y="0">i</tspan><tspan class="cls-7" x="889.31" y="0">d</tspan><tspan class="cls-10" x="920.9" y="0">e</tspan><tspan class="cls-9" x="946.71" y="0">i</tspan><tspan x="966.41" y="0">as</tspan><tspan x="13.13" y="59.69">e </tspan><tspan class="cls-7" x="60.44" y="59.69">e</tspan><tspan class="cls-8" x="85.76" y="59.69">x</tspan><tspan x="118.09" y="59.69">e</tspan><tspan class="cls-16" x="143.91" y="59.69">r</tspan><tspan x="169.87" y="59.69">cíc</tspan><tspan class="cls-8" x="246.28" y="59.69">i</tspan><tspan x="266.48" y="59.69">os </tspan><tspan class="cls-7" x="340.14" y="59.69">co</tspan><tspan x="394.07" y="59.69">m seu am</tspan><tspan class="cls-8" x="649.5" y="59.69">ig</tspan><tspan x="700.78" y="59.69">os e </tspan><tspan class="cls-17" x="821.76" y="59.69">c</tspan><tspan class="cls-11" x="848.87" y="59.69">ol</tspan><tspan class="cls-10" x="895.38" y="59.69">egas</tspan></text><circle class="cls-1" cx="1668.08" cy="1841.97" r="12.08"/><path class="cls-18" d="M1667.72,1150.07c1-.54,6.24-.45,6.24-.45s-.8-34.61-1.07-34.69-6.07.17-6.07.17-1-14.44-.35-14.62,15.07-.45,22.38-.45c12.76,0,25.42,2.94,25.24,20-.18,18.46-16.23,20.16-24.88,20.16-.09,5.17.09,8.83.09,9s8.38,1.52,8.65,1.52.62,11.77.18,12.31-29.43-.18-29.43-.18S1666.73,1150.6,1667.72,1150.07Zm31-30.06c0-6.24-9.81-4.82-9.81-4.82l.36,11.06C1689.3,1126.34,1698.75,1126.79,1698.75,1120Z"/><path class="cls-18" d="M1779,1131.16c0,16.94-8.74,33.26-28.9,33.26-17.93,0-30.68-9.81-30.68-33.44s13.82-32.11,30.59-32.11S1779,1110.56,1779,1131.16Zm-41.12.71c0,10.44,6.42,14.72,12,14.72s10.44-3.66,10.44-14.81c0-9.18-3-16.32-10.53-16.32C1740.93,1115.46,1737.9,1122.33,1737.9,1131.87Z"/><path class="cls-18" d="M1785.16,1150.87c1.52,0,5.71-.36,5.71-.89v-35.77s-5.71.18-5.88-.27.09-13.37.44-13.73,18.91.27,24,.27c8.65,0,25.87.18,25.87,16.41,0,12.57-8.65,16.85-8.65,16.85l8.65,17.66s5.26-.17,5.26,0,.71,11.15.45,11.69-26.85.44-27-.36-.35-11.06.18-11.06,4.1-.09,4.1-.53-5.88-13.38-6.15-13.38-6.51.71-6.78.71-.44,12.67.27,12.67a31.4,31.4,0,0,1,3.83.35c0,.09.27,11.06,0,11.33s-23.81-.27-23.81-.27C1785.61,1162.82,1783.65,1150.87,1785.16,1150.87Zm20.43-25.78c.53-.26,11.41,1.34,11.41-6.86,0-5.36-11.32-3.93-11.32-3.93S1805.59,1125.27,1805.59,1125.09Z"/><path class="cls-18" d="M1944.27,1132.05c0,19.71-7.32,29.43-19.62,32.46.35,1.61.53,3.75,3.38,4.28,3,.72,7.23-1.24,9.73-2.85,0,0,5,10.7,4.54,13.38-1.78,3.39-10.16,6.33-18.19,4.9-14-2.76-17.66-13.55-18.1-19.62-13.56-3.48-21-16.76-21-33.17,0-19.18,12-32.47,28.89-32.47S1944.27,1109,1944.27,1132.05Zm-41.74.18c0,8.47,3.74,17,12.75,16.94,8.74-.09,11.33-7.31,11.33-16,0-10.44-2.86-17.66-11.24-17.66C1906.45,1115.55,1902.53,1123.93,1902.53,1132.23Z"/><path class="cls-18" d="M1976,1100.21c.09.27.81,13,.36,13.29a39.08,39.08,0,0,1-4.82.71s.27,23.19.27,25.06c0,3.66,2.14,7.14,7.58,7.14,5.26,0,7.49-2.86,7.49-6.78s-.09-25.86-.09-25.86h-5.26s-.35-13.2-.18-13.29c3.48-1.16,26.76-.45,26.76-.45s.54,12.31.54,12.49-5.18,1.51-5.18,1.51.09,22.21.09,26.14c0,14.71-8.38,23.81-24.26,23.81-15.34,0-24.34-9.19-24.34-24.8l-.18-24.88-6.51-1-.54-12.22C1947.56,1101.28,1975.92,1099.94,1976,1100.21Z"/><path class="cls-18" d="M2017.3,1149.8c.54-.54,5.53-.45,5.53-.45s.8-35.76.45-35.94a56.85,56.85,0,0,0-6,.53s-1.34-13.46-1.16-14.09,47.45-.44,47.45-.44c2.14,2.76.62,20.6.62,20.87s-12.22.35-12.84.26-1-6.42-1.07-6.68-9.9-.45-10.17-.18-.09,10.16.18,10.25,9.19.27,9.19.54.71,12.22.44,12.31-9.81.44-10,.71-.17,11.33-.17,11.68,10.79-.17,10.79-.44,2.49-9.28,2.49-9.46,14.54,1.34,14.54,1.61-1.6,22.47-1.78,22.56-48.61-.62-49-.35S2016.76,1150.33,2017.3,1149.8Z"/><path class="cls-18" d="M2092.39,1154c0,4.82-2.23,9.54-8.29,9.54s-9.55-3.48-9.72-9.09,4-9.28,8.74-9.28S2092.39,1149.26,2092.39,1154Z"/><path class="cls-18" d="M2119.86,1154c0,4.82-2.23,9.54-8.3,9.54s-9.54-3.48-9.72-9.09,4-9.28,8.74-9.28S2119.86,1149.26,2119.86,1154Z"/><path class="cls-18" d="M2147.33,1154c0,4.82-2.23,9.54-8.3,9.54s-9.54-3.48-9.72-9.09,4-9.28,8.74-9.28S2147.33,1149.26,2147.33,1154Z"/><path class="cls-18" d="M2174.79,1154c0,4.82-2.23,9.54-8.29,9.54s-9.54-3.48-9.72-9.09,4-9.28,8.74-9.28S2174.79,1149.26,2174.79,1154Z"/><path class="cls-18" d="M1693.85,1207.23c.09.26.8,13,.35,13.29a40.66,40.66,0,0,1-4.81.71s.27,23.19.27,25.06c0,3.66,2.14,7.14,7.58,7.14,5.26,0,7.49-2.86,7.49-6.78s-.09-25.87-.09-25.87h-5.26s-.36-13.2-.18-13.29c3.48-1.16,26.75-.44,26.75-.44s.54,12.31.54,12.48-5.17,1.52-5.17,1.52.09,22.21.09,26.13c0,14.72-8.39,23.82-24.26,23.82-15.34,0-24.35-9.19-24.35-24.8l-.18-24.88-6.51-1-.54-12.22C1665.4,1208.3,1693.76,1207,1693.85,1207.23Z"/><path class="cls-18" d="M1762.16,1203.84s9.27-.36,13.64,1.51c.45.18-1.07,17.4-1.07,20.25,0,1.34-13.91,1.25-13.91.89-.44-5.17-3.48-7.13-6.24-7.13-1.61,0-4.91.8-4.91,4.37,0,3.21,6.69,5.17,13.29,9.09,7.94,4.64,14.63,9.37,14.63,20.34,0,10.08-8.74,17.66-17.66,17.66-9.19,0-12.49-3.48-13.83-5-.17,2-.35,5.53-.44,5.53-.45-.18-13.47-.8-13.47-.8-.18-2-.18-18-.18-22.65,6.07-1.34,12.22-1.61,14-1.34,1.6,6.06,5.26,9.27,8.11,9.27,2.59,0,4.91-1.42,4.91-4.1,0-5.08-5.71-6.69-11.06-9.63-7.94-4.19-15.61-8.74-15.61-21.5,0-8.82,7.31-16,19.27-16,5.17,0,8.38,2,9.89,3.57Z"/><path class="cls-18" d="M1783.56,1270.91c-1.25-2.68-1.25-12.85-1.25-12.85l5.89-1.42c3.92-22,11.06-49.23,11.06-49.23,3.21-1.25,18.1.53,18.1.53l17.39,49.14h5.18v13.11s-24,1.16-25,.63-1.78-12.58-1.25-12.76a30.06,30.06,0,0,1,4.55-.26l-2.4-7.23-12-.18-1.16,5.89,6.07.8s1,12.58.71,12.58Zm25.24-43.53-3.48,12,7.94-.44Z"/><path class="cls-18" d="M1846.07,1257.89c1.52,0,5.71-.36,5.71-.9v-35.76s-5.71.18-5.89-.27.09-13.38.45-13.73,18.91.26,24,.26c8.65,0,25.87.18,25.87,16.41,0,12.58-8.65,16.86-8.65,16.86l8.65,17.66a51.27,51.27,0,0,1,5.26,0c0,.18.71,11.15.45,11.68s-26.85.45-27-.35-.36-11.06.18-11.06,4.1-.09,4.1-.54-5.88-13.38-6.15-13.38-6.51.72-6.78.72-.45,12.66.27,12.66a31.06,31.06,0,0,1,3.83.36c0,.09.27,11.06,0,11.33s-23.81-.27-23.81-.27C1846.52,1269.84,1844.56,1257.89,1846.07,1257.89Zm20.43-25.78c.53-.27,11.41,1.34,11.41-6.87,0-5.35-11.32-3.92-11.32-3.92S1866.5,1232.29,1866.5,1232.11Z"/><path class="cls-18" d="M2005.53,1238.17c0,16.95-8.74,33.27-28.89,33.27-17.93,0-30.68-9.81-30.68-33.44s13.82-32.11,30.59-32.11S2005.53,1217.57,2005.53,1238.17Zm-41.11.72c0,10.43,6.42,14.71,12,14.71s10.43-3.65,10.43-14.8c0-9.19-3-16.32-10.52-16.32C1967.45,1222.48,1964.42,1229.35,1964.42,1238.89Z"/><path class="cls-18" d="M2077.14,1207.58c.36.09,1.25,14,1.25,14s-4.28.62-4.82.62,6.78,20.33,6.78,20.33,7.4-20.78,7.14-20.78-4.28.18-4.55.18-1.34-14.18-1.16-14.45,27.65-.17,27.73.09,0,14.36-.08,14.63-5.62.27-6,.27-15.52,46.91-16.14,47.36-14.54.26-15,0-17.39-47.81-17.39-47.81-4.72-.71-5.44-.71-.18-14,0-14C2049.49,1207.32,2076.78,1207.49,2077.14,1207.58Z"/><path class="cls-18" d="M2139.75,1257.08c.44,0,7.75,0,7.75.63s.63,11.77.18,12-29.79,1-30.77-.45-.53-11.06-.18-11.41,6.43-.27,6.43-.27l-1.25-36.93s-5.18.18-5.62-.26.36-13,.36-13l29.34-.45.62,12.66-8,1.52Z"/><path class="cls-18" d="M2155.08,1257.89c1.52,0,5.71-.36,5.71-.9v-35.76s-5.71.18-5.89-.27.09-13.38.45-13.73,18.91.26,24,.26c8.65,0,25.87.18,25.87,16.41,0,12.58-8.66,16.86-8.66,16.86l8.66,17.66a51.27,51.27,0,0,1,5.26,0c0,.18.71,11.15.44,11.68s-26.84.45-27-.35-.36-11.06.18-11.06,4.1-.09,4.1-.54-5.89-13.38-6.15-13.38-6.51.72-6.78.72-.45,12.66.27,12.66a31.06,31.06,0,0,1,3.83.36c0,.09.27,11.06,0,11.33s-23.81-.27-23.81-.27C2155.53,1269.84,2153.57,1257.89,2155.08,1257.89Zm20.43-25.78c.53-.27,11.41,1.34,11.41-6.87,0-5.35-11.32-3.92-11.32-3.92S2175.51,1232.29,2175.51,1232.11Z"/><path class="cls-18" d="M2268.43,1205.44c.09.36.45,26.31.36,26.76s-11.68.18-11.95-.18-1.16-11.06-1.16-11.06-6.15.09-6.6.18,1.34,35.41,1.34,35.67,9.1-.35,9.45,0,.89,11.87.54,12.76-37.82.71-37.91.53.09-12.3.27-12.39,10.88-.63,10.88-1.52-.71-35-.71-35l-7.4.09s-.45,11-.45,11.33-12.58-.18-13.11-.18-.36-23.46.53-24.53S2268.35,1205.09,2268.43,1205.44Z"/><path class="cls-18" d="M2302.41,1207.23c.09.26.8,13,.36,13.29a41.09,41.09,0,0,1-4.82.71s.27,23.19.27,25.06c0,3.66,2.14,7.14,7.58,7.14,5.26,0,7.49-2.86,7.49-6.78s-.09-25.87-.09-25.87h-5.26s-.36-13.2-.18-13.29c3.48-1.16,26.76-.44,26.76-.44s.53,12.31.53,12.48-5.17,1.52-5.17,1.52.09,22.21.09,26.13c0,14.72-8.38,23.82-24.26,23.82-15.34,0-24.35-9.19-24.35-24.8l-.18-24.88-6.51-1-.53-12.22C2274,1208.3,2302.32,1207,2302.41,1207.23Z"/><path class="cls-18" d="M2338,1270.91c-1.25-2.68-1.25-12.85-1.25-12.85l5.89-1.42c3.92-22,11.06-49.23,11.06-49.23,3.21-1.25,18.1.53,18.1.53l17.39,49.14h5.18v13.11s-24,1.16-25,.63-1.79-12.58-1.25-12.76a30,30,0,0,1,4.55-.26l-2.41-7.23-12-.18-1.16,5.89,6.06.8s1,12.58.72,12.58Zm25.24-43.53-3.48,12,7.94-.44Z"/><path class="cls-18" d="M2430.21,1207.49c0,.09.62,13,.09,13.2s-7.32,1-7.32,1c-.89,6.42-1.43,34.6-1.34,34.6s9.1-.18,9.19-.36,3-11.15,3-11.5,11.6,1.34,11.86,1.51.54,24.08.27,24.08-46.82.81-46.82-.17-.36-12.85-.18-13,6-.26,6.15-.44.36-27,.9-35.5c0-.44-5.36.09-5.53,0s-1.16-13.46-.27-14C2400.77,1206.6,2430.21,1207.41,2430.21,1207.49Z"/><path class="cls-18" d="M2453.93,1256.81c.53-.53,5.53-.44,5.53-.44s.8-35.77.44-35.94a56.89,56.89,0,0,0-6,.53s-1.34-13.47-1.16-14.09,47.44-.45,47.44-.45c2.14,2.77.63,20.61.63,20.87s-12.22.36-12.84.27-1-6.42-1.07-6.69-9.9-.44-10.17-.18-.09,10.17.18,10.26,9.18.27,9.18.54.72,12.21.45,12.3-9.81.45-10,.72-.18,11.32-.18,11.68,10.79-.18,10.79-.45,2.5-9.27,2.5-9.45,14.54,1.34,14.54,1.61-1.61,22.47-1.79,22.56-48.6-.62-49-.36S2453.39,1257.35,2453.93,1256.81Z"/><path class="cls-18" d="M2509.57,1270.28c.09.18-1.25-14.45-.71-14.89s7-.89,7-.89l1-30.77s-6.87.62-7,.62-2.67-14.63-2.05-15.07,8.83-2.59,20.78-2.23c13.29.27,36-1.25,36,32.11,0,28.89-14.89,32.73-30.5,32.73C2524.91,1271.89,2510.11,1270.1,2509.57,1270.28Zm36.84-30.41c0-18-9.55-16.14-13.29-15.79-.45,7.67-1.25,26.4-.63,31.4C2539.72,1256.37,2546.41,1253.78,2546.41,1239.87Z"/><path class="cls-18" d="M2596.08,1207.23c.09.26.8,13,.36,13.29a41.09,41.09,0,0,1-4.82.71s.27,23.19.27,25.06c0,3.66,2.14,7.14,7.58,7.14,5.26,0,7.49-2.86,7.49-6.78s-.09-25.87-.09-25.87h-5.26s-.36-13.2-.18-13.29c3.48-1.16,26.76-.44,26.76-.44s.53,12.31.53,12.48-5.17,1.52-5.17,1.52.09,22.21.09,26.13c0,14.72-8.38,23.82-24.26,23.82-15.34,0-24.35-9.19-24.35-24.8l-.18-24.88-6.51-1-.53-12.22C2567.63,1208.3,2596,1207,2596.08,1207.23Z"/><path class="cls-18" d="M2685.44,1209c.62.45-.45,22.21-.45,22.21l-14.36,1.78s-1.78-9.18-9.81-9.18c-4.63,0-8.56,4.9-8.56,14.8,0,10.53,6.33,14.18,10.79,14.18,5.71,0,10-4.81,10.88-6.06,4,4.19,11.69,11.06,11.69,11.06s-5.62,13.2-22.57,13.2c-13.91,0-29.07-10.8-29.07-32.38,0-22.56,13.47-30.86,25.95-30.86a15.56,15.56,0,0,1,10.53,3.75l1-5.26C2671.44,1206.42,2681.6,1206.6,2685.44,1209Z"/><path class="cls-18" d="M2707.11,1232.38c4.1,0,8.92.09,8.92-5.35a4.24,4.24,0,0,0-4.37-4.46c-4.82,0-8.48,5.7-8.48,5.7s-9-7.75-8.65-9.89,6.42-12.49,18.28-12.49,21,7.58,21,20.24c0,16.95-13,20.61-26.66,19.54C2706.22,1244.77,2707.11,1232.38,2707.11,1232.38Zm14.71,28.63c0,4.81-2.23,9.54-8.29,9.54s-9.55-3.48-9.72-9.1,4-9.27,8.74-9.27S2721.82,1256.28,2721.82,1261Z"/><g class="cls-19"><path class="cls-20" d="M1782.9,1410.09a15.43,15.43,0,0,1,3.48-.25s-.45-19.3-.6-19.35-3.38.1-3.38.1-.55-8.06-.2-8.16,8.41-.25,12.49-.25c7.11,0,14.17,1.64,14.07,11.14-.09,10.3-9,11.25-13.87,11.25-.05,2.88,0,4.92,0,5s4.67.85,4.82.85a38.84,38.84,0,0,1,.1,6.86c-.25.3-16.41-.1-16.41-.1S1782.35,1410.39,1782.9,1410.09Zm17.31-16.77c0-3.48-5.47-2.68-5.47-2.68l.2,6.17S1800.21,1397.1,1800.21,1393.32Z"/><path class="cls-20" d="M1834.83,1404.76c0,6.87-3.68,13.44-12.14,13.44-7.56,0-12.93-3.93-12.93-13.53s5.82-13,12.88-13S1834.83,1396.41,1834.83,1404.76Zm-16,.25a4.38,4.38,0,0,0,4,4.68c1.94,0,3.43-1.49,3.43-4.68,0-2.53-1-5.12-3.43-5.12C1819.81,1399.89,1818.81,1402.38,1818.81,1405Z"/><path class="cls-20" d="M1857.51,1402.18a5.72,5.72,0,0,0-3.78-2c-2.58,0-4.33,2-4.33,5a21.24,21.24,0,0,0,.4,4.78l5.08.64.1,6.47c-.25.25-16.82.1-16.77.1a65.34,65.34,0,0,1-.35-6.86l3.29-.2,0-11.69a29.93,29.93,0,0,0-3,.15s-.79-6.22-.79-6.47,10-1.74,10-1.74l1.59,3.38s1.69-2.39,5.92-2.39c4.47,0,7.86,3.54,7.81,3.88C1862.69,1396.16,1857.66,1402.33,1857.51,1402.18Z"/><path class="cls-20" d="M1892,1392.48s-.54,28.85-.39,29,3.68.4,3.78.4-.1,6.56-.1,6.81-17.51.2-17.51.2V1422l4.47-.8v-5.07s-1.59,1.59-5.82,1.59c-5.07,0-11-2.39-11-12.74s6.37-13.38,10.94-13.38c5.08,0,6.92,2.09,6.92,2.09s.94-2,1-2.34C1884.57,1391.13,1892.08,1392.48,1892,1392.48Zm-10.54,12.28c0-3.13-1.44-4.77-3.58-4.77-1.94,0-3.19,1.54-3.19,4.82s1.1,4.78,3.49,4.78C1880.14,1409.59,1881.49,1407.75,1881.49,1404.76Z"/><path class="cls-20" d="M1897.61,1399.44l-2.09-.2s-.8-5.07-.45-6.66l11.39-.8s0,3.33,0,12c0,3.33,1.14,5,3.53,5,1.94,0,3.23-2,3.23-5l0-3.53-3.28-.15-.4-7.07,12.34-.94v17.06c.1.1,3.08.65,3.18.65s0,7.26,0,7.51-9.35.3-9.35.3l-.84-2.19a11,11,0,0,1-6.92,2.44c-5.07,0-10.44-2.39-10.44-12.74Z"/><path class="cls-20" d="M1950.68,1398.5l-1.34,5.07-9.6,5.27c.69.85,5.62.9,8.8.9a57.73,57.73,0,0,1-1.09,8c-12.74.94-20.45-4.83-20.45-13.83s6.07-12.69,12.74-12.69C1945.76,1391.23,1950.53,1396.36,1950.68,1398.5Zm-14.77,4.52,6.07-3.73a2.61,2.61,0,0,0-2.14-1.29C1936.35,1398,1935,1400.93,1935.91,1403Z"/><path class="cls-20" d="M2006.54,1394v15.52l4.08.65.1,7c-.25.25-15.82.1-15.77.1s-.4-4.18-.35-7.36l3.29-.2,0-9.1c-.1-.1-1.4.15-10.45-.1l.15,8.6,3.83.3.25,7.86s-15.52.2-15.87,0-1.19-7.21-.89-7.36,4-.7,4-.8-.59-8.75-.59-8.75l-3.78,0s-.2-7.22-.1-7.32,4,0,4-.14c0-6.12,2.34-12.39,10.59-12.39a32.57,32.57,0,0,1,11,1.84s-.7,5-2.44,7.46a26.31,26.31,0,0,0-7-1.29c-3.48,0-3.23,4.38-3.23,4.38C1987.39,1392.63,2003.16,1393.17,2006.54,1394Z"/><path class="cls-20" d="M2036.59,1392.18c0,.15,1.14,6.42,1,6.47s-12.38,11.24-12.23,11.24,5,.2,5.12.1a27.8,27.8,0,0,1,.25-3c.1,0,7.26.1,7.51.45s-.2,9.7-.2,9.7H2014.5s-1.34-6.52-1.24-6.62,13.13-12.33,12.93-12.33-4.53-.5-4.62-.4-.55,3.18-.55,3.18-7-.49-7.41-.69.15-8.26.15-8.26S2036.59,1392,2036.59,1392.18Z"/><path class="cls-20" d="M2064.74,1398.5l-1.34,5.07-9.6,5.27c.7.85,5.62.9,8.8.9a57.73,57.73,0,0,1-1.09,8c-12.74.94-20.45-4.83-20.45-13.83s6.07-12.69,12.74-12.69C2059.82,1391.23,2064.59,1396.36,2064.74,1398.5ZM2050,1403l6.07-3.73a2.61,2.61,0,0,0-2.14-1.29C2050.42,1398,2049.07,1400.93,2050,1403Z"/><path class="cls-20" d="M2095.14,1410.24l2.13.29a49.41,49.41,0,0,1,0,6.77l-12.83-.35s-.3-5.42-.2-6.27l2.34-.44,0-5.72c0-3.29-1-5-3.18-5-1.8,0-3.09,2-3.09,5l0,5.87,2.09.64.1,5.92c-.2.25-13.93.2-13.88.2a54.11,54.11,0,0,1-.35-6.42l3-.49.05-10.15c-.1-.1-3.38-.25-3.48-.25s-1-7.16-1-7.41,9.85-2.14,9.85-2.14l1.29,3.28a8.08,8.08,0,0,1,6.07-2.73c2.89,0,6.47.39,8.31,3.48,1.44-2.14,4.43-3.24,8.36-3.24,4.72,0,10.39,2.39,10.39,12.69,0,2.69-.35,6.47-.35,6.47l2.64.44a38,38,0,0,1,0,6.42l-13.83.05s-.3-5.42-.2-6.27l2-.64,0-5.72c0-3.29-.84-4.58-3.08-4.58-1.44,0-3,1.24-3.14,3.73C2095.14,1405,2095.14,1410.24,2095.14,1410.24Z"/><path class="cls-20" d="M2140.9,1404.76c0,6.87-3.68,13.44-12.14,13.44-7.56,0-12.93-3.93-12.93-13.53s5.82-13,12.88-13S2140.9,1396.41,2140.9,1404.76Zm-16,.25a4.38,4.38,0,0,0,4,4.68c1.94,0,3.43-1.49,3.43-4.68,0-2.53-1-5.12-3.43-5.12C2125.88,1399.89,2124.88,1402.38,2124.88,1405Z"/><path class="cls-20" d="M2158.26,1390.89s5-.15,7.11.59c.2.1-.49,8-.49,8.86,0,.39-6.82-.1-6.82-.25a2.46,2.46,0,0,0-2.59-2.19c-.59,0-1.54.15-1.54,1.24s2.79,1.74,5.23,2.94c3,1.39,6.21,4.23,6.21,8.65,0,4-3.83,7.12-8.2,7.12s-5.82-1-6.47-1.64c-.1.79-.2,2-.25,2s-6.77-.54-6.77-.54c-.09-.75-.09-8.11-.09-9.55a28.09,28.09,0,0,1,6.16-.25c.6,1.89,2,2.88,3,2.88s1.84-.44,1.84-1.29c0-1.59-2.14-2.09-4.13-3-3-1.3-6.42-3.19-6.42-8.36,0-3.48,3.24-7,9.06-7a7.27,7.27,0,0,1,4.82,1.45Z"/><path class="cls-20" d="M2213,1398.5l-1.35,5.07-9.6,5.27c.7.85,5.62.9,8.81.9a57.09,57.09,0,0,1-1.1,8c-12.73.94-20.44-4.83-20.44-13.83s6.07-12.69,12.73-12.69C2208.1,1391.23,2212.88,1396.36,2213,1398.5Zm-14.78,4.52,6.07-3.73a2.6,2.6,0,0,0-2.14-1.29C2198.7,1398,2197.36,1400.93,2198.25,1403Z"/><path class="cls-20" d="M2230.44,1390.89s5-.15,7.11.59c.2.1-.5,8-.5,8.86,0,.39-6.81-.1-6.81-.25a2.46,2.46,0,0,0-2.59-2.19c-.6,0-1.54.15-1.54,1.24s2.78,1.74,5.22,2.94c3,1.39,6.22,4.23,6.22,8.65,0,4-3.83,7.12-8.21,7.12s-5.82-1-6.46-1.64c-.1.79-.2,2-.25,2-.2,0-6.77-.54-6.77-.54-.1-.75-.1-8.11-.1-9.55a28.18,28.18,0,0,1,6.17-.25c.6,1.89,2,2.88,3,2.88s1.83-.44,1.83-1.29c0-1.59-2.13-2.09-4.12-3-3-1.3-6.42-3.19-6.42-8.36,0-3.48,3.23-7,9-7a7.31,7.31,0,0,1,4.83,1.45Z"/><path class="cls-20" d="M2255.31,1390.89s5-.15,7.11.59c.2.1-.5,8-.5,8.86,0,.39-6.81-.1-6.81-.25a2.46,2.46,0,0,0-2.59-2.19c-.59,0-1.54.15-1.54,1.24s2.79,1.74,5.22,2.94c3,1.39,6.22,4.23,6.22,8.65,0,4-3.83,7.12-8.21,7.12s-5.82-1-6.46-1.64c-.1.79-.2,2-.25,2s-6.77-.54-6.77-.54c-.1-.75-.1-8.11-.1-9.55a28.19,28.19,0,0,1,6.17-.25c.6,1.89,2,2.88,3,2.88s1.84-.44,1.84-1.29c0-1.59-2.14-2.09-4.13-3-3-1.3-6.42-3.19-6.42-8.36,0-3.48,3.24-7,9-7a7.31,7.31,0,0,1,4.83,1.45Z"/><path class="cls-20" d="M2288.59,1398.5l-1.35,5.07-9.6,5.27c.7.85,5.62.9,8.81.9a57.09,57.09,0,0,1-1.1,8c-12.73.94-20.44-4.83-20.44-13.83s6.07-12.69,12.73-12.69C2283.66,1391.23,2288.44,1396.36,2288.59,1398.5Zm-14.78,4.52,6.07-3.73a2.6,2.6,0,0,0-2.14-1.29C2274.26,1398,2272.92,1400.93,2273.81,1403Z"/><path class="cls-20" d="M2324.55,1394.07s1.44-2.19,6.52-2.19c4.57,0,11.39,3,11.39,13.23s-6,12.74-11.09,12.74c-4.23,0-5.77-1.6-5.77-1.6v4.93s4.82.55,5,.7.15,6.71.2,6.71-18.06.1-18,0l-.3-6.76,3.78-.3-.05-20.75h-3.68c-.05-3.18-.35-7.36-.35-7.36s11-1.79,11.25-1.54C2323.61,1392.18,2324.55,1394.07,2324.55,1394.07Zm9,10.84c0-3.28-1.35-5-3.29-5-2.14,0-3.48,1.84-3.48,5s1.34,5.28,3.28,5.28C2332.41,1410.14,2333.51,1408.25,2333.51,1404.91Z"/><path class="cls-20" d="M2364.89,1402.18a5.72,5.72,0,0,0-3.78-2c-2.58,0-4.33,2-4.33,5a21.24,21.24,0,0,0,.4,4.78l5.08.64.1,6.47c-.25.25-16.82.1-16.77.1a65.34,65.34,0,0,1-.35-6.86l3.29-.2,0-11.69a29.93,29.93,0,0,0-3,.15c-.05,0-.79-6.22-.79-6.47s10-1.74,10-1.74l1.59,3.38s1.69-2.39,5.92-2.39c4.47,0,7.86,3.54,7.81,3.88C2370.07,1396.16,2365,1402.33,2364.89,1402.18Z"/><path class="cls-20" d="M2395.48,1404.76c0,6.87-3.68,13.44-12.13,13.44-7.56,0-12.94-3.93-12.94-13.53s5.82-13,12.89-13S2395.48,1396.41,2395.48,1404.76Zm-16,.25a4.38,4.38,0,0,0,4,4.68c1.94,0,3.43-1.49,3.43-4.68,0-2.53-1-5.12-3.43-5.12C2380.46,1399.89,2379.47,1402.38,2379.47,1405Z"/><path class="cls-20" d="M2411,1417.25c0,4.23-1,12.39-9.26,12.39a13.39,13.39,0,0,1-8.8-3.24l4.08-6.71a4.44,4.44,0,0,0,2.93,1c1.84,0,2.09-1.84,2.09-3.13a96.52,96.52,0,0,0-1.44-14.83l-3.33-.44L2397,1394s11.94-.1,12.13.25C2410,1396,2411,1409.54,2411,1417.25Zm-1.7-33.33c0,2.69-1.24,5.32-4.62,5.32s-5.33-1.94-5.42-5.07a4.83,4.83,0,0,1,4.87-5.17A5.22,5.22,0,0,1,2409.26,1383.92Z"/><path class="cls-20" d="M2436.72,1398.5l-1.34,5.07-9.6,5.27c.69.85,5.62.9,8.8.9a57.73,57.73,0,0,1-1.09,8c-12.74.94-20.45-4.83-20.45-13.83s6.07-12.69,12.74-12.69C2431.8,1391.23,2436.57,1396.36,2436.72,1398.5ZM2422,1403l6.07-3.73a2.61,2.61,0,0,0-2.14-1.29C2422.4,1398,2421.05,1400.93,2422,1403Z"/><path class="cls-20" d="M2452.44,1384.87l.3,7.61,6.27-.1s.35,4.92-.3,7.31l-6.57.35s-.54,8.41,1.35,8.41c1.54,0,3.68-1.55,3.68-1.55l3.58,7.17s-4.58,4.22-10.05,4.22c-8.26,0-7.91-8.75-7.91-18.25,0-.1-3.43,0-3.53-.15s.1-7.31.1-7.31l3.58-.4s.55-5.77.55-5.87C2444.83,1385.36,2452.44,1384.87,2452.44,1384.87Z"/><path class="cls-20" d="M2488.16,1404.76c0,6.87-3.68,13.44-12.14,13.44-7.56,0-12.93-3.93-12.93-13.53s5.82-13,12.88-13S2488.16,1396.41,2488.16,1404.76Zm-16,.25a4.38,4.38,0,0,0,4,4.68c1.94,0,3.43-1.49,3.43-4.68,0-2.53-1-5.12-3.43-5.12C2473.14,1399.89,2472.14,1402.38,2472.14,1405Z"/><path class="cls-20" d="M1869.35,1453.76s1.45-2.19,6.52-2.19c4.58,0,11.39,3,11.39,13.23s-6,12.74-11.09,12.74c-4.23,0-5.77-1.59-5.77-1.59v4.92s4.82.55,5,.7.15,6.71.2,6.71-18.06.1-18,0l-.29-6.76,3.78-.3-.05-20.74h-3.69c0-3.19-.34-7.36-.34-7.36s11-1.8,11.24-1.55S1869.35,1453.76,1869.35,1453.76Zm9,10.85c0-3.29-1.35-5-3.29-5-2.13,0-3.48,1.84-3.48,5,0,3,1.35,5.27,3.29,5.27C1877.21,1469.83,1878.31,1467.94,1878.31,1464.61Z"/><path class="cls-20" d="M1912.78,1458.19l-1.34,5.07-9.6,5.28c.69.84,5.62.89,8.8.89a57.73,57.73,0,0,1-1.09,8c-12.74.94-20.45-4.83-20.45-13.83s6.07-12.68,12.74-12.68C1907.85,1450.93,1912.63,1456.05,1912.78,1458.19Zm-14.77,4.53,6.06-3.74a2.62,2.62,0,0,0-2.14-1.29C1898.45,1457.69,1897.11,1460.63,1898,1462.72Z"/><path class="cls-20" d="M1943,1470l2.09.45a38.46,38.46,0,0,1,0,6.46l-12.88-.15s-.35-5.47-.25-6.31l2.44-.45-.05-5.32c0-3.34-1.4-5-3.78-5-1.94,0-3.73,2-3.73,5l.05,5.47,3,.64.1,6c-.25.25-14.33.1-14.28.1a53,53,0,0,1-.34-6.36l3.28-.2,0-11.89a29.93,29.93,0,0,0-3,.15s-.79-6.72-.79-7,9.85-1.29,9.85-1.29l1.59,3.58a8.5,8.5,0,0,1,6.52-3.13c5.07,0,10.19,2.39,10.19,12.73Z"/><path class="cls-20" d="M1962.27,1450.58s5-.15,7.12.6c.2.09-.5,8-.5,8.85,0,.4-6.82-.1-6.82-.25a2.45,2.45,0,0,0-2.58-2.19c-.6,0-1.54.15-1.54,1.25s2.78,1.74,5.22,2.93c3,1.39,6.22,4.23,6.22,8.66,0,4-3.83,7.11-8.21,7.11s-5.82-1-6.47-1.64c-.1.79-.2,2-.25,2-.2,0-6.76-.55-6.76-.55-.1-.75-.1-8.11-.1-9.55a28.18,28.18,0,0,1,6.17-.25c.59,1.89,2,2.89,3,2.89s1.84-.45,1.84-1.3c0-1.59-2.14-2.09-4.13-3-3-1.3-6.41-3.19-6.41-8.36,0-3.48,3.23-7,9.05-7a7.26,7.26,0,0,1,4.82,1.44Z"/><path class="cls-20" d="M1990.63,1454.31v-2.49s10.54-.35,10.54-.1.35,6.62.3,6.62-3.58.74-3.68.84.1,10.5.1,10.5,4.13,0,4.18.3a52.94,52.94,0,0,1-.1,7c-.15,0-11.29-.2-11.29-.35s-.5-2.53-.5-2.53-2,3.28-7.06,3.28c-4.58,0-11-3-11-13.28,0-9.45,6.07-12.24,11.14-12.24A13,13,0,0,1,1990.63,1454.31Zm-9.7,9.9c0,2.88,1.94,4.72,3.93,4.72,2.24,0,3.88-1.84,3.88-4.62s-1.64-4.83-3.69-4.83C1982.57,1459.48,1980.93,1461.22,1980.93,1464.21Z"/><path class="cls-20" d="M2032.56,1470l2.09.45a38.46,38.46,0,0,1,0,6.46l-12.88-.15s-.35-5.47-.25-6.31l2.43-.45,0-5.32c0-3.34-1.39-5-3.78-5-1.94,0-3.73,2-3.73,5l0,5.47,3,.64.1,6c-.25.25-14.33.1-14.28.1a51.85,51.85,0,0,1-.35-6.36l3.29-.2,0-11.89a29.93,29.93,0,0,0-3,.15s-.8-6.72-.8-7,9.85-1.29,9.85-1.29l1.6,3.58a8.47,8.47,0,0,1,6.51-3.13c5.08,0,10.2,2.39,10.2,12.73Z"/><path class="cls-20" d="M2054.1,1475.25s-1.2,2.19-6.27,2.19c-4.58,0-11.59-3-11.59-13.23s5.82-12.74,10.89-12.74c4.23,0,5.92,1.84,5.92,1.84v-5.17s-3.63-.55-3.83-.7.25-6.21.2-6.21,13-.1,12.89,0l.05,28,4,.25c0,3.18,0,7.36,0,7.36s-11.45.4-11.69.15Zm-8.71-10.79c0,3.28,1.35,5,3.29,5,2.13,0,3.48-1.84,3.48-5s-1.35-5.48-3.28-5.48C2046.49,1459,2045.39,1461.12,2045.39,1464.46Z"/><path class="cls-20" d="M2093.35,1464.46c0,6.86-3.68,13.43-12.14,13.43-7.56,0-12.93-3.93-12.93-13.53s5.82-13,12.88-13S2093.35,1456.1,2093.35,1464.46Zm-16,.25a4.38,4.38,0,0,0,4,4.67c1.94,0,3.43-1.49,3.43-4.67,0-2.54-1-5.13-3.43-5.13C2078.32,1459.58,2077.33,1462.07,2077.33,1464.71Z"/><path class="cls-20" d="M2140.6,1458.19l-1.34,5.07-9.6,5.28c.69.84,5.62.89,8.8.89a57.73,57.73,0,0,1-1.09,8c-12.74.94-20.45-4.83-20.45-13.83s6.07-12.68,12.74-12.68C2135.68,1450.93,2140.45,1456.05,2140.6,1458.19Zm-14.77,4.53,6.07-3.74a2.63,2.63,0,0,0-2.14-1.29C2126.28,1457.69,2124.93,1460.63,2125.83,1462.72Z"/><path class="cls-20" d="M2171,1469.93l2.14.3a49.25,49.25,0,0,1,0,6.76l-12.83-.35s-.3-5.42-.2-6.26l2.34-.45-.05-5.72c0-3.29-.95-5-3.18-5-1.8,0-3.09,2-3.09,5l.05,5.87,2.09.64.1,5.92c-.2.25-13.93.2-13.88.2a54,54,0,0,1-.35-6.41l3-.5,0-10.15c-.1-.1-3.38-.25-3.48-.25s-1-7.16-1-7.41,9.85-2.14,9.85-2.14l1.29,3.28a8.08,8.08,0,0,1,6.07-2.73c2.89,0,6.47.4,8.31,3.48,1.44-2.14,4.43-3.23,8.36-3.23,4.72,0,10.39,2.39,10.39,12.68,0,2.69-.35,6.47-.35,6.47l2.64.45a37.85,37.85,0,0,1,0,6.41l-13.83,0s-.3-5.42-.2-6.26l2-.65,0-5.72c0-3.29-.84-4.58-3.08-4.58-1.44,0-3,1.25-3.14,3.73C2171,1464.66,2171,1469.93,2171,1469.93Z"/><path class="cls-20" d="M2213.77,1458.19s-.84-4.88-.49-6.47l14.87.15s.35,5.52.25,6.37l-2.79.1,3.78,8.45,3.58-8.3-2.48-.15-.1-6.47c.25-.25,14.32-.1,14.27-.1a52.11,52.11,0,0,1,.35,6.37l-3,.2s-6.17,14.32-9.2,18.85c0,0-6,.35-8.11-.15,0,0-7.07-14.62-7.81-18.7Z"/><path class="cls-20" d="M2271.23,1464.46c0,6.86-3.68,13.43-12.14,13.43-7.56,0-12.93-3.93-12.93-13.53s5.82-13,12.88-13S2271.23,1456.1,2271.23,1464.46Zm-16,.25a4.38,4.38,0,0,0,4,4.67c1.94,0,3.43-1.49,3.43-4.67,0-2.54-1-5.13-3.43-5.13C2256.2,1459.58,2255.21,1462.07,2255.21,1464.71Z"/><path class="cls-20" d="M2298.24,1451.62c.3.2-.2,10.05-.2,10.05l-8,1.1s-.4-3.64-3.23-3.54c-1.7,0-3.54,1.45-3.54,4.78a4.2,4.2,0,0,0,4,4.53,4.67,4.67,0,0,0,3.78-2c2,.39,7.12,5.47,7.12,5.47s-2.79,5.52-10.55,5.52-13.88-4.78-13.88-13.53c0-9.25,6.47-12.88,11.79-12.88,3.78,0,5.47,1.54,5.47,1.54l.45-2.54S2296.1,1450.23,2298.24,1451.62Z"/><path class="cls-20" d="M2324.6,1458.19l-1.34,5.07-9.6,5.28c.69.84,5.62.89,8.8.89a57.73,57.73,0,0,1-1.09,8c-12.74.94-20.45-4.83-20.45-13.83s6.07-12.68,12.74-12.68C2319.68,1450.93,2324.45,1456.05,2324.6,1458.19Zm-5.92-9.8-5.77-3.88-5.72,4.23c-1-.15-4.08-5.72-4.13-5.72s8.86-6.87,9.3-7c.25-.1,10.55,6.87,10.55,6.87S2319.48,1448,2318.68,1448.39Zm-8.85,14.33,6.07-3.74a2.63,2.63,0,0,0-2.14-1.29C2310.27,1457.69,2308.93,1460.63,2309.83,1462.72Z"/><path class="cls-20" d="M2342,1450.58s5-.15,7.12.6c.19.09-.5,8-.5,8.85,0,.4-6.82-.1-6.82-.25a2.46,2.46,0,0,0-2.58-2.19c-.6,0-1.55.15-1.55,1.25s2.79,1.74,5.23,2.93c3,1.39,6.22,4.23,6.22,8.66,0,4-3.83,7.11-8.21,7.11s-5.82-1-6.47-1.64c-.1.79-.2,2-.25,2s-6.76-.55-6.76-.55c-.1-.75-.1-8.11-.1-9.55a28.18,28.18,0,0,1,6.17-.25c.59,1.89,2,2.89,3,2.89s1.84-.45,1.84-1.3c0-1.59-2.14-2.09-4.13-3-3-1.3-6.41-3.19-6.41-8.36,0-3.48,3.23-7,9-7a7.26,7.26,0,0,1,4.82,1.44Z"/><path class="cls-20" d="M2385.14,1454.06c0,2.69-1.25,5.32-4.63,5.32s-5.32-1.94-5.42-5.07a4.84,4.84,0,0,1,4.88-5.17A5.22,5.22,0,0,1,2385.14,1454.06Zm0,17.91c0,2.68-1.25,5.32-4.63,5.32s-5.32-1.94-5.42-5.07A4.84,4.84,0,0,1,2380,1467,5.23,5.23,0,0,1,2385.14,1472Z"/><path class="cls-20" d="M2412.75,1452.22a7.91,7.91,0,0,1-3.69,6.47,9,9,0,0,1,4.18,7.46c0,7.16-5.77,11.34-11.84,11.34a13.29,13.29,0,0,1-12.38-7.66s5.22-6,5.62-6,2.44,4.28,6.12,4.28a2,2,0,0,0,2-2c0-2.29-2.19-3.24-4.88-3.24-.49-.49,0-6.91,0-6.91,2.29,0,5,0,5-3a2.32,2.32,0,0,0-2.44-2.44c-2.69,0-4.88,3.13-4.88,3.13s-5-4.33-4.82-5.52,3.73-6.71,10.35-6.71S2412.75,1445.16,2412.75,1452.22Z"/><path class="cls-20" d="M1898.75,1517.88l-1.34,5.08-9.6,5.27c.69.84,5.62.89,8.8.89a57.47,57.47,0,0,1-1.09,8c-12.74.95-20.45-4.82-20.45-13.83s6.07-12.68,12.74-12.68C1893.83,1510.62,1898.6,1515.74,1898.75,1517.88Zm-14.77,4.53,6.07-3.73a2.62,2.62,0,0,0-2.14-1.3C1884.43,1517.38,1883.08,1520.32,1884,1522.41Z"/><path class="cls-20" d="M1936,1504.25l.3,7.61,6.27-.1s.34,4.93-.3,7.32l-6.57.34s-.55,8.41,1.34,8.41c1.55,0,3.68-1.54,3.68-1.54l3.59,7.16s-4.58,4.23-10,4.23c-8.26,0-7.91-8.76-7.91-18.26,0-.1-3.43-.05-3.53-.15s.1-7.31.1-7.31l3.58-.4s.55-5.77.55-5.87C1928.35,1504.75,1936,1504.25,1936,1504.25Z"/><path class="cls-20" d="M1964.71,1514v-2.49s10.55-.34,10.55-.09.34,6.61.29,6.61-3.58.75-3.68.85.1,10.49.1,10.49,4.13,0,4.18.3a52.94,52.94,0,0,1-.1,7c-.15,0-11.29-.19-11.29-.34s-.5-2.54-.5-2.54-2,3.28-7.06,3.28c-4.58,0-11-3-11-13.28,0-9.45,6.06-12.24,11.14-12.24A13,13,0,0,1,1964.71,1514Zm-9.7,9.9c0,2.89,1.94,4.73,3.93,4.73,2.24,0,3.88-1.84,3.88-4.63s-1.64-4.83-3.68-4.83C1956.65,1519.17,1955,1520.92,1955,1523.9Z"/><path class="cls-20" d="M2006.3,1529.62l2.13.3a49.25,49.25,0,0,1,0,6.76l-12.83-.34s-.3-5.43-.2-6.27l2.34-.45,0-5.72c0-3.28-1-5-3.18-5-1.79,0-3.09,2-3.09,5l0,5.87,2.09.65.1,5.92c-.2.24-13.93.2-13.88.2a54.3,54.3,0,0,1-.35-6.42l3-.5,0-10.15c-.1-.1-3.38-.25-3.48-.25s-1-7.16-1-7.41,9.85-2.14,9.85-2.14l1.29,3.29a8.07,8.07,0,0,1,6.07-2.74c2.89,0,6.47.4,8.31,3.48,1.44-2.14,4.43-3.23,8.36-3.23,4.72,0,10.39,2.39,10.39,12.68,0,2.69-.34,6.47-.34,6.47l2.63.45a38,38,0,0,1,0,6.42l-13.83,0s-.3-5.43-.2-6.27l2-.65,0-5.72c0-3.28-.84-4.58-3.08-4.58-1.44,0-3,1.25-3.13,3.73C2006.3,1524.35,2006.3,1529.62,2006.3,1529.62Z"/><path class="cls-20" d="M2029,1536.24s.25-27.46.1-27.56-4-.6-4.08-.6.3-6.37.3-6.61,13-.9,13-.9V1513s1.69-1.84,5.92-1.84c5.07,0,10.89,2.38,10.89,12.73s-7.26,13.38-11.84,13.38c-4.82,0-5.92-2.09-6-2.29l-.5,1.5C2036.59,1536.73,2029,1536.24,2029,1536.24Zm10-12.09c0,3.13,1.44,5,3.58,5,1.94,0,3.18-1.74,3.18-5s-1.09-5.42-3.48-5.42C2040.37,1518.68,2039,1521.16,2039,1524.15Z"/><path class="cls-20" d="M2080.61,1517.88l-1.34,5.08-9.6,5.27c.69.84,5.62.89,8.8.89a57.47,57.47,0,0,1-1.09,8c-12.74.95-20.45-4.82-20.45-13.83s6.07-12.68,12.74-12.68C2075.69,1510.62,2080.46,1515.74,2080.61,1517.88Zm-6-21.44c.45.15,3.19,7.16,3,7.21s-14.33,4.68-14.53,4.58c-.79-.4-2.93-6-2.93-6S2074.39,1496.34,2074.64,1496.44Zm-8.8,26,6.07-3.73a2.62,2.62,0,0,0-2.14-1.3C2066.29,1517.38,2064.94,1520.32,2065.84,1522.41Z"/><path class="cls-20" d="M2111,1529.62l2.13.3a49.25,49.25,0,0,1,0,6.76l-12.83-.34s-.3-5.43-.2-6.27l2.34-.45,0-5.72c0-3.28-1-5-3.18-5-1.79,0-3.09,2-3.09,5l0,5.87,2.09.65.1,5.92c-.2.24-13.93.2-13.88.2a54.3,54.3,0,0,1-.35-6.42l3-.5.05-10.15c-.1-.1-3.38-.25-3.48-.25s-1-7.16-1-7.41,9.85-2.14,9.85-2.14l1.29,3.29a8.07,8.07,0,0,1,6.07-2.74c2.89,0,6.47.4,8.31,3.48,1.44-2.14,4.43-3.23,8.36-3.23,4.72,0,10.39,2.39,10.39,12.68,0,2.69-.34,6.47-.34,6.47l2.63.45a38,38,0,0,1,0,6.42l-13.83,0s-.3-5.43-.2-6.27l2-.65-.05-5.72c0-3.28-.84-4.58-3.08-4.58-1.44,0-3,1.25-3.14,3.73C2111,1524.35,2111,1529.62,2111,1529.62Z"/><path class="cls-20" d="M2165.37,1513.45s1.45-2.18,6.52-2.18c4.58,0,11.39,3,11.39,13.23s-6,12.73-11.09,12.73c-4.23,0-5.77-1.59-5.77-1.59v4.92s4.82.55,5,.7.15,6.72.2,6.72-18.06.1-18,0l-.29-6.77,3.78-.3-.05-20.74h-3.69c0-3.18-.34-7.36-.34-7.36s11-1.79,11.24-1.54C2164.43,1511.56,2165.37,1513.45,2165.37,1513.45Zm9,10.85c0-3.28-1.35-5-3.29-5-2.13,0-3.48,1.84-3.48,5,0,3,1.35,5.27,3.29,5.27C2173.23,1529.52,2174.33,1527.63,2174.33,1524.3Z"/><path class="cls-20" d="M2211.34,1524.15c0,6.86-3.68,13.43-12.14,13.43-7.56,0-12.93-3.93-12.93-13.53s5.82-13,12.88-13S2211.34,1515.79,2211.34,1524.15Zm-16,.25a4.38,4.38,0,0,0,4,4.67c1.94,0,3.43-1.49,3.43-4.67,0-2.54-1-5.13-3.43-5.13C2196.31,1519.27,2195.32,1521.76,2195.32,1524.4Z"/><path class="cls-20" d="M2234,1521.56a5.79,5.79,0,0,0-3.78-2c-2.59,0-4.33,2-4.33,5a21.18,21.18,0,0,0,.4,4.77l5.07.65.1,6.47c-.25.24-16.81.09-16.76.09a65.34,65.34,0,0,1-.35-6.86l3.28-.2,0-11.69a29.73,29.73,0,0,0-3,.15s-.8-6.22-.8-6.47,10-1.74,10-1.74l1.59,3.39s1.69-2.39,5.92-2.39c4.48,0,7.86,3.53,7.81,3.88C2239.19,1515.54,2234.17,1521.71,2234,1521.56Z"/><path class="cls-20" d="M2290,1511.86s-.55,28.85-.4,29,3.68.4,3.78.4-.1,6.57-.1,6.82-17.51.19-17.51.19v-6.81l4.48-.8v-5.07s-1.59,1.59-5.82,1.59c-5.07,0-11-2.39-11-12.73s6.36-13.38,10.94-13.38c5.07,0,6.91,2.09,6.91,2.09s.95-2,1.05-2.34S2290.08,1511.86,2290,1511.86Zm-10.55,12.29c0-3.13-1.44-4.78-3.58-4.78-1.94,0-3.18,1.55-3.18,4.83s1.09,4.77,3.48,4.77C2278.14,1529,2279.48,1527.13,2279.48,1524.15Z"/><path class="cls-20" d="M2295.6,1518.83l-2.09-.2s-.79-5.08-.45-6.67l11.39-.79s0,3.33.05,12c0,3.34,1.15,5,3.54,5,1.94,0,3.23-2,3.23-5l-.05-3.53-3.28-.15-.4-7.06,12.34-1v17.07c.09.1,3.08.64,3.18.64s.05,7.27.05,7.51-9.35.3-9.35.3l-.85-2.19a11,11,0,0,1-6.91,2.44c-5.08,0-10.45-2.39-10.45-12.73Z"/><path class="cls-20" d="M2348.68,1517.88l-1.35,5.08-9.6,5.27c.7.84,5.62.89,8.81.89a56.83,56.83,0,0,1-1.1,8c-12.73.95-20.44-4.82-20.44-13.83s6.07-12.68,12.73-12.68C2343.75,1510.62,2348.53,1515.74,2348.68,1517.88Zm-14.78,4.53,6.07-3.73a2.6,2.6,0,0,0-2.14-1.3C2334.35,1517.38,2333,1520.32,2333.9,1522.41Z"/><path class="cls-20" d="M2362.85,1531.66c0,2.69-1.24,5.32-4.62,5.32s-5.33-1.94-5.43-5.07a4.84,4.84,0,0,1,4.88-5.17A5.21,5.21,0,0,1,2362.85,1531.66Z"/><path class="cls-20" d="M2378.17,1531.66c0,2.69-1.24,5.32-4.62,5.32s-5.33-1.94-5.42-5.07a4.83,4.83,0,0,1,4.87-5.17A5.21,5.21,0,0,1,2378.17,1531.66Z"/><path class="cls-20" d="M2393.5,1531.66c0,2.69-1.25,5.32-4.63,5.32s-5.32-1.94-5.42-5.07a4.84,4.84,0,0,1,4.87-5.17A5.22,5.22,0,0,1,2393.5,1531.66Z"/></g></g></g></svg>