<?xml version="1.0" encoding="UTF-8"?>
<svg id="Camada_2" data-name="Camada 2" xmlns="http://www.w3.org/2000/svg" viewBox="0 0 1366 768">
  <defs>
    <style>
      .cls-1 {
        fill: #22b573;
      }

      .cls-1, .cls-2, .cls-3, .cls-4, .cls-5, .cls-6, .cls-7, .cls-8, .cls-9, .cls-10, .cls-11, .cls-12, .cls-13, .cls-14, .cls-15, .cls-16, .cls-17, .cls-18 {
        stroke-width: 0px;
      }

      .cls-2 {
        fill: #29abe2;
      }

      .cls-2, .cls-19, .cls-7, .cls-12 {
        opacity: .7;
      }

      .cls-3 {
        fill: #ed1c24;
      }

      .cls-4, .cls-12 {
        fill: #fcee21;
      }

      .cls-5 {
        fill: #f7931e;
      }

      .cls-6, .cls-7 {
        fill: #fff;
      }

      .cls-8 {
        fill: #f15a24;
      }

      .cls-9 {
        fill: #2e3192;
      }

      .cls-10 {
        fill: #9e005d;
      }

      .cls-11 {
        fill: lime;
      }

      .cls-13 {
        fill: #006837;
      }

      .cls-14 {
        fill: blue;
      }

      .cls-15 {
        fill: #fbb03b;
      }

      .cls-16 {
        fill: #ed1e79;
      }

      .cls-17 {
        fill: aqua;
      }

      .cls-18 {
        fill: #050335;
      }
    </style>
  </defs>
  <g id="Camada_1-2" data-name="Camada 1">
    <rect class="cls-18" width="1366" height="768"/>
    <g class="cls-19">
      <path class="cls-15" d="m280.04,172.45c1.7,6.37,3.37,12.66,5.11,19.18,9.64-1.97,19.19-3.78,29.19-4.32.4,2.06.8,4.14,1.2,6.22-1.67-1.37-1.33-3.5-2.36-5.25-10.03.91-19.96,2.52-29.79,4.96-.1.26-.23.57-.34.85-.16.04-.36.14-.41.09-.83-.84-1.79-.46-2.68-.24-5.82,1.48-11.64,2.99-17.45,4.5-2.64.69-5.28,1.39-7.92,2.08.47,1.92.92,3.78,1.38,5.65-1.44-1.48-1.95-3.28-2.3-5.19-.41-.12-.83-.24-1.47-.43.35-.29.51-.54.73-.6,3.55-.97,7.1-1.94,10.67-2.86,5.35-1.38,10.71-2.72,16.07-4.08.46-.12.89-.33,1.19-.44-1.15-3.18-2.4-6.27-3.37-9.44-.95-3.13-1.62-6.34-2.44-9.63-.33-.03-.73-.15-1.11-.1-15.84,1.87-30.13-2.08-42.72-11.78-8.18-6.31-14.07-14.41-17.53-24.25-2.04-5.8-3.09-11.76-3.24-17.85-.12-5.13.63-10.21,1.94-15.19,1.69-6.39,4.29-12.37,8.01-17.85.26-.39.44-.84.68-1.3-1.61-1.98-3.19-3.93-4.87-6-2.15,1.96-3.8,4.22-5.39,6.5-4.91,7.01-7.84,14.81-9.01,23.27-1.59,11.53-.91,22.92,2.64,34.04,3.18,9.95,8.28,18.71,16.35,25.56,5.91,5.02,12.58,8.64,19.98,10.95,4.25,1.33,8.59,2.32,13.01,2.71,3.66.32,7.37.34,11.05.25,3-.07,5.99-.51,8.98-.75.5-.04,1,.08,1.51.13,0,.16.02.32.03.47-2.37.38-4.74,1-7.12,1.09-4.51.17-9.04.27-13.53-.04-3.38-.23-6.75-.99-10.06-1.76-6.16-1.43-11.99-3.76-17.39-7.08-9.35-5.75-16.34-13.61-20.84-23.61-2.53-5.62-4.32-11.48-5.3-17.6-.87-5.42-1.31-10.85-1.1-16.33.46-12.14,3.53-23.45,10.96-33.31,1.39-1.85,2.92-3.6,4.46-5.5-1.28-1.39-2.57-2.79-3.86-4.19.12-.12.25-.24.37-.37,1.87.65,2.8,2.48,4.34,3.81,2.97-2.45,5.94-5.02,10.06-5.62.06,1.17-.77,1.08-1.27,1.25-2.93.96-5.32,2.76-7.57,4.78-.14.13-.22.33-.42.65,1.45,1.91,2.93,3.85,4.54,5.96.69-.83,1.34-1.57,1.95-2.35,5.37-6.75,11.93-11.97,19.78-15.57,10.05-4.61,20.52-5.32,31.26-3.24.34.07.65.34,1.05.57-.58.76-1.21.53-1.77.39-4.22-1.02-8.51-1.17-12.82-1.03-4.13.13-8.13.99-12.04,2.22-7.85,2.47-14.62,6.78-20.41,12.55-5.02,5-9.01,10.74-11.92,17.27-2.3,5.16-3.81,10.49-4.64,16.07-.87,5.88-.58,11.69.41,17.53.85,4.97,2.46,9.66,4.7,14.13,3.19,6.36,7.53,11.84,12.99,16.45,6.15,5.19,13.06,8.94,20.79,11.15,11.7,3.34,23.3,3.1,34.79-1.14,8.35-3.09,15.62-7.79,21.86-14.11,1.56-1.58,2.94-3.34,4.29-5.18-2.37.98-4.64,2.11-7.64.7,1.11-.16,1.8-.35,2.48-.34,2.64.04,4.58-1.22,6.09-3.23,3.08-4.09,4.11-11.18,1.2-15.86-1.6-2.57-4.74-3.57-7.91-2.19-.99.43-1.46,1.27-1.45,2.28.03,2.18-1.07,3.76-2.54,5.17-1.33,1.27-2.65,2.57-4.02,3.8-.93.83-1.33,1.85-1.43,3.06-.13,1.6.38,2.3,1.98,2.47,1.09.11,2.19.06,3.27.21,1.54.21,2.65,1.06,3.19,2.53.09.24-.05.57-.1.99-.33-.19-.59-.25-.65-.39-.77-1.91-2.36-2.26-4.17-2.29-.88-.02-1.79-.06-2.63-.3-1.5-.43-2-1.2-2-2.71,0-1.71.52-3.22,1.82-4.4,1.26-1.15,2.47-2.36,3.76-3.49,1.39-1.22,2.29-2.6,2.44-4.53.18-2.37,1.23-3.28,3.56-3.82,4.77-1.09,7.58,1.87,8.69,4.96,1.12,3.12,1.19,6.29.37,9.49-.12.45-.2.91-.36,1.65,7.86-11.61,11.01-33.1,1.57-50.48-8.89-16.36-22.69-26.38-41.64-29.65,1.35-.66,2.33-.46,3.29-.32,6.87,1.06,13.1,3.77,18.9,7.51,8.04,5.2,14.7,11.79,19.48,20.14,3.57,6.24,5.58,12.99,6.39,20.14.52,4.66.48,9.29-.16,13.91-1,7.26-3.44,14.03-7.2,20.31-5.96,9.96-14.26,17.41-24.64,22.49-3.35,1.64-6.99,2.71-10.5,4.03-.37.14-.75.26-1.31.44Zm-3.68,1.69c1.37,6.44,2.58,12.59,5.98,18.13.64-.15,1.21-.29,1.83-.44-1.67-6.16-3.3-12.17-4.97-18.31-1.03.22-1.87.4-2.84.61Z"/>
      <path class="cls-1" d="m263.44,81.94c1.04-.05,1.68.03,2.25-.12,3.76-.99,7.5-2.06,11.25-3.06,5.64-1.51,11.36-2.37,17.22-2.08,1,.05,2.03.32,2.95.7,1.34.54,1.97,1.74,1.89,3.1-.07,1.26-1,1.61-1.95,2.09-.75.37-1.43.97-2,1.6-.82.9-1.53,1.92-2.27,2.9-1.38,1.83-2.02,3.74-1.31,6.11.89,2.95-.21,4.93-3.13,6.11-1.26.51-2.6.84-3.88,1.31-.96.35-1.91.72-2.82,1.19-.88.45-1.18,1.32-1.13,2.25.05.94.7,1.43,1.55,1.69.59.18,1.17.38,1.76.53,3.71.98,5.98,4.12,5.52,7.9-.21,1.74-.61,3.51-1.22,5.15-.61,1.63-.42,2.93.76,4.11.82.82,1.69,1.59,2.53,2.39.69.66,1.43,1.29,2.01,2.03.35.45.6,1.09.65,1.67.15,1.71-1.02,2.5-2.46,1.61-.91-.56-1.66-1.4-2.45-2.15-1.77-1.7-3.45-3.5-5.31-5.11-2.14-1.85-4.7-2.66-7.55-2.71-2.45-.04-4.92-.15-7.35-.45-3.8-.47-7.01-2.09-9.38-5.25-1.74-2.33-3.88-4.23-6.7-5.18-2.41-.81-4.88-1.22-7.45-.84-4.65.7-9.32,1.32-13.98,1.95-.47.06-.96.07-1.43.04-2.09-.12-3.44-1.09-3.88-2.75-.43-1.66.3-3.63,1.89-4.63,1.09-.68,2.32-1.15,3.47-1.73,1.09-.55,2.25-1.02,3.25-1.7,1.49-1.01,2.04-2.76,1.57-4.33-.31-1.04-.87-1.38-1.84-.9-.98.48-1.85,1.17-2.81,1.69-1.01.55-2.04,1.11-3.12,1.48-1.35.45-2.5-.31-2.55-1.73-.03-.91.15-1.93.55-2.75,1.63-3.31,4.24-5.63,7.6-7.15,1.9-.86,3.86-1.07,5.76-.31,4.63,1.87,8.3.51,11.64-2.91,2.28-2.34,4.77-4.5,7.37-6.47,1.06-.8,2.64-1.11,4.02-1.22,2.14-.18,2.72.82,1.89,2.78-.37.87-.76,1.74-1.38,3.16Zm29.53,48.7c.42-1.74-.52-2.49-1.32-3.26-1.03-.99-2.12-1.93-3.18-2.9-1.76-1.6-2.27-3.4-1.32-5.71.64-1.55,1.08-3.26,1.23-4.93.29-3.34-1.76-5.88-5.03-6.68-.91-.22-1.81-.58-2.66-1-.96-.48-1.31-1.44-1.21-2.42.13-1.33.61-2.54,2.01-3.08,1.08-.42,2.16-.86,3.24-1.27,1.34-.51,2.74-.88,4.01-1.51,1.82-.89,2.25-2.05,1.8-4.02-.38-1.68-.82-3.47.04-5.03,1.63-2.96,3.16-6.07,6.57-7.52,1.04-.44,1.19-1.19.55-2.13-.67-.98-1.69-1.44-2.8-1.47-2.53-.05-5.08-.17-7.58.08-4.97.5-9.78,1.79-14.57,3.17-2.36.68-4.72,1.34-7.1,1.97-.87.23-1.78.28-2.5-.46-.78-.82-.32-1.66,0-2.48.34-.87.72-1.72,1.26-3.01-1.36.12-2.3.12-3.19.31-1.65.36-2.97,1.37-4.18,2.5-2.09,1.96-4.14,3.97-6.25,5.92-2.7,2.5-5.8,3.54-9.44,2.36-.65-.21-1.31-.48-1.97-.53-1.21-.11-2.52-.38-3.63-.04-3.77,1.13-6.54,3.58-8.34,7.08-.5.98-.68,2.06.18,3.34.92-.41,1.86-.76,2.72-1.24,1.25-.7,2.4-1.59,3.67-2.23,1.63-.83,2.83-.28,3.25,1.49.44,1.89.28,3.73-1.38,5.03-.96.75-1.99,1.63-3.11,1.87-1.55.32-2.63,1.35-3.97,1.96-1.31.6-1.96,2.43-1.62,3.67.34,1.23,1.51,1.95,3.23,1.98.27,0,.55.02.82-.02,2.29-.34,4.57-.73,6.86-1.04,2.91-.4,5.82-.91,8.74-1.05,3.24-.16,6.36.48,9.17,2.34,1.91,1.27,3.43,2.91,4.85,4.66,2,2.46,4.57,3.86,7.69,4.23,2.03.24,4.08.58,6.11.51,5.39-.17,9.66,1.9,13.09,5.97,1.01,1.2,2.14,2.29,3.29,3.37.49.46,1.15.75,1.95,1.25Z"/>
      <path class="cls-1" d="m234.79,118.2c2.04-1.47,4.27-1.5,6.55-.97.79.19,1.57.45,2.35.71,1.61.55,3.22.44,4.85.11,1.13-.23,2.27-.48,3.41-.63,2.41-.34,4.11.73,5.18,2.83.84,1.64,1.55,3.34,2.34,5,.38.8.77,1.61,1.27,2.33.93,1.32,2.14,2.09,3.87,1.6,1.34-.38,2.44.08,3.24,1.17.77,1.05.65,2.26.08,3.3-.72,1.31-1.63,2.51-2.49,3.74-.39.56-.83,1.09-1.28,1.6-1.44,1.59-1.82,3.43-1.48,5.52.15.93.11,1.9.04,2.85-.09,1.28-.65,2.36-1.68,3.15-1.17.9-1.66,2.1-1.78,3.54-.09,1.09-.24,2.18-.44,3.25-.35,1.94-1.71,3.1-3.7,3.17-2.65.09-4.77-1.03-6.46-3-2.24-2.6-3.35-5.75-4.28-8.99-.56-1.97-1.04-3.97-1.76-5.88-1.15-3.05-2.91-4.1-6.17-3.94-1.23.06-2.46.16-3.69.19-5.49.11-9.04-5.38-8.21-10.28.15-.9.7-1.79,1.25-2.55,1.2-1.67,2.33-3.37,2.93-5.36.35-1.18,1.26-1.75,2.43-1.91.22-.03.46.13,1.19.35-2.33.73-2.82,2.38-3.47,4.02-.44,1.12-1.21,2.15-1.99,3.08-1.92,2.31-1.79,4.78-.65,7.29,1.12,2.46,3.02,4.04,5.8,4.3,1.01.09,2.05-.02,3.07-.06.75-.02,1.5-.12,2.25-.09,3.2.12,5.24,1.56,6.28,4.65.89,2.65,1.55,5.38,2.42,8.03.9,2.74,2.06,5.34,4.28,7.34,1.41,1.28,3.02,1.8,4.88,1.69,1.49-.09,2.25-.7,2.6-2.14.13-.53.2-1.08.23-1.62.16-2.61.94-4.86,2.98-6.7.67-.61.69-1.98.9-3.03.09-.44-.11-.94-.18-1.41-.35-2.27.02-4.29,1.63-6.09,1.18-1.31,2.17-2.81,3.16-4.28.37-.55.65-1.22.74-1.87.19-1.3-.58-2.07-1.89-2.07-.14,0-.27.03-.41.04-3.14.23-4.48-.5-5.84-3.32-.8-1.66-1.52-3.36-2.27-5.04-1.34-2.99-2.58-3.69-5.77-3.25-.61.09-1.22.17-1.82.33-2.1.58-4.19.63-6.26-.09-2.17-.76-4.36-1.09-6.65-.65-.5.1-1.04.01-1.56.01Z"/>
      <path class="cls-15" d="m258.77,207.62c-.05.43-.1.89-.21,1.91-.63-2.28-2.28-1.24-3.45-1.51.01-.14.03-.29.04-.43.57-.29,1.15-.58,1.83-.93.16-1.72-.78-3.51-.02-5.68,1.28,1.83.22,4.02,1.7,5.6,3.07-.67,6.25-1.37,9.43-2.06,3.27-.71,6.54-1.39,9.8-2.13,3.19-.72,6.36-1.52,9.55-2.26,3.19-.74,6.38-1.47,9.58-2.18,3.26-.72,6.52-1.49,9.8-2.09,3.14-.58,6.21-1.66,9.48-1.38-4.64,1.52-9.44,2.32-14.18,3.39-4.86,1.1-9.71,2.22-14.56,3.33-4.79,1.09-9.57,2.19-14.36,3.26-4.79,1.07-9.58,2.09-14.44,3.15Z"/>
      <path class="cls-15" d="m298.79,173.02c3.08-2.02,6.03-3.95,9.18-6.02-.72,1.53-1.44,2.21-3.95,3.85-1.53,1-3.07,2-4.67,3.04.8,1.43,1.53,2.75,2.38,4.29-1.48,0-1.52-1.03-1.98-1.6-.51-.63-.95-1.32-1.48-2.08-4.81,2.31-9.56,4.61-14.93,5.93.23-1.25,1.08-1.21,1.71-1.47,3.29-1.33,6.58-2.64,9.85-3.99.87-.36,1.67-.88,2.64-1.4-.93-1.56-1.81-3.04-2.7-4.52,1.85.7,2.48,2.51,3.95,3.97Z"/>
      <path class="cls-1" d="m303.97,117.57c1.44.05,2.64.51,3.76,1.21.96.6,1.39,1.59,1.34,2.61-.02.52-.63,1.29-1.15,1.47-2.07.71-4.2,1.29-6.39.43-.55-.22-1.12-.52-1.53-.94-1.31-1.36-1.14-2.81.53-3.66,1.06-.54,2.28-.75,3.43-1.11Zm4.42,4.12c-1.09-2.75-3.81-3.7-6.67-2.49-.71.3-1.56.69-1.37,1.52.14.61.81,1.2,1.39,1.59.41.28,1.04.3,1.58.32,1.72.08,3.38-.2,5.08-.94Z"/>
      <path class="cls-1" d="m221.54,100.67c-.45.22-.95.38-1.35.66-.76.54-1.61,1.05-2.18,1.76-.74.92-.49,2.32.26,2.73,1.1.6,2.57.03,3.01-1.21.22-.64.33-1.31.51-2.06.71,1.39.68,2.36-.07,3.35-.76,1.01-2.06,1.46-3.28,1.15-.99-.25-1.76-1.3-1.83-2.46-.14-2.29,2.42-4.84,4.92-3.93Z"/>
    </g>
    <g class="cls-19">
      <path class="cls-15" d="m705.11,705.45c-1.7,6.37-3.37,12.66-5.11,19.18-9.64-1.97-19.19-3.78-29.19-4.32-.4,2.06-.8,4.14-1.2,6.22,1.67-1.37,1.33-3.5,2.36-5.25,10.03.91,19.96,2.52,29.79,4.96.1.26.23.57.34.85.16.04.36.14.41.09.83-.84,1.79-.46,2.68-.24,5.82,1.48,11.64,2.99,17.45,4.5,2.64.69,5.28,1.39,7.92,2.08-.47,1.92-.92,3.78-1.38,5.65,1.44-1.48,1.95-3.28,2.3-5.19.41-.12.83-.24,1.47-.43-.35-.29-.51-.54-.73-.6-3.55-.97-7.1-1.94-10.67-2.86-5.35-1.38-10.71-2.72-16.07-4.08-.46-.12-.89-.33-1.19-.44,1.15-3.18,2.4-6.27,3.37-9.44.95-3.13,1.62-6.34,2.44-9.63.33-.03.73-.15,1.11-.1,15.84,1.87,30.13-2.08,42.72-11.78,8.18-6.31,14.07-14.41,17.53-24.25,2.04-5.8,3.09-11.76,3.24-17.85.12-5.13-.63-10.21-1.94-15.19-1.69-6.39-4.29-12.37-8.01-17.85-.26-.39-.44-.84-.68-1.3,1.61-1.98,3.19-3.93,4.87-6,2.15,1.96,3.8,4.22,5.39,6.5,4.91,7.01,7.84,14.81,9.01,23.27,1.59,11.53.91,22.92-2.64,34.04-3.18,9.95-8.28,18.71-16.35,25.56-5.91,5.02-12.58,8.64-19.98,10.95-4.25,1.33-8.59,2.32-13.01,2.71-3.66.32-7.37.34-11.05.25-3-.07-5.99-.51-8.98-.75-.5-.04-1,.08-1.51.13,0,.16-.02.32-.03.47,2.37.38,4.74,1,7.12,1.09,4.51.17,9.04.27,13.53-.04,3.38-.23,6.75-.99,10.06-1.76,6.16-1.43,11.99-3.76,17.39-7.08,9.35-5.75,16.34-13.61,20.84-23.61,2.53-5.62,4.32-11.48,5.3-17.6.87-5.42,1.31-10.85,1.1-16.33-.46-12.14-3.53-23.45-10.96-33.31-1.39-1.85-2.92-3.6-4.46-5.5,1.28-1.39,2.57-2.79,3.86-4.19-.12-.12-.25-.24-.37-.37-1.87.65-2.8,2.48-4.34,3.81-2.97-2.45-5.94-5.02-10.06-5.62-.06,1.17.77,1.08,1.27,1.25,2.93.96,5.32,2.76,7.57,4.78.14.13.22.33.42.65-1.45,1.91-2.93,3.85-4.54,5.96-.69-.83-1.34-1.57-1.95-2.35-5.37-6.75-11.93-11.97-19.78-15.57-10.05-4.61-20.52-5.32-31.26-3.24-.34.07-.65.34-1.05.57.58.76,1.21.53,1.77.39,4.22-1.02,8.51-1.17,12.82-1.03,4.13.13,8.13.99,12.04,2.22,7.85,2.47,14.62,6.78,20.41,12.55,5.02,5,9.01,10.74,11.92,17.27,2.3,5.16,3.81,10.49,4.64,16.07.87,5.88.58,11.69-.41,17.53-.85,4.97-2.46,9.66-4.7,14.13-3.19,6.36-7.53,11.84-12.99,16.45-6.15,5.19-13.06,8.94-20.79,11.15-11.7,3.34-23.3,3.1-34.79-1.14-8.35-3.09-15.62-7.79-21.86-14.11-1.56-1.58-2.94-3.34-4.29-5.18,2.37.98,4.64,2.11,7.64.7-1.11-.16-1.8-.35-2.48-.34-2.64.04-4.58-1.22-6.09-3.23-3.08-4.09-4.11-11.18-1.2-15.86,1.6-2.57,4.74-3.57,7.91-2.19.99.43,1.46,1.27,1.45,2.28-.03,2.18,1.07,3.76,2.54,5.17,1.33,1.27,2.65,2.57,4.02,3.8.93.83,1.33,1.85,1.43,3.06.13,1.6-.38,2.3-1.98,2.47-1.09.11-2.19.06-3.27.21-1.54.21-2.65,1.06-3.19,2.53-.09.24.05.57.1.99.33-.19.59-.25.65-.39.77-1.91,2.36-2.26,4.17-2.29.88-.02,1.79-.06,2.63-.3,1.5-.43,2-1.2,2-2.71,0-1.71-.52-3.22-1.82-4.4-1.26-1.15-2.47-2.36-3.76-3.49-1.39-1.22-2.29-2.6-2.44-4.53-.18-2.37-1.23-3.28-3.56-3.82-4.77-1.09-7.58,1.87-8.69,4.96-1.12,3.12-1.19,6.29-.37,9.49.12.45.2.91.36,1.65-7.86-11.61-11.01-33.1-1.57-50.48,8.89-16.36,22.69-26.38,41.64-29.65-1.35-.66-2.33-.46-3.29-.32-6.87,1.06-13.1,3.77-18.9,7.51-8.04,5.2-14.7,11.79-19.48,20.14-3.57,6.24-5.58,12.99-6.39,20.14-.52,4.66-.48,9.29.16,13.91,1,7.26,3.44,14.03,7.2,20.31,5.96,9.96,14.26,17.41,24.64,22.49,3.35,1.64,6.99,2.71,10.5,4.03.37.14.75.26,1.31.44Zm3.68,1.69c-1.37,6.44-2.58,12.59-5.98,18.13-.64-.15-1.21-.29-1.83-.44,1.67-6.16,3.3-12.17,4.97-18.31,1.03.22,1.87.4,2.84.61Z"/>
      <path class="cls-1" d="m721.71,614.94c-1.04-.05-1.68.03-2.25-.12-3.76-.99-7.5-2.06-11.25-3.06-5.64-1.51-11.36-2.37-17.22-2.08-1,.05-2.03.32-2.95.7-1.34.54-1.97,1.74-1.89,3.1.07,1.26,1,1.61,1.95,2.09.75.37,1.43.97,2,1.6.82.9,1.53,1.92,2.27,2.9,1.38,1.83,2.02,3.74,1.31,6.11-.89,2.95.21,4.93,3.13,6.11,1.26.51,2.6.84,3.88,1.31.96.35,1.91.72,2.82,1.19.88.45,1.18,1.32,1.13,2.25-.05.94-.7,1.43-1.55,1.69-.59.18-1.17.38-1.76.53-3.71.98-5.98,4.12-5.52,7.9.21,1.74.61,3.51,1.22,5.15.61,1.63.42,2.93-.76,4.11-.82.82-1.69,1.59-2.53,2.39-.69.66-1.43,1.29-2.01,2.03-.35.45-.6,1.09-.65,1.67-.15,1.71,1.02,2.5,2.46,1.61.91-.56,1.66-1.4,2.45-2.15,1.77-1.7,3.45-3.5,5.31-5.11,2.14-1.85,4.7-2.66,7.55-2.71,2.45-.04,4.92-.15,7.35-.45,3.8-.47,7.01-2.09,9.38-5.25,1.74-2.33,3.88-4.23,6.7-5.18,2.41-.81,4.88-1.22,7.45-.84,4.65.7,9.32,1.32,13.98,1.95.47.06.96.07,1.43.04,2.09-.12,3.44-1.09,3.88-2.75.43-1.66-.3-3.63-1.89-4.63-1.09-.68-2.32-1.15-3.47-1.73-1.09-.55-2.25-1.02-3.25-1.7-1.49-1.01-2.04-2.76-1.57-4.33.31-1.04.87-1.38,1.84-.9.98.48,1.85,1.17,2.81,1.69,1.01.55,2.04,1.11,3.12,1.48,1.35.45,2.5-.31,2.55-1.73.03-.91-.15-1.93-.55-2.75-1.63-3.31-4.24-5.63-7.6-7.15-1.9-.86-3.86-1.07-5.76-.31-4.63,1.87-8.3.51-11.64-2.91-2.28-2.34-4.77-4.5-7.37-6.47-1.06-.8-2.64-1.11-4.02-1.22-2.14-.18-2.72.82-1.89,2.78.37.87.76,1.74,1.38,3.16Zm-29.53,48.7c-.42-1.74.52-2.49,1.32-3.26,1.03-.99,2.12-1.93,3.18-2.9,1.76-1.6,2.27-3.4,1.32-5.71-.64-1.55-1.08-3.26-1.23-4.93-.29-3.34,1.76-5.88,5.03-6.68.91-.22,1.81-.58,2.66-1,.96-.48,1.31-1.44,1.21-2.42-.13-1.33-.61-2.54-2.01-3.08-1.08-.42-2.16-.86-3.24-1.27-1.34-.51-2.74-.88-4.01-1.51-1.82-.89-2.25-2.05-1.8-4.02.38-1.68.82-3.47-.04-5.03-1.63-2.96-3.16-6.07-6.57-7.52-1.04-.44-1.19-1.19-.55-2.13.67-.98,1.69-1.44,2.8-1.47,2.53-.05,5.08-.17,7.58.08,4.97.5,9.78,1.79,14.57,3.17,2.36.68,4.72,1.34,7.1,1.97.87.23,1.78.28,2.5-.46.78-.82.32-1.66,0-2.48-.34-.87-.72-1.72-1.26-3.01,1.36.12,2.3.12,3.19.31,1.65.36,2.97,1.37,4.18,2.5,2.09,1.96,4.14,3.97,6.25,5.92,2.7,2.5,5.8,3.54,9.44,2.36.65-.21,1.31-.48,1.97-.53,1.21-.11,2.52-.38,3.63-.04,3.77,1.13,6.54,3.58,8.34,7.08.5.98.68,2.06-.18,3.34-.92-.41-1.86-.76-2.72-1.24-1.25-.7-2.4-1.59-3.67-2.23-1.63-.83-2.83-.28-3.25,1.49-.44,1.89-.28,3.73,1.38,5.03.96.75,1.99,1.63,3.11,1.87,1.55.32,2.63,1.35,3.97,1.96,1.31.6,1.96,2.43,1.62,3.67-.34,1.23-1.51,1.95-3.23,1.98-.27,0-.55.02-.82-.02-2.29-.34-4.57-.73-6.86-1.04-2.91-.4-5.82-.91-8.74-1.05-3.24-.16-6.36.48-9.17,2.34-1.91,1.27-3.43,2.91-4.85,4.66-2,2.46-4.57,3.86-7.69,4.23-2.03.24-4.08.58-6.11.51-5.39-.17-9.66,1.9-13.09,5.97-1.01,1.2-2.14,2.29-3.29,3.37-.49.46-1.15.75-1.95,1.25Z"/>
      <path class="cls-1" d="m750.36,651.2c-2.04-1.47-4.27-1.5-6.55-.97-.79.19-1.57.45-2.35.71-1.61.55-3.22.44-4.85.11-1.13-.23-2.27-.48-3.41-.63-2.41-.34-4.11.73-5.18,2.83-.84,1.64-1.55,3.34-2.34,5-.38.8-.77,1.61-1.27,2.33-.93,1.32-2.14,2.09-3.87,1.6-1.34-.38-2.44.08-3.24,1.17-.77,1.05-.65,2.26-.08,3.3.72,1.31,1.63,2.51,2.49,3.74.39.56.83,1.09,1.28,1.6,1.44,1.59,1.82,3.43,1.48,5.52-.15.93-.11,1.9-.04,2.85.09,1.28.65,2.36,1.68,3.15,1.17.9,1.66,2.1,1.78,3.54.09,1.09.24,2.18.44,3.25.35,1.94,1.71,3.1,3.7,3.17,2.65.09,4.77-1.03,6.46-3,2.24-2.6,3.35-5.75,4.28-8.99.56-1.97,1.04-3.97,1.76-5.88,1.15-3.05,2.91-4.1,6.17-3.94,1.23.06,2.46.16,3.69.19,5.49.11,9.04-5.38,8.21-10.28-.15-.9-.7-1.79-1.25-2.55-1.2-1.67-2.33-3.37-2.93-5.36-.35-1.18-1.26-1.75-2.43-1.91-.22-.03-.46.13-1.19.35,2.33.73,2.82,2.38,3.47,4.02.44,1.12,1.21,2.15,1.99,3.08,1.92,2.31,1.79,4.78.65,7.29-1.12,2.46-3.02,4.04-5.8,4.3-1.01.09-2.05-.02-3.07-.06-.75-.02-1.5-.12-2.25-.09-3.2.12-5.24,1.56-6.28,4.65-.89,2.65-1.55,5.38-2.42,8.03-.9,2.74-2.06,5.34-4.28,7.34-1.41,1.28-3.02,1.8-4.88,1.69-1.49-.09-2.25-.7-2.6-2.14-.13-.53-.2-1.08-.23-1.62-.16-2.61-.94-4.86-2.98-6.7-.67-.61-.69-1.98-.9-3.03-.09-.44.11-.94.18-1.41.35-2.27-.02-4.29-1.63-6.09-1.18-1.31-2.17-2.81-3.16-4.28-.37-.55-.65-1.22-.74-1.87-.19-1.3.58-2.07,1.89-2.07.14,0,.27.03.41.04,3.14.23,4.48-.5,5.84-3.32.8-1.66,1.52-3.36,2.27-5.04,1.34-2.99,2.58-3.69,5.77-3.25.61.09,1.22.17,1.82.33,2.1.58,4.19.63,6.26-.09,2.17-.76,4.36-1.09,6.65-.65.5.1,1.04.01,1.56.01Z"/>
      <path class="cls-15" d="m726.38,740.62c.05.43.1.89.21,1.91.63-2.28,2.28-1.24,3.45-1.51-.01-.14-.03-.29-.04-.43-.57-.29-1.15-.58-1.83-.93-.16-1.72.78-3.51.02-5.68-1.28,1.83-.22,4.02-1.7,5.6-3.07-.67-6.25-1.37-9.43-2.06-3.27-.71-6.54-1.39-9.8-2.13-3.19-.72-6.36-1.52-9.55-2.26-3.19-.74-6.38-1.47-9.58-2.18-3.26-.72-6.52-1.49-9.8-2.09-3.14-.58-6.21-1.66-9.48-1.38,4.64,1.52,9.44,2.32,14.18,3.39,4.86,1.1,9.71,2.22,14.56,3.33,4.79,1.09,9.57,2.19,14.36,3.26,4.79,1.07,9.58,2.09,14.44,3.15Z"/>
      <path class="cls-15" d="m686.36,706.02c-3.08-2.02-6.03-3.95-9.18-6.02.72,1.53,1.44,2.21,3.95,3.85,1.53,1,3.07,2,4.67,3.04-.8,1.43-1.53,2.75-2.38,4.29,1.48,0,1.52-1.03,1.98-1.6.51-.63.95-1.32,1.48-2.08,4.81,2.31,9.56,4.61,14.93,5.93-.23-1.25-1.08-1.21-1.71-1.47-3.29-1.33-6.58-2.64-9.85-3.99-.87-.36-1.67-.88-2.64-1.4.93-1.56,1.81-3.04,2.7-4.52-1.85.7-2.48,2.51-3.95,3.97Z"/>
      <path class="cls-1" d="m681.18,650.57c-1.44.05-2.64.51-3.76,1.21-.96.6-1.39,1.59-1.34,2.61.02.52.63,1.29,1.15,1.47,2.07.71,4.2,1.29,6.39.43.55-.22,1.12-.52,1.53-.94,1.31-1.36,1.14-2.81-.53-3.66-1.06-.54-2.28-.75-3.43-1.11Zm-4.42,4.12c1.09-2.75,3.81-3.7,6.67-2.49.71.3,1.56.69,1.37,1.52-.14.61-.81,1.2-1.39,1.59-.41.28-1.04.3-1.58.32-1.72.08-3.38-.2-5.08-.94Z"/>
      <path class="cls-1" d="m763.61,633.67c.45.22.95.38,1.35.66.76.54,1.61,1.05,2.18,1.76.74.92.49,2.32-.26,2.73-1.1.6-2.57.03-3.01-1.21-.22-.64-.33-1.31-.51-2.06-.71,1.39-.68,2.36.07,3.35.76,1.01,2.06,1.46,3.28,1.15.99-.25,1.76-1.3,1.83-2.46.14-2.29-2.42-4.84-4.92-3.93Z"/>
    </g>
    <g class="cls-19">
      <path class="cls-17" d="m165.13,321.89c1.38-.31,2.74-.66,4.13-.93,5.43-1.07,10.78-2.37,15.85-4.7,7.14-3.29,11.61-8.67,13.2-16.37,2.33-11.28-4.33-20.25-11.25-24.42-5.48-3.31-11.41-5.31-17.74-6.23-11.89-1.73-23.42-.33-34.51,4.23-7.02,2.89-12.74,7.39-16.61,14.11-5.56,9.65-3.86,18.5,3.16,26.37,5.1,5.72,11.77,8.43,19.25,9.33,2.45.29,4.92.34,7.38.55,2.02.17,2.4.58,2.15,2.59-.24,1.85-.5,3.72-1.04,5.49-.54,1.76-1.43,3.42-2.35,5.54,7.01-3.61,12.44-8.56,17.57-13.95-.5,2.94-2.53,4.83-4.51,6.62-4.84,4.41-10.34,7.89-16.1,10.98-.7.38-1.41.9-2.06-.43,3.96-4.12,7.02-8.81,6.95-15.12-3.04-.32-5.96-.57-8.86-.93-10.95-1.38-19.37-6.6-24.25-16.66-3.74-7.7-2.41-15.18,2.02-22.23,4.61-7.34,11.41-11.87,19.42-14.74,8.17-2.92,16.66-4.29,25.28-3.93,8.52.35,16.85,1.94,24.37,6.38,5.14,3.04,9.24,6.99,11.71,12.54,4.71,10.6.48,24.15-8.9,29.69-6.68,3.94-13.95,5.85-21.5,6.97-.58.09-1.19.02-1.78,0-.29,0-.58-.08-.87-.12-.04-.2-.08-.4-.11-.6Z"/>
      <path class="cls-17" d="m176.05,325.67c1.76-.46,3.05-.81,4.35-1.14,10.77-2.67,18.9-8.7,23.63-18.85,2.14-4.59,2.51-9.48,1.34-14.46-.4-1.7-.68-3.43-1.07-5.45,1.06,0,1.93-.16,2.72.03,6.73,1.61,12.91,4.28,17.73,9.47,5.66,6.1,6.71,15.73,2.33,22.44-1.63,2.49-3.75,4.56-6.45,5.94-.61.31-1.18.68-1.87,1.08,2.66,6,8.58,8.46,13.43,12.6-3.91.51-7.3.08-10.65-.58-5.31-1.04-10.65-2.01-15.62-4.33-.62-.29-1.57-.2-2.26.02-5.62,1.81-11.28,1.69-16.92.3-3.08-.75-6-1.99-8.35-4.22-.75-.71-1.32-1.62-2.32-2.86Zm50.43,10.37c.07-.25.14-.5.21-.76-3.65-2.92-7.61-5.57-9.57-10.36.89-.75,1.73-1.42,2.52-2.13,1.9-1.71,4.1-3.19,5.61-5.2,5.22-6.95,3.56-16.72-2.99-22.74-3.34-3.06-7.33-4.97-11.56-6.42-1.44-.5-2.94-.84-4.27-1.22-.27.35-.39.44-.38.51.15.66.29,1.33.49,1.98,1.16,3.86,1.34,7.77.41,11.67-2.77,11.69-10.65,18.74-21.34,23.13-2.12.87-4.38,1.42-7,2.26,1.14.86,1.93,1.58,2.84,2.11,5.23,3.06,10.91,3.71,16.84,3.08,3.59-.38,7.17-1.32,10.8.08,2.29.88,4.67,1.58,7.07,2.1,3.42.75,6.9,1.28,10.35,1.9Z"/>
    </g>
    <g class="cls-19">
      <path class="cls-17" d="m579.52,365.73c-1.07-.24-2.14-.51-3.21-.73-4.23-.83-8.39-1.85-12.34-3.66-5.56-2.56-9.04-6.75-10.28-12.75-1.81-8.78,3.37-15.76,8.76-19.01,4.27-2.58,8.89-4.13,13.81-4.85,9.26-1.35,18.24-.26,26.87,3.29,5.46,2.25,9.92,5.76,12.94,10.99,4.33,7.52,3,14.4-2.46,20.53-3.97,4.45-9.17,6.56-14.99,7.26-1.91.23-3.83.27-5.75.43-1.58.13-1.87.45-1.67,2.01.18,1.44.39,2.89.81,4.27.42,1.37,1.11,2.66,1.83,4.31-5.46-2.81-9.69-6.66-13.68-10.86.39,2.29,1.97,3.76,3.51,5.16,3.77,3.43,8.05,6.14,12.54,8.55.55.29,1.1.7,1.61-.33-3.08-3.21-5.46-6.86-5.41-11.77,2.37-.25,4.64-.44,6.9-.73,8.52-1.07,15.08-5.14,18.88-12.97,2.91-5.99,1.88-11.82-1.57-17.31-3.59-5.72-8.89-9.24-15.12-11.48-6.36-2.27-12.97-3.34-19.69-3.06-6.64.27-13.12,1.51-18.98,4.97-4,2.36-7.2,5.44-9.12,9.77-3.67,8.25-.37,18.81,6.93,23.11,5.2,3.07,10.86,4.55,16.74,5.42.45.07.92.02,1.38,0,.23,0,.45-.06.68-.09.03-.16.06-.31.09-.47Z"/>
      <path class="cls-17" d="m571.01,368.68c-1.37-.36-2.38-.63-3.39-.88-8.38-2.08-14.71-6.78-18.4-14.68-1.67-3.57-1.96-7.38-1.04-11.26.31-1.33.53-2.67.84-4.24-.82,0-1.5-.13-2.11.02-5.24,1.25-10.05,3.33-13.8,7.37-4.41,4.75-5.22,12.25-1.81,17.47,1.27,1.94,2.92,3.55,5.03,4.63.47.24.92.53,1.46.84-2.07,4.67-6.68,6.58-10.46,9.81,3.04.4,5.68.06,8.29-.45,4.14-.81,8.29-1.57,12.16-3.37.48-.23,1.22-.16,1.76.02,4.38,1.41,8.78,1.31,13.18.24,2.4-.59,4.67-1.55,6.5-3.29.59-.56,1.03-1.26,1.81-2.23Zm-39.26,8.08c-.05-.2-.11-.39-.16-.59,2.85-2.27,5.93-4.33,7.45-8.07-.7-.59-1.34-1.1-1.96-1.66-1.48-1.33-3.19-2.49-4.37-4.05-4.06-5.41-2.77-13.02,2.33-17.7,2.6-2.38,5.71-3.87,9-5,1.12-.39,2.29-.66,3.33-.95.21.28.3.35.29.39-.12.52-.23,1.04-.38,1.54-.9,3-1.04,6.05-.32,9.09,2.16,9.1,8.29,14.59,16.62,18.01,1.65.68,3.41,1.11,5.45,1.76-.89.67-1.51,1.23-2.21,1.64-4.07,2.39-8.49,2.89-13.11,2.4-2.8-.3-5.59-1.03-8.41.06-1.78.69-3.64,1.23-5.5,1.64-2.67.59-5.37,1-8.06,1.48Z"/>
    </g>
    <g class="cls-19">
      <path class="cls-17" d="m861.13,116.89c1.38-.31,2.74-.66,4.13-.93,5.43-1.07,10.78-2.37,15.85-4.7,7.14-3.29,11.61-8.67,13.2-16.37,2.33-11.28-4.33-20.25-11.25-24.42-5.48-3.31-11.41-5.31-17.74-6.23-11.89-1.73-23.42-.33-34.51,4.23-7.02,2.89-12.74,7.39-16.61,14.11-5.56,9.65-3.86,18.5,3.16,26.37,5.1,5.72,11.77,8.43,19.25,9.33,2.45.29,4.92.34,7.38.55,2.02.17,2.4.58,2.15,2.59-.24,1.85-.5,3.72-1.04,5.49-.54,1.76-1.43,3.42-2.35,5.54,7.01-3.61,12.44-8.56,17.57-13.95-.5,2.94-2.53,4.83-4.51,6.62-4.84,4.41-10.34,7.89-16.1,10.98-.7.38-1.41.9-2.06-.43,3.96-4.12,7.02-8.81,6.95-15.12-3.04-.32-5.96-.57-8.86-.93-10.95-1.38-19.37-6.6-24.25-16.66-3.74-7.7-2.41-15.18,2.02-22.23,4.61-7.34,11.41-11.87,19.42-14.74,8.17-2.92,16.66-4.29,25.28-3.93,8.52.35,16.85,1.94,24.37,6.38,5.14,3.04,9.24,6.99,11.71,12.54,4.71,10.6.48,24.15-8.9,29.69-6.68,3.94-13.95,5.85-21.5,6.97-.58.09-1.19.02-1.78,0-.29,0-.58-.08-.87-.12-.04-.2-.08-.4-.11-.6Z"/>
      <path class="cls-17" d="m872.05,120.67c1.76-.46,3.05-.81,4.35-1.14,10.77-2.67,18.9-8.7,23.63-18.85,2.14-4.59,2.51-9.48,1.34-14.46-.4-1.7-.68-3.43-1.07-5.45,1.06,0,1.93-.16,2.72.03,6.73,1.61,12.91,4.28,17.73,9.47,5.66,6.1,6.71,15.73,2.33,22.44-1.63,2.49-3.75,4.56-6.45,5.94-.61.31-1.18.68-1.87,1.08,2.66,6,8.58,8.46,13.43,12.6-3.91.51-7.3.08-10.65-.58-5.31-1.04-10.65-2.01-15.62-4.33-.62-.29-1.57-.2-2.26.02-5.62,1.81-11.28,1.69-16.92.3-3.08-.75-6-1.99-8.35-4.22-.75-.71-1.32-1.62-2.32-2.86Zm50.43,10.37c.07-.25.14-.5.21-.76-3.65-2.92-7.61-5.57-9.57-10.36.89-.75,1.73-1.42,2.52-2.13,1.9-1.71,4.1-3.19,5.61-5.2,5.22-6.95,3.56-16.72-2.99-22.74-3.34-3.06-7.33-4.97-11.56-6.42-1.44-.5-2.94-.84-4.27-1.22-.27.35-.39.44-.38.51.15.66.29,1.33.49,1.98,1.16,3.86,1.34,7.77.41,11.67-2.77,11.69-10.65,18.74-21.34,23.13-2.12.87-4.38,1.42-7,2.26,1.14.86,1.93,1.58,2.84,2.11,5.23,3.06,10.91,3.71,16.84,3.08,3.59-.38,7.17-1.32,10.8.08,2.29.88,4.67,1.58,7.07,2.1,3.42.75,6.9,1.28,10.35,1.9Z"/>
    </g>
    <path class="cls-12" d="m980.65,202.65c2.31-.87,4.3-1.62,6.38-2.41,4.69,8.97,9.26,17.69,13.82,26.42,4.51,8.62,9.03,17.25,13.65,26.07,3.73-2.63,7.53-4.18,11.63-4.93,3.62-.66,7.25-.76,10.79.54,2.01.74,3.7,1.92,4.82,3.74,1.79,2.88,1.4,6.25-.92,9.07-6.31,7.66-16.79,8.61-23.54,4.45-1.05-.65-2.17-1.2-3.61-2,1.7,3.04,4.96,5.12,8.79,5.64,6.6.91,12.63-.42,17.57-5.12,1.4-1.33,2.77-2.93,3.52-4.68,2.11-4.96-.21-10-5.22-12.14-3.97-1.7-8.09-1.79-12.21-1.03-3.49.65-6.92,1.64-10.01,3.52-.23.14-.54.18-1.21.39-8.97-17.07-17.94-34.16-26.94-51.27-3.56-.14-6.06,1.86-8.74,3.41,0,1.87-.03,3.63,0,5.39.08,4.42-1.5,8.52-2.36,12.76-.78,3.86-1.9,7.68-2.27,11.57-.66,7.02.39,13.82,4.58,19.75,3.15,4.47,7.48,6.95,13.07,6.86.45,0,.89-.18,1.77-.36-11.74-10.02-11.32-21.55-5.04-34.31,1.72,3,3.3,5.69,4.82,8.43,3.93,7.07,7.71,14.22,11.8,21.2,1.52,2.6,3.69,4.83,5.6,7.2.26.33.77.47,1.46.86-.15-.62-.14-.93-.29-1.1-4.71-5.42-7.75-11.87-11.24-18.04-3.55-6.27-6.97-12.61-10.46-18.9-.36-.66-.85-1.25-1.3-1.91-5.95,6.84-10.39,21.75.18,35-.85-.1-1.49-.04-2.02-.25-5.63-2.2-8.58-6.68-10.3-12.2-2.19-7.04-1.63-14.11.34-21.02,1.89-6.67,3.79-13.27,3.07-20.61Z"/>
    <path class="cls-12" d="m90.13,389.65c-2.31-.87-4.3-1.62-6.38-2.41-4.69,8.97-9.26,17.69-13.82,26.42-4.51,8.62-9.03,17.25-13.65,26.07-3.73-2.63-7.53-4.18-11.63-4.93-3.62-.66-7.25-.76-10.79.54-2.01.74-3.7,1.92-4.82,3.74-1.79,2.88-1.4,6.25.92,9.07,6.31,7.66,16.79,8.61,23.54,4.45,1.05-.65,2.17-1.2,3.61-2-1.7,3.04-4.96,5.12-8.79,5.64-6.6.91-12.63-.42-17.57-5.12-1.4-1.33-2.77-2.93-3.52-4.68-2.11-4.96.21-10,5.22-12.14,3.97-1.7,8.09-1.79,12.21-1.03,3.49.65,6.92,1.64,10.01,3.52.23.14.54.18,1.21.39,8.97-17.07,17.94-34.16,26.94-51.27,3.56-.14,6.06,1.86,8.74,3.41,0,1.87.03,3.63,0,5.39-.08,4.42,1.5,8.52,2.36,12.76.78,3.86,1.9,7.68,2.27,11.57.66,7.02-.39,13.82-4.58,19.75-3.15,4.47-7.48,6.95-13.07,6.86-.45,0-.89-.18-1.77-.36,11.74-10.02,11.32-21.55,5.04-34.31-1.72,3-3.3,5.69-4.82,8.43-3.93,7.07-7.71,14.22-11.8,21.2-1.52,2.6-3.69,4.83-5.6,7.2-.26.33-.77.47-1.46.86.15-.62.14-.93.29-1.1,4.71-5.42,7.75-11.87,11.24-18.04,3.55-6.27,6.97-12.61,10.46-18.9.36-.66.85-1.25,1.3-1.91,5.95,6.84,10.39,21.75-.18,35,.85-.1,1.49-.04,2.02-.25,5.63-2.2,8.58-6.68,10.3-12.2,2.19-7.04,1.63-14.11-.34-21.02-1.89-6.67-3.79-13.27-3.07-20.61Z"/>
    <path class="cls-12" d="m751.13,349.85c-2.31-.87-4.3-1.62-6.38-2.41-4.69,8.97-9.26,17.69-13.82,26.42-4.51,8.62-9.03,17.25-13.65,26.07-3.73-2.63-7.53-4.18-11.63-4.93-3.62-.66-7.25-.76-10.79.54-2.01.74-3.7,1.92-4.82,3.74-1.79,2.88-1.4,6.25.92,9.07,6.31,7.66,16.79,8.61,23.54,4.45,1.05-.65,2.17-1.2,3.61-2-1.7,3.04-4.96,5.12-8.79,5.64-6.6.91-12.63-.42-17.57-5.12-1.4-1.33-2.77-2.93-3.52-4.68-2.11-4.96.21-10,5.22-12.14,3.97-1.7,8.09-1.79,12.21-1.03,3.49.65,6.92,1.64,10.01,3.52.23.14.54.18,1.21.39,8.97-17.07,17.94-34.16,26.94-51.27,3.56-.14,6.06,1.86,8.74,3.41,0,1.87.03,3.63,0,5.39-.08,4.42,1.5,8.52,2.36,12.76.78,3.86,1.9,7.68,2.27,11.57.66,7.02-.39,13.82-4.58,19.75-3.15,4.47-7.48,6.95-13.07,6.86-.45,0-.89-.18-1.77-.36,11.74-10.02,11.32-21.55,5.04-34.31-1.72,3-3.3,5.69-4.82,8.43-3.93,7.07-7.71,14.22-11.8,21.2-1.52,2.6-3.69,4.83-5.6,7.2-.26.33-.77.47-1.46.86.15-.62.14-.93.29-1.1,4.71-5.42,7.75-11.87,11.24-18.04,3.55-6.27,6.97-12.61,10.46-18.9.36-.66.85-1.25,1.3-1.91,5.95,6.84,10.39,21.75-.18,35,.85-.1,1.49-.04,2.02-.25,5.63-2.2,8.58-6.68,10.3-12.2,2.19-7.04,1.63-14.11-.34-21.02-1.89-6.67-3.79-13.27-3.07-20.61Z"/>
    <path class="cls-12" d="m406.15,606.14c-2.99-.33-5.93-.65-8.87-.98-.69-.08-1.38-.1-2.06-.21-2.5-.42-4.02.59-5.15,2.86-2.33,4.68-4.89,9.25-7.37,13.85-.51.95-1.03,1.94-1.73,2.74-1.26,1.44-2.69,1.18-3.4-.63-.75-1.93-1.33-3.92-2.01-5.87-1.21-3.44-2.51-6.85-3.62-10.32-.54-1.71-1.39-2.37-3.25-2.75-4.62-.94-9.14-2.35-13.69-3.59-1.42-.39-2.89-.7-4.23-1.3-1.94-.87-2.16-2-.46-3.3,2.25-1.73,4.78-3.12,7.15-4.7,1.97-1.32,3.94-2.63,5.8-4.09,2.21-1.73,2.96-4.02,2.37-6.82-.71-3.37-1.31-6.77-1.87-10.17-.19-1.16-.21-2.37-.12-3.54.18-2.2,1.67-3.08,3.75-2.16,1.07.47,2.04,1.2,3.01,1.87,3.07,2.15,6.12,4.33,9.18,6.49,2.26,1.59,4.55,1.59,6.94.22,4.11-2.35,8.26-4.63,12.39-6.93.09-.05.15-.15.24-.17,1.02-.19,2.22-.78,3.02-.44,1.18.5,1.25,1.87.9,3.12-.54,1.99-1,4.01-1.59,6-.56,1.89-1.27,3.73-1.86,5.62-1.43,4.61-.69,7.01,3.06,10.16,3.25,2.73,6.52,5.44,9.7,8.24,1.05.93,2.66,1.8,2.09,3.59-.53,1.66-2.01,2.39-3.64,2.67-1.55.26-3.12.37-4.67.55Zm-40.76-39.72c0,1.78-.17,3.27.03,4.69.48,3.32,1.23,6.6,1.7,9.91.48,3.35-.34,6.3-3.3,8.3-3.19,2.15-6.45,4.2-9.62,6.37-1.08.74-2.54,1.1-3.15,2.7.73.28,1.34.58,1.98.75,5.14,1.39,10.26,2.81,15.43,4.09,2.27.56,3.93,1.64,4.75,3.89,1.3,3.61,2.64,7.21,3.95,10.82.66,1.81,1.29,3.63,2.13,6,.95-1.36,1.65-2.16,2.14-3.08,2.48-4.6,4.98-9.19,7.33-13.86,1.41-2.79,3.35-4.3,6.58-3.71.58.11,1.17.19,1.76.24,3.93.3,7.85.62,11.78.85,1.64.1,3.11-.39,4.17-2.22-.6-.58-1.19-1.19-1.83-1.75-3.71-3.25-7.46-6.46-11.13-9.75-2.6-2.33-3.39-5.16-2.21-8.56.97-2.79,1.73-5.65,2.52-8.5.53-1.93,1.25-3.84.98-6.23-.93.46-1.63.77-2.3,1.13-4.06,2.25-8.09,4.54-12.16,6.75-2.62,1.42-5.29,1.49-7.82-.26-3.08-2.12-6.11-4.32-9.19-6.44-1.26-.87-2.41-2.03-4.51-2.15Z"/>
    <path class="cls-12" d="m1324.15,266.14c-2.99-.33-5.93-.65-8.87-.98-.69-.08-1.38-.1-2.06-.21-2.5-.42-4.02.59-5.15,2.86-2.33,4.68-4.89,9.25-7.37,13.85-.51.95-1.03,1.94-1.73,2.74-1.26,1.44-2.69,1.18-3.4-.63-.75-1.93-1.33-3.92-2.01-5.87-1.21-3.44-2.51-6.85-3.62-10.32-.54-1.71-1.39-2.37-3.25-2.75-4.62-.94-9.14-2.35-13.69-3.59-1.42-.39-2.89-.7-4.23-1.3-1.94-.87-2.16-2-.46-3.3,2.25-1.73,4.78-3.12,7.15-4.7,1.97-1.32,3.94-2.63,5.8-4.09,2.21-1.73,2.96-4.02,2.37-6.82-.71-3.37-1.31-6.77-1.87-10.17-.19-1.16-.21-2.37-.12-3.54.18-2.2,1.67-3.08,3.75-2.16,1.07.47,2.04,1.2,3.01,1.87,3.07,2.15,6.12,4.33,9.18,6.49,2.26,1.59,4.55,1.59,6.94.22,4.11-2.35,8.26-4.63,12.39-6.93.09-.05.15-.15.24-.17,1.02-.19,2.22-.78,3.02-.44,1.18.5,1.25,1.87.9,3.12-.54,1.99-1,4.01-1.59,6-.56,1.89-1.27,3.73-1.86,5.62-1.43,4.61-.69,7.01,3.06,10.16,3.25,2.73,6.52,5.44,9.7,8.24,1.05.93,2.66,1.8,2.09,3.59-.53,1.66-2.01,2.39-3.64,2.67-1.55.26-3.12.37-4.67.55Zm-40.76-39.72c0,1.78-.17,3.27.03,4.69.48,3.32,1.23,6.6,1.7,9.91.48,3.35-.34,6.3-3.3,8.3-3.19,2.15-6.45,4.2-9.62,6.37-1.08.74-2.54,1.1-3.15,2.7.73.28,1.34.58,1.98.75,5.14,1.39,10.26,2.81,15.43,4.09,2.27.56,3.93,1.64,4.75,3.89,1.3,3.61,2.64,7.21,3.95,10.82.66,1.81,1.29,3.63,2.13,6,.95-1.36,1.65-2.16,2.14-3.08,2.48-4.6,4.98-9.19,7.33-13.86,1.41-2.79,3.35-4.3,6.58-3.71.58.11,1.17.19,1.76.24,3.93.3,7.85.62,11.78.85,1.64.1,3.11-.39,4.17-2.22-.6-.58-1.19-1.19-1.83-1.75-3.71-3.25-7.46-6.46-11.13-9.75-2.6-2.33-3.39-5.16-2.21-8.56.97-2.79,1.73-5.65,2.52-8.5.53-1.93,1.25-3.84.98-6.23-.93.46-1.63.77-2.3,1.13-4.06,2.25-8.09,4.54-12.16,6.75-2.62,1.42-5.29,1.49-7.82-.26-3.08-2.12-6.11-4.32-9.19-6.44-1.26-.87-2.41-2.03-4.51-2.15Z"/>
    <g class="cls-19">
      <path class="cls-3" d="m115.52,172.22c-.75-.38-1.07-.67-1.23-1.27-.16-.62-.74-1.11-1.11-1.68-1.96-3.02-3.09-6.29-2.96-9.93.07-1.91.41-3.26,1.26-4.3-.13.84-.22,1.69-.39,2.52-.66,3.39.04,6.57,1.61,9.57.68,1.3,1.55,2.51,2.4,3.86,4.19-1.87,6.44-5.06,7.51-9.29.33.88.14,1.67-.15,2.44-1.14,3.06-3.19,5.35-6,6.97-.21.12-.43.25-.64.37.19.69.53.9,1.11.49,1.14-.81,2.28-1.61,3.39-2.46,1.44-1.09,2.94-1.94,4.79-2.16,2.64-.32,4.83.55,6.74,2.27,2.11,1.9,3.33,4.35,4.21,6.99,1.46,4.39,1.42,8.82.3,13.25-.21.81-.6,1.58-.95,2.35-.73,1.58-2.23,2.14-3.72,2.62-.6.19-1.33-.03-1.96.1-1.38.3-2.51.93-2.91,2.47-.19.76-.83,1.24-1.54,1.6-2.4,1.22-4.89,1.3-7.4.5-5.25-1.67-9.55-4.67-12.67-9.26-2.75-4.04-2.8-9.37-.04-13.39,1.61-2.35,3.82-3.8,6.76-3.94.84-.04,1.69-.15,2.52-.27.27-.04.52-.2,1.08-.43Zm1.16,1.07c-.66-.05-1.18-.15-1.7-.12-.97.07-1.93.27-2.89.33-2.42.17-4.43,1.17-5.91,3.06-3.01,3.84-3.27,9.04-.47,13.27,2.56,3.87,6.11,6.53,10.33,8.32,2.41,1.03,4.91,1.63,7.54.8,1.27-.4,2.47-.86,2.85-2.38.2-.81.79-1.41,1.58-1.71,1.03-.38,2.06-.89,3.12-1,1.19-.11,2.01-.64,2.62-1.53.55-.8,1.08-1.64,1.42-2.53,1.29-3.32,1.49-6.76.89-10.24-.54-3.18-1.65-6.12-3.8-8.6-3.18-3.68-7.83-3.9-11.12-1.27-1.29,1.03-2.67,1.93-3.99,2.93-.24.18-.38.5-.5.67Z"/>
      <path class="cls-11" d="m120.83,154.93c2.98,5.33.77,12.13-4.82,14.33.41-.36.82-.72,1.23-1.08,1.49-1.27,2.81-2.68,3.62-4.51,1.07-2.43.91-5.22-.16-7.64-.12.03-.26.02-.35.09-2.59,2.08-5.01,4.3-6.04,7.62-.41,1.33-.27,2.58.35,3.8.14.27.22.57.41,1.1-.91-.37-1.13-.95-1.33-1.51-.58-1.65-.39-3.27.39-4.79.56-1.08,1.23-2.12,1.97-3.09,1.29-1.69,2.92-3.04,4.73-4.33Z"/>
    </g>
    <g class="cls-19">
      <path class="cls-3" d="m1217.68,347.08c-.75-.38-1.07-.67-1.23-1.27-.16-.62-.74-1.11-1.11-1.68-1.96-3.02-3.09-6.29-2.96-9.93.07-1.91.41-3.26,1.26-4.3-.13.84-.22,1.69-.39,2.52-.66,3.39.04,6.57,1.61,9.57.68,1.3,1.55,2.51,2.4,3.86,4.19-1.87,6.44-5.06,7.51-9.29.33.88.14,1.67-.15,2.44-1.14,3.06-3.19,5.35-6,6.97-.21.12-.43.25-.64.37.19.69.53.9,1.11.49,1.14-.81,2.28-1.61,3.39-2.46,1.44-1.09,2.94-1.94,4.79-2.16,2.64-.32,4.83.55,6.74,2.27,2.11,1.9,3.33,4.35,4.21,6.99,1.46,4.39,1.42,8.82.3,13.25-.21.81-.6,1.58-.95,2.35-.73,1.58-2.23,2.14-3.72,2.62-.6.19-1.33-.03-1.96.1-1.38.3-2.51.93-2.91,2.47-.19.76-.83,1.24-1.54,1.6-2.4,1.22-4.89,1.3-7.4.5-5.25-1.67-9.55-4.67-12.67-9.26-2.75-4.04-2.8-9.37-.04-13.39,1.61-2.35,3.82-3.8,6.76-3.94.84-.04,1.69-.15,2.52-.27.27-.04.52-.2,1.08-.43Zm1.16,1.07c-.66-.05-1.18-.15-1.7-.12-.97.07-1.93.27-2.89.33-2.42.17-4.43,1.17-5.91,3.06-3.01,3.84-3.27,9.04-.47,13.27,2.56,3.87,6.11,6.53,10.33,8.32,2.41,1.03,4.91,1.63,7.54.8,1.27-.4,2.47-.86,2.85-2.38.2-.81.79-1.41,1.58-1.71,1.03-.38,2.06-.89,3.12-1,1.19-.11,2.01-.64,2.62-1.53.55-.8,1.08-1.64,1.42-2.53,1.29-3.32,1.49-6.76.89-10.24-.54-3.18-1.65-6.12-3.8-8.6-3.18-3.68-7.83-3.9-11.12-1.27-1.29,1.03-2.67,1.93-3.99,2.93-.24.18-.38.5-.5.67Z"/>
      <path class="cls-11" d="m1222.99,329.79c2.98,5.33.77,12.13-4.82,14.33.41-.36.82-.72,1.23-1.08,1.49-1.27,2.81-2.68,3.62-4.51,1.07-2.43.91-5.22-.16-7.64-.12.03-.26.02-.35.09-2.59,2.08-5.01,4.3-6.04,7.62-.41,1.33-.27,2.58.35,3.8.14.27.22.57.41,1.1-.91-.37-1.13-.95-1.33-1.51-.58-1.65-.39-3.27.39-4.79.56-1.08,1.23-2.12,1.97-3.09,1.29-1.69,2.92-3.04,4.73-4.33Z"/>
    </g>
    <g class="cls-19">
      <path class="cls-9" d="m90.98,141.92v-9.95c-2.16-.28-2.78-.79-2.83-2.28-.04-1.25.29-1.52,2.36-1.95.71-2.91,1.39-5.82,2.14-8.72,1.19-4.54,2.48-9.06,3.64-13.61,1.9-7.51,4.12-14.95,5.28-22.63.28-1.84.73-3.65,1.15-5.72-6.94.37-13.66,1.2-20.39,1.94-6.75.75-13.46,1.7-20.34,3.27.19-.61.29-.93.41-1.34-5.15-4.03-10.22-8.21-15.52-12.07-3.89-2.83-8.09-5.23-12.14-7.85-4.28-2.78-8.55-5.55-12.77-8.42-1.16-.79-2.11-1.88-3.12-2.87-.22-.21-.31-.55-.49-.9,4.75.54,9.36.23,13.97-.12,2.71-.21,5.42-.45,8.13-.72,4.73-.48,9.46-.99,14.2-1.49,3.1-.33,6.2-.66,9.3-.98,1.74-.18,3.49-.38,5.23-.51.41-.03.91.09,1.24.33,4.55,3.33,9.58,5.84,14.45,8.62,4.28,2.44,8.61,4.8,12.88,7.27,6.57,3.8,13.11,7.66,19.65,11.51.77.45,1.49,1,2.45,1.65-5.37,1.74-10.71,2.02-16.24,2.66-1.63,8.54-3.39,17.11-5.74,25.54-2.34,8.39-4.45,16.84-6.72,25.5.34.25.78.45,1.05.79.42.51.59,1.15.08,1.71-.53.58-.42,1.21-.42,1.9-.03,2.55-.12,5.1-.23,7.65-.03.6-.23,1.19-.35,1.78-.11,0-.21,0-.32.01ZM20.92,50.13c-.07.11-.13.22-.2.33.91.74,1.76,1.56,2.74,2.19,5.07,3.32,10.18,6.59,15.27,9.88,3.28,2.13,6.67,4.11,9.79,6.44,4.85,3.63,9.53,7.49,14.26,11.28.59.47,1.11.71,1.85.54.66-.15,1.34-.25,2.01-.36,3.52-.58,7.02-1.25,10.56-1.71,3.88-.51,7.78-.84,11.67-1.23,7.5-.75,15-1.46,22.49-2.23,2.11-.22,4.21-.63,6.31-.95.02-.12.05-.24.07-.36-.5-.32-1-.67-1.51-.96-10.11-5.84-20.22-11.68-30.34-17.51-5.26-3.02-10.69-5.73-15.67-9.23-.34-.24-.84-.39-1.26-.39-1.02.01-2.04.12-3.05.23-3.49.39-6.97.83-10.45,1.21-4.39.48-8.79.96-13.19,1.36-4.57.42-9.15.77-13.73,1.1-2.53.18-5.07.25-7.61.36Zm69.57,78.92c-.6-.1-1.37-.59-1.55.5-.12.74.58,1.46,1.28,1.44.72-.02,1.5-.7,1.45-1.35-.06-.77-.53-.89-1.19-.59Z"/>
      <path class="cls-9" d="m37.52,67.74c-2.65,7.49-4.15,15.05-7.09,22.15.47-4.02,1.99-7.76,3.01-11.63,1.02-3.87,2.23-7.69,3.38-11.6,1.5.47,2.7,1.17,3.82,2.03,3.99,3.08,7.95,6.22,12,9.22,2.96,2.18,6.07,4.16,9.1,6.26.71.49,1.43.6,2.25.51,5.07-.56,10.14-1.1,15.21-1.64,3.15-.33,6.31-.63,9.46-.96,1.91-.2,3.82-.48,5.74-.64.64-.06,1.3.13,1.92.2.12,3.19-2.98,19.79-4.13,22.07-.31-.63-.17-1.13-.08-1.64,1.04-5.67,2.09-11.35,3.11-17.03.15-.83.17-1.68.26-2.61-1.12,0-2.12-.09-3.1.01-5.53.56-11.05,1.16-16.57,1.75-3.1.33-6.2.63-9.29.95-.11.01-.24-.01-.34.02-2.27.88-4.23.03-6.06-1.18-3.21-2.12-6.43-4.26-9.53-6.53-3.84-2.82-7.56-5.79-11.34-8.68-.48-.37-1.04-.63-1.72-1.03Z"/>
      <path class="cls-9" d="m91.41,105.91c-1.02.55-2.02,1.15-3.08,1.64-3.75,1.74-7.7,2.62-11.83,2.79-7.92.32-15.56-1.07-23.01-3.73-5.14-1.84-10.16-3.9-14.68-7.03-3.42-2.37-6.51-5.12-9.17-8.33-.19-.23-.3-.54-.44-.82.69-.43.89.1,1.17.41,2.43,2.71,5.03,5.22,7.99,7.36,4.22,3.05,8.86,5.28,13.75,6.98,3.58,1.24,7.22,2.37,10.91,3.19,6.2,1.37,12.5,1.59,18.76.43,2.2-.4,4.28-1.4,6.41-2.16,1-.35,1.97-.78,2.95-1.17.09.14.18.29.27.43Z"/>
      <path class="cls-9" d="m88.49,131.35c-.61.9-1.17,1.47-1.42,2.16-.51,1.36-.87,2.78-1.27,4.18-.24.85-.45,1.71-.96,2.57-.05-.27-.16-.55-.15-.82.11-2.22.73-4.33,1.59-6.36.32-.77.72-1.67,2.22-1.72Z"/>
      <path class="cls-9" d="m90.22,132.63c-.56,2.66-1.11,5.32-1.67,7.98-.13,0-.26,0-.39-.01,0-.55-.07-1.12.01-1.66.23-1.62.47-3.24.81-4.84.12-.59.52-1.13.79-1.69.15.07.3.15.46.22Z"/>
    </g>
    <g class="cls-19">
      <path class="cls-9" d="m1150,342.92v-9.95c-2.16-.28-2.78-.79-2.83-2.28-.04-1.25.29-1.52,2.36-1.95.71-2.91,1.39-5.82,2.14-8.72,1.19-4.54,2.48-9.06,3.64-13.61,1.9-7.51,4.12-14.95,5.28-22.63.28-1.84.73-3.65,1.15-5.72-6.94.37-13.66,1.2-20.39,1.94-6.75.75-13.46,1.7-20.34,3.27.19-.61.29-.93.41-1.34-5.15-4.03-10.22-8.21-15.52-12.07-3.89-2.83-8.09-5.23-12.14-7.85-4.28-2.78-8.55-5.55-12.77-8.42-1.16-.79-2.11-1.88-3.12-2.87-.22-.21-.31-.55-.49-.9,4.75.54,9.36.23,13.97-.12,2.71-.21,5.42-.45,8.13-.72,4.73-.48,9.46-.99,14.2-1.49,3.1-.33,6.2-.66,9.3-.98,1.74-.18,3.49-.38,5.23-.51.41-.03.91.09,1.24.33,4.55,3.33,9.58,5.84,14.45,8.62,4.28,2.44,8.61,4.8,12.88,7.27,6.57,3.8,13.11,7.66,19.65,11.51.77.45,1.49,1,2.45,1.65-5.37,1.74-10.71,2.02-16.24,2.66-1.63,8.54-3.39,17.11-5.74,25.54-2.34,8.39-4.45,16.84-6.72,25.5.34.25.78.45,1.05.79.42.51.59,1.15.08,1.71-.53.58-.42,1.21-.42,1.9-.03,2.55-.12,5.1-.23,7.65-.03.6-.23,1.19-.35,1.78-.11,0-.21,0-.32.01Zm-70.06-91.79c-.07.11-.13.22-.2.33.91.74,1.76,1.56,2.74,2.19,5.07,3.32,10.18,6.59,15.27,9.88,3.28,2.13,6.67,4.11,9.79,6.44,4.85,3.63,9.53,7.49,14.26,11.28.59.47,1.11.71,1.85.54.66-.15,1.34-.25,2.01-.36,3.52-.58,7.02-1.25,10.56-1.71,3.88-.51,7.78-.84,11.67-1.23,7.5-.75,15-1.46,22.49-2.23,2.11-.22,4.21-.63,6.31-.95.02-.12.05-.24.07-.36-.5-.32-1-.67-1.51-.96-10.11-5.84-20.22-11.68-30.34-17.51-5.26-3.02-10.69-5.73-15.67-9.23-.34-.24-.84-.39-1.26-.39-1.02.01-2.04.12-3.05.23-3.49.39-6.97.83-10.45,1.21-4.39.48-8.79.96-13.19,1.36-4.57.42-9.15.77-13.73,1.1-2.53.18-5.07.25-7.61.36Zm69.57,78.92c-.6-.1-1.37-.59-1.55.5-.12.74.58,1.46,1.28,1.44.72-.02,1.5-.7,1.45-1.35-.06-.77-.53-.89-1.19-.59Z"/>
      <path class="cls-9" d="m1096.54,268.74c-2.65,7.49-4.15,15.05-7.09,22.15.47-4.02,1.99-7.76,3.01-11.63,1.02-3.87,2.23-7.69,3.38-11.6,1.5.47,2.7,1.17,3.82,2.03,3.99,3.08,7.95,6.22,12,9.22,2.96,2.18,6.07,4.16,9.1,6.26.71.49,1.43.6,2.25.51,5.07-.56,10.14-1.1,15.21-1.64,3.15-.33,6.31-.63,9.46-.96,1.91-.2,3.82-.48,5.74-.64.64-.06,1.3.13,1.92.2.12,3.19-2.98,19.79-4.13,22.07-.31-.63-.17-1.13-.08-1.64,1.04-5.67,2.09-11.35,3.11-17.03.15-.83.17-1.68.26-2.61-1.12,0-2.12-.09-3.1.01-5.53.56-11.05,1.16-16.57,1.75-3.1.33-6.2.63-9.29.95-.11.01-.24-.01-.34.02-2.27.88-4.23.03-6.06-1.18-3.21-2.12-6.43-4.26-9.53-6.53-3.84-2.82-7.56-5.79-11.34-8.68-.48-.37-1.04-.63-1.72-1.03Z"/>
      <path class="cls-9" d="m1150.44,306.91c-1.02.55-2.02,1.15-3.08,1.64-3.75,1.74-7.7,2.62-11.83,2.79-7.92.32-15.56-1.07-23.01-3.73-5.14-1.84-10.16-3.9-14.68-7.03-3.42-2.37-6.51-5.12-9.17-8.33-.19-.23-.3-.54-.44-.82.69-.43.89.1,1.17.41,2.43,2.71,5.03,5.22,7.99,7.36,4.22,3.05,8.86,5.28,13.75,6.98,3.58,1.24,7.22,2.37,10.91,3.19,6.2,1.37,12.5,1.59,18.76.43,2.2-.4,4.28-1.4,6.41-2.16,1-.35,1.97-.78,2.95-1.17.09.14.18.29.27.43Z"/>
      <path class="cls-9" d="m1147.51,332.35c-.61.9-1.17,1.47-1.42,2.16-.51,1.36-.87,2.78-1.27,4.18-.24.85-.45,1.71-.96,2.57-.05-.27-.16-.55-.15-.82.11-2.22.73-4.33,1.59-6.36.32-.77.72-1.67,2.22-1.72Z"/>
      <path class="cls-9" d="m1149.24,333.63c-.56,2.66-1.11,5.32-1.67,7.98-.13,0-.26,0-.39-.01,0-.55-.07-1.12.01-1.66.23-1.62.47-3.24.81-4.84.12-.59.52-1.13.79-1.69.15.07.3.15.46.22Z"/>
    </g>
    <g class="cls-19">
      <path class="cls-8" d="m311.18,714.88c.73.54,1.06.65,1.16.87,2.53,5.45,3.72,11.07,1.59,16.91-1.39,3.81-4.68,5.67-8.37,6.34-3.67.66-7.56.96-10.8-1.66-3.23-2.6-5.92-5.63-7.44-9.61-2.39-6.25-4.88-12.47-7.42-18.66-5.38-13.12-10.81-26.22-16.23-39.32-1.06-2.55-2.14-5.09-3.23-7.7-1.34-.61-3.2-.89-3.18-2.91.03-2.17.29-4.41,2.46-5.65,4.62-2.64,9.33-5.04,14.66-6.01,1.43-.26,2.75-1.07,4.17-1.45,1.2-.32,2.48-.37,3.53-.52,1.85,2.32,3.05,4.41.96,6.71,9.6,23.19,19.14,46.25,28.66,69.31.25.59.22,1.3.07,2.05-6.44-12.71-11.21-26.13-17.19-39.27-5.79,4.46-12.34,6.91-19.7,8.36,1.18,3,2.25,5.81,3.39,8.6,3.31,8.12,6.48,16.3,10.06,24.3,1.47,3.28,3.75,6.22,5.87,9.17,1.38,1.92,3.46,2.9,5.89,2.91,1.67,0,3.37.08,5.01-.16,4.96-.73,8.2-4.21,8.31-9.27.06-2.61-.51-5.25-.93-7.86-.27-1.68-.78-3.32-1.31-5.5Zm-28.83-60.09c-6.88,2.51-13.38,4.89-20.13,7.36,3.78,9.2,7.46,18.18,11.09,27.01,1.18-1.05,2.2-2.1,3.36-2.96,3.71-2.73,7.86-4.45,12.42-5.17,1.21-.19,2.41-.44,3.93-.71-3.61-8.64-7.1-16.97-10.67-25.52Zm11.01,27.84c-5.67-1.37-17.07,3.81-18.22,8.09,5.58-.2,15.53-4.54,18.22-8.09Zm-33.54-26.96c6.37,1.09,17.33-3.27,19.82-7.94-7.36,1.45-13.98,3.66-19.82,7.94Zm-1.14,2.39c1.49,2.29,3.07,2.53,5.05,1.83,5.82-2.08,11.66-4.1,17.56-6.16-.45-1.8,2.24-2.99.97-5.27-6.45,6.61-14.54,8.81-23.58,9.61Z"/>
      <path class="cls-1" d="m278.41,724.75c-.27-.72-.54-1.44-.86-2.31.37.05.72-.01.86.13,3.16,3.42,4.84,7.41,4.38,12.12-.09.96-.35,1.97-.8,2.8-1.97,3.58-8.86,7.12-14.26,3.62-2.7-1.75-4.79-3.95-6.66-6.57-5.67-7.94-11.56-15.73-17.36-23.58-3.74-5.08-7.46-10.17-11.2-15.26-.92-1.25-1.74-2.44-3.43-3.02-2.05-.7-2.56-3.85-1.08-5.8.76-1.01,1.71-1.95,2.74-2.68,3.29-2.31,6.6-4.6,10.02-6.71,2.83-1.75,4.87-.35,4.97,3.03.03.96.62,2,1.22,2.81,6.14,8.33,12.34,16.63,18.52,24.93,4.17,5.59,8.34,11.18,12.51,16.77.15-.1.3-.2.45-.3Zm-40.8-38.32c2.13-1.11,4.25-2.22,6.39-3.33.07-1.19.12-2.2.19-3.43-1.9,1.89-3.61,3.57-5.29,5.27-.46.47-.82,1.03-1.23,1.55-2.85,1.25-5.7,2.5-9.2,4.03,1.43.24,2.4.72,2.84.42,2.13-1.46,4.84-2.13,6.31-4.5Zm-5.56,6.18c7.76,10.35,15.21,20.74,23.03,31.09,2.78-5.31,7.12-8.07,12.3-10.23-7.48-10.04-14.85-19.95-22.2-29.81-4.43,3.02-8.57,5.84-13.14,8.95Zm25.16,33.97c1.49,2.09,3.03,4.26,4.59,6.42.46.64.91,1.31,1.48,1.85,1.69,1.64,3.28,3.47,5.2,4.79,3.73,2.55,9.47,1.13,12.03-2.63,1.23-1.8,1.11-3.76.87-5.71-.19-1.54-.75-2.94-2.69-3.17-.36-.04-.67-.68-.97-1.07-1.28-1.63-2.54-3.27-3.81-4.91-1.35-1.75-2.71-3.5-3.81-4.93-4.4,3.2-8.52,6.18-12.89,9.35Zm-.28-2.64c4.29-1.95,8.38-4.14,10.9-8.36-4.89,1.11-8.49,3.95-10.9,8.36Zm-15.5-44.33c-4.48,1.9-8.73,4.29-11.84,8.32,4.92-1.28,8.89-3.97,11.84-8.32Z"/>
      <path class="cls-3" d="m269.97,619.19c.08,2.99-2.73,6.12-5.63,6.28-2.8.16-5.33-2.1-5.35-4.78-.03-2.83,2.8-6.33,5.2-6.42,2.63-.11,5.73,2.54,5.79,4.93Zm-6,4.65c2.12.08,4.29-2.05,4.44-4.36.11-1.62-1.9-3.89-3.42-3.87-2.04.03-4.35,2.59-4.4,4.88-.04,1.88,1.36,3.27,3.38,3.34Z"/>
      <path class="cls-3" d="m238.26,604.74c3.44-.38,5.49,1.06,5.92,3.81.5,3.17-1.49,5.97-4.6,6.48-2.94.48-5.42-1.35-5.93-4.38-.44-2.6,1.05-4.83,4.11-5.42-.65.85-.99,1.48-1.49,1.93-1.49,1.32-1.44,4.33.41,5.78,1.49,1.17,3.99.69,5.26-.98,1.34-1.77.91-4.42-.97-5.7-.72-.49-1.51-.86-2.71-1.53Z"/>
      <path class="cls-6" d="m214.78,659.89c3.76-.37,5.56.97,5.66,3.84.1,2.97-2.32,5.39-5.41,5.41-3.16.02-5.36-2.13-5.22-5.08.12-2.41,1.51-3.72,3.93-3.53-.82,1.49-3.02,2.3-2.26,4.39.28.78.79,1.63,1.44,2.09,1.73,1.19,4.41.47,5.42-1.29,1.28-2.23.4-3.81-3.56-5.83Z"/>
      <path class="cls-3" d="m261.32,632.87c1.99-.02,3.33.95,3.37,2.42.05,1.82-2.13,4.2-3.85,4.21-1.66.01-3.2-1.47-3.27-3.15-.09-2.05,1.44-3.47,3.76-3.49Zm.87.96c-1.51-.03-3.14,1.32-3.21,2.25-.06.91.9,1.97,1.78,1.97.84,0,2.37-1.63,2.28-2.7-.05-.6-.64-1.16-.85-1.52Z"/>
      <path class="cls-3" d="m249.59,618.54c-1.41,2.13-1.48,2.97-.48,3.69,1.01.72,2.27.31,2.92-.95.64-1.25.34-1.81-1.53-2.74,1.06-1.23,1.96-.51,2.71.24.88.89.76,2.66-.12,3.81-1.07,1.41-3.06,2.02-4.43,1.37-1.17-.56-2.27-2.78-1.97-4.01.26-1.08.87-1.41,2.91-1.42Z"/>
      <path class="cls-6" d="m229.89,660.52c2-.02,3,.75,3.07,2.37.07,1.68-1.36,3.22-3.09,3.33-1.52.1-3.11-1.38-3.14-2.91-.03-1.56,1.35-2.78,3.16-2.79Zm1.32,1.23c-.74.19-1.51.28-2.18.6-.34.16-.69.77-.64,1.13.05.37.53.83.92.96,1.51.5,2.3-.58,1.9-2.68Z"/>
      <path class="cls-6" d="m227.96,673.51c.99.03,1.89,1.07,1.91,2.22.03,1.41-1.06,2.6-2.3,2.5-1.09-.09-1.79-1.03-1.73-2.32.06-1.36,1-2.42,2.11-2.4Z"/>
      <path class="cls-3" d="m271.74,636.21c-.54-.37-1.16-.8-1.68-1.15-.81.29-1.55.56-2.3.82.43-1.53,1.37-2.64.28-4.2,1.72.53,3.2,1.45,4.86.04-.43,1.68-.78,3.02-1.16,4.49Z"/>
      <path class="cls-6" d="m222.49,650.63c0,1.58-1.07,2.7-2.51,2.64-1.21-.05-2.25-1.13-2.21-2.29.04-1.39,1.07-2.27,2.57-2.21,1.41.06,2.16.7,2.16,1.86Zm-1.33-.21c-1.26,0-2.1.3-1.09,1.66.43-.66.76-1.16,1.09-1.66Z"/>
      <path class="cls-3" d="m266.5,645.58c-.84.93-1.29,1.79-1.98,2.07-.54.22-1.7-.09-1.99-.54-.4-.62-.48-1.69-.24-2.41.28-.83,1.16-.92,1.97-.4.56.36,1.15.66,2.24,1.28Z"/>
      <path class="cls-3" d="m249.3,632.13c.21-1.16.38-2.09.58-3.16,1.05.49,1.97.92,3.01,1.4-.31.83-.63,1.68-1.02,2.73-.82-.31-1.58-.59-2.57-.96Z"/>
      <path class="cls-3" d="m256.96,604.65c-1.69,1.36-3.45,2.58-6.31,2.23,1.94-2.11,4.11-2.2,6.31-2.23Z"/>
    </g>
    <g class="cls-19">
      <path class="cls-8" d="m1078.24,130.41c.5.37.72.44.79.59,1.72,3.71,2.53,7.54,1.09,11.51-.94,2.59-3.19,3.86-5.7,4.31-2.5.45-5.15.65-7.35-1.13-2.2-1.77-4.03-3.83-5.07-6.55-1.63-4.26-3.32-8.49-5.05-12.7-3.66-8.93-7.36-17.85-11.05-26.77-.72-1.74-1.45-3.47-2.2-5.25-.91-.42-2.18-.6-2.16-1.98.02-1.48.19-3,1.68-3.84,3.15-1.79,6.36-3.43,9.98-4.09.97-.18,1.87-.73,2.84-.98.82-.22,1.69-.25,2.4-.35,1.26,1.58,2.08,3,.65,4.57,6.53,15.79,13.03,31.49,19.51,47.19.17.4.15.89.04,1.4-4.38-8.65-7.63-17.79-11.7-26.74-3.94,3.04-8.4,4.71-13.41,5.69.8,2.04,1.53,3.96,2.31,5.86,2.26,5.53,4.41,11.1,6.85,16.55,1,2.23,2.55,4.24,4,6.25.94,1.31,2.36,1.98,4.01,1.98,1.14,0,2.29.06,3.41-.11,3.38-.5,5.58-2.86,5.66-6.31.04-1.78-.35-3.58-.63-5.35-.18-1.14-.53-2.26-.89-3.74Zm-19.63-40.91c-4.68,1.71-9.11,3.33-13.71,5.01,2.57,6.27,5.08,12.38,7.55,18.39.81-.72,1.5-1.43,2.29-2.02,2.53-1.86,5.35-3.03,8.45-3.52.82-.13,1.64-.3,2.68-.49-2.46-5.88-4.83-11.56-7.27-17.38Zm7.49,18.96c-3.86-.93-11.62,2.59-12.4,5.51,3.8-.13,10.57-3.09,12.4-5.51Zm-22.83-18.35c4.34.74,11.8-2.22,13.5-5.41-5.01.99-9.52,2.49-13.5,5.41Zm-.77,1.63c1.02,1.56,2.09,1.73,3.44,1.24,3.96-1.42,7.94-2.79,11.95-4.2-.3-1.23,1.53-2.04.66-3.59-4.39,4.5-9.9,6-16.05,6.54Z"/>
      <path class="cls-1" d="m1055.92,137.13c-.18-.49-.37-.98-.59-1.58.25.03.49,0,.58.09,2.15,2.33,3.29,5.04,2.98,8.25-.06.65-.24,1.34-.55,1.91-1.34,2.44-6.03,4.85-9.71,2.47-1.84-1.19-3.26-2.69-4.53-4.47-3.86-5.41-7.87-10.71-11.82-16.06-2.55-3.46-5.08-6.93-7.63-10.39-.63-.85-1.19-1.66-2.34-2.06-1.4-.48-1.74-2.62-.74-3.95.52-.69,1.16-1.33,1.87-1.83,2.24-1.57,4.49-3.13,6.82-4.57,1.93-1.19,3.31-.24,3.39,2.06.02.65.43,1.36.83,1.92,4.18,5.67,8.4,11.32,12.61,16.97,2.84,3.81,5.68,7.61,8.51,11.42.1-.07.21-.13.31-.2Zm-27.78-26.09c1.45-.76,2.9-1.51,4.35-2.27.04-.81.08-1.5.13-2.33-1.3,1.29-2.46,2.43-3.6,3.59-.31.32-.56.7-.84,1.05-1.94.85-3.88,1.7-6.27,2.74.97.16,1.64.49,1.94.28,1.45-.99,3.3-1.45,4.29-3.07Zm-3.78,4.21c5.28,7.05,10.35,14.12,15.68,21.17,1.89-3.61,4.85-5.49,8.38-6.96-5.09-6.84-10.11-13.58-15.11-20.3-3.02,2.06-5.84,3.98-8.94,6.09Zm17.13,23.13c1.01,1.42,2.06,2.9,3.13,4.37.31.44.62.89,1.01,1.26,1.15,1.12,2.23,2.37,3.54,3.26,2.54,1.74,6.45.77,8.19-1.79.83-1.23.76-2.56.59-3.89-.13-1.05-.51-2-1.83-2.16-.25-.03-.46-.46-.66-.73-.87-1.11-1.73-2.23-2.59-3.35-.92-1.19-1.84-2.38-2.59-3.35-3,2.18-5.8,4.21-8.77,6.37Zm-.19-1.8c2.92-1.32,5.7-2.82,7.42-5.69-3.33.75-5.78,2.69-7.42,5.69Zm-10.55-30.18c-3.05,1.29-5.95,2.92-8.06,5.66,3.35-.87,6.05-2.7,8.06-5.66Z"/>
      <path class="cls-3" d="m1050.18,65.26c.05,2.04-1.86,4.16-3.84,4.27-1.91.11-3.63-1.43-3.64-3.26-.02-1.93,1.91-4.31,3.54-4.37,1.79-.07,3.9,1.73,3.94,3.36Zm-4.09,3.17c1.44.05,2.92-1.4,3.02-2.97.07-1.1-1.29-2.65-2.33-2.63-1.39.02-2.96,1.76-3,3.33-.03,1.28.93,2.23,2.3,2.28Z"/>
      <path class="cls-3" d="m1028.59,55.42c2.34-.26,3.74.72,4.03,2.6.34,2.16-1.01,4.06-3.13,4.41-2,.33-3.69-.92-4.04-2.98-.3-1.77.72-3.29,2.8-3.69-.44.58-.67,1.01-1.02,1.31-1.01.9-.98,2.95.28,3.94,1.01.79,2.72.47,3.58-.67.91-1.2.62-3.01-.66-3.88-.49-.33-1.03-.58-1.84-1.04Z"/>
      <path class="cls-6" d="m1012.61,92.96c2.56-.26,3.79.66,3.85,2.62.07,2.03-1.58,3.67-3.68,3.68-2.15.01-3.65-1.45-3.55-3.46.08-1.64,1.03-2.53,2.68-2.4-.56,1.01-2.06,1.56-1.54,2.99.19.53.54,1.11.98,1.42,1.18.81,3,.32,3.69-.88.87-1.52.27-2.59-2.42-3.97Z"/>
      <path class="cls-3" d="m1044.29,74.57c1.35-.01,2.27.65,2.29,1.65.03,1.24-1.45,2.86-2.62,2.86-1.13,0-2.18-1-2.23-2.14-.06-1.39.98-2.36,2.56-2.37Zm.59.66c-1.03-.02-2.14.9-2.18,1.53-.04.62.61,1.34,1.21,1.34.57,0,1.61-1.11,1.55-1.84-.04-.41-.43-.79-.58-1.03Z"/>
      <path class="cls-3" d="m1036.3,64.81c-.96,1.45-1.01,2.03-.33,2.51.69.49,1.55.21,1.99-.65.44-.85.23-1.23-1.04-1.87.72-.84,1.33-.35,1.84.17.6.61.52,1.81-.08,2.6-.73.96-2.08,1.38-3.01.94-.8-.38-1.54-1.89-1.34-2.73.18-.74.59-.96,1.98-.96Z"/>
      <path class="cls-6" d="m1022.89,93.4c1.36-.01,2.04.51,2.09,1.62.05,1.14-.93,2.19-2.11,2.27-1.03.07-2.12-.94-2.14-1.98-.02-1.06.92-1.89,2.15-1.9Zm.9.84c-.5.13-1.03.19-1.48.41-.23.11-.47.53-.44.77.04.25.36.57.62.65,1.02.34,1.57-.39,1.3-1.83Z"/>
      <path class="cls-6" d="m1021.58,102.24c.68.02,1.29.73,1.3,1.51.02.96-.72,1.77-1.56,1.7-.74-.06-1.22-.7-1.18-1.58.04-.93.68-1.65,1.44-1.63Z"/>
      <path class="cls-3" d="m1051.38,76.84c-.37-.25-.79-.54-1.14-.78-.55.2-1.06.38-1.56.56.29-1.04.93-1.8.19-2.86,1.17.36,2.18.99,3.31.03-.3,1.14-.53,2.06-.79,3.05Z"/>
      <path class="cls-6" d="m1017.86,86.66c0,1.08-.73,1.84-1.71,1.8-.82-.03-1.53-.77-1.51-1.56.03-.95.73-1.55,1.75-1.51.96.04,1.47.48,1.47,1.26Zm-.91-.14c-.86,0-1.43.2-.74,1.13.3-.45.52-.79.74-1.13Z"/>
      <path class="cls-3" d="m1047.82,83.22c-.57.63-.88,1.22-1.35,1.41-.36.15-1.16-.06-1.35-.37-.27-.42-.33-1.15-.16-1.64.19-.57.79-.62,1.34-.27.38.24.78.45,1.53.87Z"/>
      <path class="cls-3" d="m1036.11,74.07c.14-.79.26-1.42.39-2.15.72.33,1.34.62,2.05.95-.21.56-.43,1.14-.7,1.86-.56-.21-1.07-.4-1.75-.66Z"/>
      <path class="cls-3" d="m1041.32,55.35c-1.15.93-2.35,1.76-4.29,1.52,1.32-1.43,2.8-1.5,4.29-1.52Z"/>
    </g>
    <g class="cls-19">
      <path class="cls-13" d="m19.62,210c-.25.06-.49.12-.88.22.09-.27.11-.52.24-.66.94-.98,1.85-2.01,2.88-2.88.48-.4,1.21-.65,1.85-.7,3.25-.26,6.5-.49,9.76-.62,6.99-.28,13.98-.51,20.97-.71,2.84-.08,5.68-.02,8.53-.09.59-.01,1.18-.3,1.98-.52.05.14.29.49.32.86.38,5.12.68,10.26,1.1,15.38.26,3.08.74,6.14,1.03,9.22.19,2.04.11,4.1.3,6.14.4,4.28.88,8.55,1.36,12.82.16,1.4.45,2.79.65,4.2.04.28.02.77-.13.85-1.24.67-.56,1.52-.22,2.5-1.56.24-3.08.58-4.62.69-4.93.34-9.86.6-14.8.86-4.94.26-9.87.47-14.81.73-2.05.11-4.09.3-6.13.41-.65.03-1.18.19-1.74.57-1.72,1.14-3.22.66-3.76-1.35-.44-1.65-.61-3.4-.72-5.12-.36-5.55-.55-11.12-.97-16.67-.27-3.61-.85-7.19-1.26-10.78-.4-3.55-.83-7.09-1.11-10.65-.12-1.56.1-3.14.17-4.71.84-.17.82.38.79.94-.05,1.31-.2,2.62-.11,3.91.15,2.3.43,4.6.67,6.9.21,2.04.44,4.07.68,6.11.35,2.92.84,5.83,1.04,8.75.38,5.46.58,10.92.91,16.38.09,1.56.33,3.12.61,4.66.12.64.47,1.29,1.41,1.29.03-.23.08-.43.07-.62-.09-2.15-.2-4.3-.29-6.46-.24-5.52-.44-11.03-.73-16.55-.3-5.67-.69-11.34-1.05-17-.06-.89-.11-1.78-.17-2.67-.16-2.36-.33-4.72-.46-7.09-.02-.41-.19-.95.71-1.35.51,8.69,1.16,17.18,1.57,25.69.42,8.61.86,17.22,1.28,25.62.34-.13.84-.43,1.38-.49,1.67-.19,3.35-.32,5.03-.42,2.05-.12,4.1-.17,6.15-.26,4.2-.19,8.4-.38,12.61-.57.42-.02.84-.06,1.26-.09,2.67-.18,5.35-.34,8.02-.54,2.45-.19,4.89-.43,7.45-.65-.13-1.04-.28-1.92-.35-2.8-.31-4.14-.59-8.29-.88-12.43-.19-2.73-.33-5.46-.56-8.18-.35-4.08-.81-8.15-1.14-12.23-.33-3.98-.55-7.97-.85-11.96-.06-.86-.26-1.72-.41-2.67-3.86.1-7.53.18-11.21.31-6.41.22-12.83.46-19.24.7-2.73.1-5.46.32-8.2.31-2.73,0-4.47,1.47-5.96,3.48Z"/>
      <path class="cls-13" d="m61.53,221.36c-.28,1.58-1.11,2.33-2.22,2.78-2.75,1.12-6.2-.56-7.22-3.34-1.02-2.79.91-6.27,3.69-7.01,1.17-.31,2.3-.19,3.34.42.17.1.25.38.55.88-.98-.28-1.64-.58-2.32-.62-.65-.03-1.38.1-1.97.38-.64.31-1.25.8-1.7,1.35-.42.51-.69,1.18-.89,1.82-.57,1.83.28,3.85,2,4.86,2.31,1.36,3.99,1.02,6.74-1.53Z"/>
    </g>
    <g class="cls-19">
      <path class="cls-13" d="m1298.89,503.62c.37-.1.75-.2,1.34-.35-.14.43-.17.84-.37,1.07-1.42,1.59-2.8,3.25-4.37,4.66-.73.65-1.84,1.05-2.81,1.13-4.92.42-9.85.79-14.78,1-10.59.45-21.18.82-31.77,1.15-4.3.13-8.61.04-12.92.14-.9.02-1.79.49-2.99.85-.08-.23-.44-.79-.48-1.38-.57-8.29-1.03-16.58-1.67-24.86-.39-4.98-1.13-9.93-1.56-14.91-.28-3.3-.17-6.63-.45-9.93-.6-6.92-1.33-13.83-2.07-20.73-.24-2.27-.68-4.52-.98-6.78-.06-.46-.03-1.24.2-1.38,1.88-1.09.84-2.45.33-4.04,2.36-.39,4.66-.94,6.99-1.11,7.47-.54,14.94-.97,22.42-1.39,7.48-.42,14.96-.76,22.43-1.18,3.1-.17,6.19-.48,9.29-.66.98-.06,1.79-.31,2.64-.92,2.6-1.84,4.87-1.07,5.69,2.19.67,2.67.92,5.5,1.09,8.28.54,8.98.83,17.98,1.47,26.95.41,5.83,1.29,11.62,1.91,17.44.61,5.73,1.26,11.46,1.68,17.21.18,2.52-.15,5.07-.26,7.61-1.27.28-1.23-.61-1.2-1.52.08-2.11.3-4.23.17-6.33-.22-3.72-.64-7.44-1.01-11.15-.32-3.29-.67-6.58-1.04-9.87-.53-4.72-1.27-9.42-1.58-14.16-.58-8.82-.88-17.66-1.38-26.49-.14-2.52-.5-5.04-.93-7.53-.18-1.03-.7-2.09-2.14-2.08-.04.38-.11.69-.1,1,.14,3.48.3,6.96.45,10.44.37,8.92.66,17.84,1.11,26.76.46,9.17,1.05,18.33,1.58,27.49.08,1.44.17,2.88.26,4.32.24,3.82.5,7.64.7,11.46.03.66.29,1.53-1.08,2.18-.77-14.05-1.75-27.78-2.38-41.55-.63-13.92-1.3-27.84-1.93-41.42-.52.2-1.28.69-2.09.79-2.53.31-5.07.52-7.62.68-3.1.19-6.21.27-9.32.41-6.37.3-12.73.61-19.1.93-.64.03-1.27.1-1.91.14-4.05.29-8.11.55-12.16.88-3.71.3-7.41.69-11.28,1.06.2,1.68.43,3.1.53,4.52.46,6.7.9,13.4,1.33,20.1.29,4.41.5,8.82.85,13.22.53,6.6,1.22,13.18,1.73,19.78.5,6.44.84,12.89,1.29,19.33.1,1.4.39,2.78.62,4.32,5.84-.17,11.41-.3,16.99-.5,9.72-.35,19.43-.74,29.14-1.13,4.14-.17,8.28-.52,12.42-.51,4.14.01,6.77-2.38,9.03-5.63Z"/>
      <path class="cls-13" d="m1235.39,485.24c.43-2.55,1.68-3.77,3.37-4.5,4.17-1.81,9.39.91,10.93,5.39,1.55,4.5-1.39,10.13-5.59,11.33-1.78.51-3.48.32-5.07-.67-.26-.16-.37-.62-.83-1.43,1.49.45,2.49.94,3.51.99.99.05,2.09-.15,2.98-.61.97-.5,1.89-1.29,2.58-2.18.63-.82,1.05-1.9,1.35-2.94.87-2.96-.43-6.23-3.02-7.86-3.49-2.2-6.04-1.65-10.21,2.47Z"/>
    </g>
    <g class="cls-19">
      <path class="cls-13" d="m436.34,453.65c-.37.1-.75.2-1.34.35.14-.43.17-.84.37-1.07,1.42-1.59,2.8-3.25,4.37-4.66.73-.65,1.84-1.05,2.81-1.13,4.92-.42,9.85-.79,14.78-1,10.59-.45,21.18-.82,31.77-1.15,4.3-.13,8.61-.04,12.92-.14.9-.02,1.79-.49,2.99-.85.08.23.44.79.48,1.38.57,8.29,1.03,16.58,1.67,24.86.39,4.98,1.13,9.93,1.56,14.91.28,3.3.17,6.63.45,9.93.6,6.92,1.33,13.83,2.07,20.73.24,2.27.68,4.52.98,6.78.06.46.03,1.24-.2,1.38-1.88,1.09-.84,2.45-.33,4.04-2.36.39-4.66.94-6.99,1.11-7.47.54-14.94.97-22.42,1.39-7.48.42-14.96.76-22.43,1.18-3.1.17-6.19.48-9.29.66-.98.06-1.79.31-2.64.92-2.6,1.84-4.87,1.07-5.69-2.19-.67-2.67-.92-5.5-1.09-8.28-.54-8.98-.83-17.98-1.47-26.95-.41-5.83-1.29-11.62-1.91-17.44-.61-5.73-1.26-11.46-1.68-17.21-.18-2.52.15-5.07.26-7.61,1.27-.28,1.23.61,1.2,1.52-.08,2.11-.3,4.23-.17,6.33.22,3.72.64,7.44,1.01,11.15.32,3.29.67,6.58,1.04,9.87.53,4.72,1.27,9.42,1.58,14.16.58,8.82.88,17.66,1.38,26.49.14,2.52.5,5.04.93,7.53.18,1.03.7,2.09,2.14,2.08.04-.38.11-.69.1-1-.14-3.48-.3-6.96-.45-10.44-.37-8.92-.66-17.84-1.11-26.76-.46-9.17-1.05-18.33-1.58-27.49-.08-1.44-.17-2.88-.26-4.32-.24-3.82-.5-7.64-.7-11.46-.03-.66-.29-1.53,1.08-2.18.77,14.05,1.75,27.78,2.38,41.55.63,13.92,1.3,27.84,1.93,41.42.52-.2,1.28-.69,2.09-.79,2.53-.31,5.07-.52,7.62-.68,3.1-.19,6.21-.27,9.32-.41,6.37-.3,12.73-.61,19.1-.93.64-.03,1.27-.1,1.91-.14,4.05-.29,8.11-.55,12.16-.88,3.71-.3,7.41-.69,11.28-1.06-.2-1.68-.43-3.1-.53-4.52-.46-6.7-.9-13.4-1.33-20.1-.29-4.41-.5-8.82-.85-13.22-.53-6.6-1.22-13.18-1.73-19.78-.5-6.44-.84-12.89-1.29-19.33-.1-1.4-.39-2.78-.62-4.32-5.84.17-11.41.3-16.99.5-9.72.35-19.43.74-29.14,1.13-4.14.17-8.28.52-12.42.51-4.14-.01-6.77,2.38-9.03,5.63Z"/>
      <path class="cls-13" d="m499.83,472.03c-.43,2.55-1.68,3.77-3.37,4.5-4.17,1.81-9.39-.91-10.93-5.39-1.55-4.5,1.39-10.13,5.59-11.33,1.78-.51,3.48-.32,5.07.67.26.16.37.62.83,1.43-1.49-.45-2.49-.94-3.51-.99-.99-.05-2.09.15-2.98.61-.97.5-1.89,1.29-2.58,2.18-.63.82-1.05,1.9-1.35,2.94-.87,2.96.43,6.23,3.02,7.86,3.49,2.2,6.04,1.65,10.21-2.47Z"/>
    </g>
    <path class="cls-2" d="m474.49,709.94c1.38-.31,2.74-.66,4.13-.93,5.43-1.07,10.78-2.37,15.85-4.7,7.14-3.29,11.61-8.67,13.2-16.37,2.33-11.28-4.33-20.25-11.25-24.42-5.48-3.31-11.41-5.31-17.74-6.23-11.89-1.73-23.42-.33-34.51,4.23-7.02,2.89-12.74,7.39-16.61,14.11-5.56,9.65-3.86,18.5,3.16,26.37,5.1,5.72,11.77,8.43,19.25,9.33,2.45.29,4.92.34,7.38.55,2.02.17,2.4.58,2.15,2.59-.24,1.85-.5,3.72-1.04,5.49-.54,1.76-1.43,3.42-2.35,5.54,7.01-3.61,12.44-8.56,17.57-13.95-.5,2.94-2.53,4.83-4.51,6.62-4.84,4.41-10.34,7.89-16.1,10.98-.7.38-1.41.9-2.06-.43,3.96-4.12,7.02-8.81,6.95-15.12-3.04-.32-5.96-.57-8.86-.93-10.95-1.38-19.37-6.6-24.25-16.66-3.74-7.7-2.41-15.18,2.02-22.23,4.61-7.34,11.41-11.87,19.42-14.74,8.17-2.92,16.66-4.29,25.28-3.93,8.52.35,16.85,1.94,24.37,6.38,5.14,3.04,9.24,6.99,11.71,12.54,4.71,10.6.48,24.15-8.9,29.69-6.68,3.94-13.95,5.85-21.5,6.97-.58.09-1.19.02-1.78,0-.29,0-.58-.08-.87-.12-.04-.2-.08-.4-.11-.6Z"/>
    <path class="cls-2" d="m887.77,500.94c-1.38-.31-2.74-.66-4.13-.93-5.43-1.07-10.78-2.37-15.85-4.7-7.14-3.29-11.61-8.67-13.2-16.37-2.33-11.28,4.33-20.25,11.25-24.42,5.48-3.31,11.41-5.31,17.74-6.23,11.89-1.73,23.42-.33,34.51,4.23,7.02,2.89,12.74,7.39,16.61,14.11,5.56,9.65,3.86,18.5-3.16,26.37-5.1,5.72-11.77,8.43-19.25,9.33-2.45.29-4.92.34-7.38.55-2.02.17-2.4.58-2.15,2.59.24,1.85.5,3.72,1.04,5.49.54,1.76,1.43,3.42,2.35,5.54-7.01-3.61-12.44-8.56-17.57-13.95.5,2.94,2.53,4.83,4.51,6.62,4.84,4.41,10.34,7.89,16.1,10.98.7.38,1.41.9,2.06-.43-3.96-4.12-7.02-8.81-6.95-15.12,3.04-.32,5.96-.57,8.86-.93,10.95-1.38,19.37-6.6,24.25-16.66,3.74-7.7,2.41-15.18-2.02-22.23-4.61-7.34-11.41-11.87-19.42-14.74-8.17-2.92-16.66-4.29-25.28-3.93-8.52.35-16.85,1.94-24.37,6.38-5.14,3.04-9.24,6.99-11.71,12.54-4.71,10.6-.48,24.15,8.9,29.69,6.68,3.94,13.95,5.85,21.5,6.97.58.09,1.19.02,1.78,0,.29,0,.58-.08.87-.12.04-.2.08-.4.11-.6Z"/>
    <g class="cls-19">
      <path class="cls-5" d="m1237.68,163.65c.94.87.51,1.68-.1,2.49-.33.45-.84.91-.89,1.4-.24,2.33-1.76,3.22-3.79,3.61-.36.07-.72.11-1.03.16-.14.15-.28.24-.32.37-1.15,3.69-4.9,4.89-8.15,4.02-1.64-.44-3.19-1-4.52-2.11-2-1.67-3.27-3.58-2.23-6.34-1.57-1.33-3.62-2.26-3.6-4.69.01-1.35.2-2.64,1.4-3.48-1.03-3.39-.85-3.82,2.6-6.21.33-2.91.7-5.8.97-8.71.08-.89.26-1.78-.73-2.55-5.59-4.37-7.71-10.33-7.38-17.22.33-7.04,2.8-13.32,7.77-18.36,4.51-4.57,10.22-6.58,16.58-7.01,7.18-.48,13.39,1.79,18.81,6.38,3.87,3.27,6.99,7.15,8.44,12.07,2.49,8.4,1.05,16.17-4.23,23.2-3.37,4.49-7.8,7.43-13.13,9.08-.76.23-1.46.63-2.2.96-.3,2.11-.52,4.15-.9,6.15-.46,2.45-.95,2.81-3.43,2.51-1.37-.16-2.73-.52-4.06-.89-4.72-1.29-9.45-2.54-14.13-3.97-1.4-.43-2.47.09-3.51.63-1.32.68-1.12,2.59.3,3.42.62.36,1.34.63,2.04.78,5.63,1.24,11.21,2.81,17.02,3.04,1.09.04,2.21.05,3.29-.13.78-.13,1.5-.6,2.18-.9.1,1.01-.2,1.54-1.33,1.91-.54.18-1.1.29-1.66.43-7.17-.45-14.23-1.6-21.1-3.73-.99-.31-1.5-.06-1.85,1.1.71.38,1.36.87,2.08,1.09,4.2,1.26,8.38,2.58,12.64,3.62,1.81.44,3.79.39,5.67.26,1.28-.09,2.62-.6,2.51-2.38Zm-6.52-7.03c2.12.55,4.22,1.2,6.36,1.63,1.74.35,2.12.04,2.42-1.61.25-1.36.5-2.74.53-4.12.05-2.21,1.24-3.32,3.22-3.86.35-.1.71-.2,1.05-.32,8.93-3.25,14.46-9.57,16.36-18.8,1.73-8.4-.92-15.66-6.96-21.63-7.15-7.06-15.67-9.45-25.42-6.81-4.6,1.25-8.69,3.44-11.69,7.35-4.52,5.9-6.63,12.47-5.81,19.92.55,5.05,2.65,9.25,6.75,12.31,1.03.77,1.35,1.63,1.22,2.81-.22,1.96-.43,3.93-.6,5.9-.11,1.22-.14,2.45-.21,3.73,2.16.54,4.12,1.02,6.05,1.5.15-.2.29-.31.31-.44.67-3.89,1.45-7.76,1.95-11.68.47-3.63-.11-7.14-1.88-10.42-.63-1.16-1.2-2.36-1.64-3.59-1.36-3.75.22-5.89,4.2-5.77.22,0,.44.03.66.06,2.07.3,3.99,1.24,6.11,1.43.77.07,1.53.81,2.2,1.37.43.36.68.94.92,1.28,3.76-1.54,4.75-1.09,6.85,2.82.47,0,.98-.01,1.48,0,2.33.06,3.28,1.09,3.23,3.44-.05,2.39-1.63,3.71-3.5,4.65-1.69.85-3.46,1.62-5.29,2.11-3.05.83-4.6,2.93-5.47,5.74-1.13,3.62-2.24,7.24-3.41,11.01Zm-.94-32.18c-.96-.23-1.7-.51-2.46-.57-3.49-.3-4.63,1.17-3.43,4.48.5,1.37,1.17,2.68,1.84,3.98,1.37,2.67,2.02,5.51,1.79,8.48-.19,2.54-.59,5.08-.99,7.6-.34,2.15-.82,4.27-1.27,6.58,1.58.47,2.94.88,4.4,1.32.25-.69.47-1.22.63-1.77.88-3.01,1.71-6.05,2.64-9.05,1-3.22,2.66-5.87,6.27-6.69.71-.16,1.41-.4,2.07-.71,1.45-.67,2.91-1.36,4.31-2.14,1.03-.57,1.5-1.58,1.67-2.71.19-1.26-.3-2.15-1.31-2.41-1.38-.35-2.24.07-2.73,1.34-.11.27-.16.57-.29.83-.48.94-1.23,1.24-1.94.79-.73-.47-.82-1.26-.2-2.07.22-.29.48-.55.76-.79.75-.64.7-1.35.33-2.17-.83-1.81-2.26-2.07-4-.69.11.72.25,1.43.32,2.15.08.85-.04,1.75-.98,1.97-.63.14-1.66.08-1.99-.32-.41-.51-.48-1.49-.33-2.19.15-.74.73-1.39,1.19-2.19-1.04-.99-1.77-2.31-3.44-2.18,0,1.15.1,2.18-.03,3.18-.16,1.22-1.05,1.89-2.19,2.19-1.05.28-2.43-.21-2.95-1.01-.67-1.03-.28-1.99.31-2.86.49-.72,1.11-1.35,1.97-2.37Zm5.66,42.91c-7.66.35-14.51-2.69-21.67-4.85.12,1.99,1.51,2.86,2.98,3.43,3.27,1.26,6.58,2.41,9.92,3.47,1.31.42,2.71.6,4.08.71,2.47.2,3.83-.63,4.69-2.77Zm-18.1.35c-.75,1.62-.24,2.93.89,4.16,1.78,1.94,4.08,2.8,6.58,3.08,2.32.26,4.6-1.39,5.21-3.37-4.22-1.29-8.44-2.58-12.69-3.87Zm14.23-40.8c-.07-.12-.28-.81-.73-1.08-.23-.14-.95.42-1.37.76-.33.26-.65.64-.76,1.03-.14.49-.27,1.24-.01,1.53.29.33,1.06.49,1.54.38,1.06-.24,1.48-1.06,1.33-2.62Zm4.14,4.27c1.73-.49,1.75-.55.72-2.15-.24.71-.43,1.27-.72,2.15Z"/>
      <path class="cls-6" d="m1180.54,138.84c-3.91,1.45-7.71,3.08-10.99,5.67-3.24,2.56-5.95,5.62-8.26,9.04-2.34,3.45-4.41,7.04-5.93,11.01,4.13-2.55,7.43-6.35,12.18-7.88-5.03,4.1-10.36,7.81-15.16,12.62.83-3.18-.93-5.73-1.36-8.54-.15-.98-.35-1.95-.29-2.99,1.59,2.06,1.6,4.69,2.82,7.26.42-.76.74-1.27,1-1.82,2.68-5.81,5.93-11.26,10.34-15.95,3.73-3.97,8.14-6.9,13.35-8.59,1.02-.33,1.01-.34,2.32.17Z"/>
      <path class="cls-6" d="m1304.45,187.07c-3.62-1.38-6.92-2.64-10.43-3.99,1.52-.96,2.74-.03,3.95.29,1.32.35,2.6.84,4.37,1.43-2.7-2.9-5.01-5.52-7.46-7.99-2.89-2.9-5.82-5.78-8.91-8.47-2.14-1.86-4.48-3.55-6.92-5-1.5-.89-3.36-1.18-5.17-1.77.09-.7.78-.64,1.28-.63,2.3.02,4.3,1.04,6.06,2.33,2.83,2.07,5.69,4.16,8.18,6.62,4.69,4.62,9.11,9.51,13.66,14.27.08.08.26.07.66.17.46-2.7-.03-5.45.46-8.11,1.44,3.56.95,7.14.28,10.85Z"/>
      <path class="cls-6" d="m1295.58,62.14c3.84-1.85,7.66-3.69,11.65-5.61.3,2.12-.55,4.18-.71,6.28-.16,2.13-.48,4.25-.96,6.35-.62-2.35-.4-4.69.02-7.55-8.79,7.64-16.83,15.29-22.48,25.15-1.13-.59-.58-1.26-.29-1.71,1.44-2.2,2.87-4.42,4.45-6.52,4.65-6.18,10.33-11.36,16.08-16.48.54-.48,1.19-.86,1.78-1.28.75-.53,1.04-1.19.62-2.13-3.31,1.29-6.25,3.47-9.86,3.98-.06,0-.15-.22-.32-.49Z"/>
      <path class="cls-6" d="m1216.02,88.31c-1.13-.19-1.2-1.12-1.59-1.76-2.61-4.31-5.1-8.7-7.86-12.92-1.67-2.55-3.75-4.82-5.86-7.5-.7,1.89-.04,3.67-1.37,5.35-.6-1.81.01-3.32-.21-4.76-.23-1.46-.35-2.96-.77-4.37-.43-1.44-1.18-2.78-1.83-4.28,5.34,3.45,10.57,6.83,15.83,10.23-1.71.07-1.88.03-6.56-2.78-2.06-1.24-4.06-2.59-6.17-3.95-.09,1.42.37,2.42,1.31,3.39,5.8,5.99,10.25,12.95,14.12,20.28.48.9,1.18,1.8.97,3.06Z"/>
      <path class="cls-6" d="m1298.37,100.58c2.29-.76,4.67-.81,7.06-.59,5.99.55,11.84,1.78,17.6,3.48,6.6,1.95,13.07,4.26,19.31,7.18.97.45,1.85,1.08,2.77,1.63-.06.16-.13.32-.19.48-.56-.17-1.15-.27-1.68-.51-8.78-4.06-17.87-7.24-27.29-9.46-4.21-.99-8.48-1.59-12.8-1.72-1.09-.03-2.18.22-3.27.28-.51.03-1.03-.07-1.54-.11.01-.22.03-.43.04-.65Z"/>
      <path class="cls-6" d="m1128.59,110.31c1.94-.2,3.88-.51,5.83-.57,11.73-.4,23.38.63,35.03,1.82.15.02.28.3.47.5-.69.9-1.63.55-2.43.48-3.5-.29-6.98-.66-10.47-1-8.1-.78-16.23-.71-24.35-.61-1.36.02-2.74.57-4.07-.62Z"/>
      <path class="cls-6" d="m1271.71,129.28c6.21-1.4,12.41-3,18.84-1.26.03.16.06.32.09.48-.35.13-.73.42-1.04.36-5.54-1.07-10.93.19-16.34.99-.48.07-.99,0-1.48,0-.02-.19-.04-.38-.06-.57Z"/>
      <path class="cls-6" d="m1247.93,91.82c.59-2.14,1.06-4.32,1.79-6.4.87-2.48,1.95-4.88,2.99-7.29.27-.62.61-1.37,1.84-.94-3.02,4.6-3.76,10.03-6.09,14.81-.18-.06-.35-.12-.53-.18Z"/>
      <path class="cls-6" d="m1196.07,91.12c.5.16,1.07.21,1.48.49,3.2,2.24,6.29,4.62,8.55,7.85-.1.11-.2.23-.3.34-3.29-2.73-6.57-5.47-9.86-8.2.04-.16.08-.32.12-.48Z"/>
      <path class="cls-6" d="m1273.25,155.34c-.42-.05-.81.02-1.07-.13-1.58-.98-8.34-8.3-8.96-9.64,1.44.6,9.19,8.09,10.02,9.77Z"/>
      <path class="cls-6" d="m1268.84,105c3.47-2.62,8.28-3.98,11.24-3.07-1.06,1.16-2.5.33-3.62.89-1.22.62-2.59.94-3.9,1.39-1.21.42-2.41.83-3.62,1.25-.03-.16-.07-.31-.1-.47Z"/>
      <path class="cls-6" d="m1201.19,121.23c-3.58,1.75-7.1,2.56-10.55,3.57-.14.04-.4-.3-.63-.49,1.94-1.32,8.77-3.26,11.18-3.08Z"/>
      <path class="cls-6" d="m1226.66,88.28c-1.59-3.23-3.18-6.46-4.74-9.7-.05-.11.17-.36.41-.84,2.7,3.1,3.66,6.75,4.8,10.31-.16.08-.31.16-.47.23Z"/>
    </g>
    <g class="cls-19">
      <path class="cls-5" d="m230.68,515.65c.94.87.51,1.68-.1,2.49-.33.45-.84.91-.89,1.4-.24,2.33-1.76,3.22-3.79,3.61-.36.07-.72.11-1.03.16-.14.15-.28.24-.32.37-1.15,3.69-4.9,4.89-8.15,4.02-1.64-.44-3.19-1-4.52-2.11-2-1.67-3.27-3.58-2.23-6.34-1.57-1.33-3.62-2.26-3.6-4.69.01-1.35.2-2.64,1.4-3.48-1.03-3.39-.85-3.82,2.6-6.21.33-2.91.7-5.8.97-8.71.08-.89.26-1.78-.73-2.55-5.59-4.37-7.71-10.33-7.38-17.22.33-7.04,2.8-13.32,7.77-18.36,4.51-4.57,10.22-6.58,16.58-7.01,7.18-.48,13.39,1.79,18.81,6.38,3.87,3.27,6.99,7.15,8.44,12.07,2.49,8.4,1.05,16.17-4.23,23.2-3.37,4.49-7.8,7.43-13.13,9.08-.76.23-1.46.63-2.2.96-.3,2.11-.52,4.15-.9,6.15-.46,2.45-.95,2.81-3.43,2.51-1.37-.16-2.73-.52-4.06-.89-4.72-1.29-9.45-2.54-14.13-3.97-1.4-.43-2.47.09-3.51.63-1.32.68-1.12,2.59.3,3.42.62.36,1.34.63,2.04.78,5.63,1.24,11.21,2.81,17.02,3.04,1.09.04,2.21.05,3.29-.13.78-.13,1.5-.6,2.18-.9.1,1.01-.2,1.54-1.33,1.91-.54.18-1.1.29-1.66.43-7.17-.45-14.23-1.6-21.1-3.73-.99-.31-1.5-.06-1.85,1.1.71.38,1.36.87,2.08,1.09,4.2,1.26,8.38,2.58,12.64,3.62,1.81.44,3.79.39,5.67.26,1.28-.09,2.62-.6,2.51-2.38Zm-6.52-7.03c2.12.55,4.22,1.2,6.36,1.63,1.74.35,2.12.04,2.42-1.61.25-1.36.5-2.74.53-4.12.05-2.21,1.24-3.32,3.22-3.86.35-.1.71-.2,1.05-.32,8.93-3.25,14.46-9.57,16.36-18.8,1.73-8.4-.92-15.66-6.96-21.63-7.15-7.06-15.67-9.45-25.42-6.81-4.6,1.25-8.69,3.44-11.69,7.35-4.52,5.9-6.63,12.47-5.81,19.92.55,5.05,2.65,9.25,6.75,12.31,1.03.77,1.35,1.63,1.22,2.81-.22,1.96-.43,3.93-.6,5.9-.11,1.22-.14,2.45-.21,3.73,2.16.54,4.12,1.02,6.05,1.5.15-.2.29-.31.31-.44.67-3.89,1.45-7.76,1.95-11.68.47-3.63-.11-7.14-1.88-10.42-.63-1.16-1.2-2.36-1.64-3.59-1.36-3.75.22-5.89,4.2-5.77.22,0,.44.03.66.06,2.07.3,3.99,1.24,6.11,1.43.77.07,1.53.81,2.2,1.37.43.36.68.94.92,1.28,3.76-1.54,4.75-1.09,6.85,2.82.47,0,.98-.01,1.48,0,2.33.06,3.28,1.09,3.23,3.44-.05,2.39-1.63,3.71-3.5,4.65-1.69.85-3.46,1.62-5.29,2.11-3.05.83-4.6,2.93-5.47,5.74-1.13,3.62-2.24,7.24-3.41,11.01Zm-.94-32.18c-.96-.23-1.7-.51-2.46-.57-3.49-.3-4.63,1.17-3.43,4.48.5,1.37,1.17,2.68,1.84,3.98,1.37,2.67,2.02,5.51,1.79,8.48-.19,2.54-.59,5.08-.99,7.6-.34,2.15-.82,4.27-1.27,6.58,1.58.47,2.94.88,4.4,1.32.25-.69.47-1.22.63-1.77.88-3.01,1.71-6.05,2.64-9.05,1-3.22,2.66-5.87,6.27-6.69.71-.16,1.41-.4,2.07-.71,1.45-.67,2.91-1.36,4.31-2.14,1.03-.57,1.5-1.58,1.67-2.71.19-1.26-.3-2.15-1.31-2.41-1.38-.35-2.24.07-2.73,1.34-.11.27-.16.57-.29.83-.48.94-1.23,1.24-1.94.79-.73-.47-.82-1.26-.2-2.07.22-.29.48-.55.76-.79.75-.64.7-1.35.33-2.17-.83-1.81-2.26-2.07-4-.69.11.72.25,1.43.32,2.15.08.85-.04,1.75-.98,1.97-.63.14-1.66.08-1.99-.32-.41-.51-.48-1.49-.33-2.19.15-.74.73-1.39,1.19-2.19-1.04-.99-1.77-2.31-3.44-2.18,0,1.15.1,2.18-.03,3.18-.16,1.22-1.05,1.89-2.19,2.19-1.05.28-2.43-.21-2.95-1.01-.67-1.03-.28-1.99.31-2.86.49-.72,1.11-1.35,1.97-2.37Zm5.66,42.91c-7.66.35-14.51-2.69-21.67-4.85.12,1.99,1.51,2.86,2.98,3.43,3.27,1.26,6.58,2.41,9.92,3.47,1.31.42,2.71.6,4.08.71,2.47.2,3.83-.63,4.69-2.77Zm-18.1.35c-.75,1.62-.24,2.93.89,4.16,1.78,1.94,4.08,2.8,6.58,3.08,2.32.26,4.6-1.39,5.21-3.37-4.22-1.29-8.44-2.58-12.69-3.87Zm14.23-40.8c-.07-.12-.28-.81-.73-1.08-.23-.14-.95.42-1.37.76-.33.26-.65.64-.76,1.03-.14.49-.27,1.24-.01,1.53.29.33,1.06.49,1.54.38,1.06-.24,1.48-1.06,1.33-2.62Zm4.14,4.27c1.73-.49,1.75-.55.72-2.15-.24.71-.43,1.27-.72,2.15Z"/>
      <path class="cls-6" d="m173.54,490.84c-3.91,1.45-7.71,3.08-10.99,5.67-3.24,2.56-5.95,5.62-8.26,9.04-2.34,3.45-4.41,7.04-5.93,11.01,4.13-2.55,7.43-6.35,12.18-7.88-5.03,4.1-10.36,7.81-15.16,12.62.83-3.18-.93-5.73-1.36-8.54-.15-.98-.35-1.95-.29-2.99,1.59,2.06,1.6,4.69,2.82,7.26.42-.76.74-1.27,1-1.82,2.68-5.81,5.93-11.26,10.34-15.95,3.73-3.97,8.14-6.9,13.35-8.59,1.02-.33,1.01-.34,2.32.17Z"/>
      <path class="cls-6" d="m297.45,539.07c-3.62-1.38-6.92-2.64-10.43-3.99,1.52-.96,2.74-.03,3.95.29,1.32.35,2.6.84,4.37,1.43-2.7-2.9-5.01-5.52-7.46-7.99-2.89-2.9-5.82-5.78-8.91-8.47-2.14-1.86-4.48-3.55-6.92-5-1.5-.89-3.36-1.18-5.17-1.77.09-.7.78-.64,1.28-.63,2.3.02,4.3,1.04,6.06,2.33,2.83,2.07,5.69,4.16,8.18,6.62,4.69,4.62,9.11,9.51,13.66,14.27.08.08.26.07.66.17.46-2.7-.03-5.45.46-8.11,1.44,3.56.95,7.14.28,10.85Z"/>
      <path class="cls-6" d="m288.58,414.14c3.84-1.85,7.66-3.69,11.65-5.61.3,2.12-.55,4.18-.71,6.28-.16,2.13-.48,4.25-.96,6.35-.62-2.35-.4-4.69.02-7.55-8.79,7.64-16.83,15.29-22.48,25.15-1.13-.59-.58-1.26-.29-1.71,1.44-2.2,2.87-4.42,4.45-6.52,4.65-6.18,10.33-11.36,16.08-16.48.54-.48,1.19-.86,1.78-1.28.75-.53,1.04-1.19.62-2.13-3.31,1.29-6.25,3.47-9.86,3.98-.06,0-.15-.22-.32-.49Z"/>
      <path class="cls-6" d="m209.02,440.31c-1.13-.19-1.2-1.12-1.59-1.76-2.61-4.31-5.1-8.7-7.86-12.92-1.67-2.55-3.75-4.82-5.86-7.5-.7,1.89-.04,3.67-1.37,5.35-.6-1.81.01-3.32-.21-4.76-.23-1.46-.35-2.96-.77-4.37-.43-1.44-1.18-2.78-1.83-4.28,5.34,3.45,10.57,6.83,15.83,10.23-1.71.07-1.88.03-6.56-2.78-2.06-1.24-4.06-2.59-6.17-3.95-.09,1.42.37,2.42,1.31,3.39,5.8,5.99,10.25,12.95,14.12,20.28.48.9,1.18,1.8.97,3.06Z"/>
      <path class="cls-6" d="m291.37,452.58c2.29-.76,4.67-.81,7.06-.59,5.99.55,11.84,1.78,17.6,3.48,6.6,1.95,13.07,4.26,19.31,7.18.97.45,1.85,1.08,2.77,1.63-.06.16-.13.32-.19.48-.56-.17-1.15-.27-1.68-.51-8.78-4.06-17.87-7.24-27.29-9.46-4.21-.99-8.48-1.59-12.8-1.72-1.09-.03-2.18.22-3.27.28-.51.03-1.03-.07-1.54-.11.01-.22.03-.43.04-.65Z"/>
      <path class="cls-6" d="m121.59,462.31c1.94-.2,3.88-.51,5.83-.57,11.73-.4,23.38.63,35.03,1.82.15.02.28.3.47.5-.69.9-1.63.55-2.43.48-3.5-.29-6.98-.66-10.47-1-8.1-.78-16.23-.71-24.35-.61-1.36.02-2.74.57-4.07-.62Z"/>
      <path class="cls-6" d="m264.71,481.28c6.21-1.4,12.41-3,18.84-1.26.03.16.06.32.09.48-.35.13-.73.42-1.04.36-5.54-1.07-10.93.19-16.34.99-.48.07-.99,0-1.48,0-.02-.19-.04-.38-.06-.57Z"/>
      <path class="cls-6" d="m240.93,443.82c.59-2.14,1.06-4.32,1.79-6.4.87-2.48,1.95-4.88,2.99-7.29.27-.62.61-1.37,1.84-.94-3.02,4.6-3.76,10.03-6.09,14.81-.18-.06-.35-.12-.53-.18Z"/>
      <path class="cls-6" d="m189.07,443.12c.5.16,1.07.21,1.48.49,3.2,2.24,6.29,4.62,8.55,7.85-.1.11-.2.23-.3.34-3.29-2.73-6.57-5.47-9.86-8.2.04-.16.08-.32.12-.48Z"/>
      <path class="cls-6" d="m266.25,507.34c-.42-.05-.81.02-1.07-.13-1.58-.98-8.34-8.3-8.96-9.64,1.44.6,9.19,8.09,10.02,9.77Z"/>
      <path class="cls-6" d="m261.84,457c3.47-2.62,8.28-3.98,11.24-3.07-1.06,1.16-2.5.33-3.62.89-1.22.62-2.59.94-3.9,1.39-1.21.42-2.41.83-3.62,1.25-.03-.16-.07-.31-.1-.47Z"/>
      <path class="cls-6" d="m194.19,473.23c-3.58,1.75-7.1,2.56-10.55,3.57-.14.04-.4-.3-.63-.49,1.94-1.32,8.77-3.26,11.18-3.08Z"/>
      <path class="cls-6" d="m219.66,440.28c-1.59-3.23-3.18-6.46-4.74-9.7-.05-.11.17-.36.41-.84,2.7,3.1,3.66,6.75,4.8,10.31-.16.08-.31.16-.47.23Z"/>
    </g>
    <path class="cls-7" d="m349.49,344.39c3.12.65,5.99.98,8.67,1.87,5.13,1.73,8.81,5.18,10.54,10.41,1.92,5.79-.19,12.86-5.16,16.43-2.71,1.95-4.88,3.94-6.53,7.06-2.88,5.45-8.31,7.59-14.29,8.14-4.25.39-8.21-.73-12.16-2.92-3.7,4.51-8.32,7.08-14.37,6.13-6.04-.94-10.07-4.19-11.65-10.53-5.69,1.53-10.84.57-15.18-3.32-2.81-2.52-4.45-5.82-4.71-9.59-.34-4.95,1.04-9.51,4.87-12.79,3.67-3.14,8.27-3.93,13.24-3.46.33-6.59,2.48-12.18,7.28-16.49,4-3.59,8.7-5.7,14.1-6.21,8.7-.81,19.91,2.42,25.35,15.25Zm-45.15,9.52c-6.35-1.19-12.04-.71-15.75,4.91-3.4,5.16-3.57,10.68.19,15.77,4.34,5.88,10.31,6.62,17.02,4.27.62,5.93,3.75,9.65,9.19,10.9,6.35,1.47,11.46-.75,14.85-6.4.45.12.77.12,1,.27,4.93,3.24,10.27,3.85,15.86,2.34,4.48-1.22,8.18-3.67,9.81-8.22.77-2.15,2.08-3.25,3.94-4.41,7.11-4.41,9.91-11.71,5.43-19.17-2.18-3.64-5.49-5.96-9.57-6.96-2.55-.63-5.22-.8-7.86-1.18-4.45-12.26-15.14-16.09-23.26-15.59-5.5.34-10.34,2.53-14.38,6.26-4.96,4.57-6.66,10.52-6.47,17.19Z"/>
    <g class="cls-19">
      <path class="cls-14" d="m1117.15,417.23c1.78.4,3.59.68,5.32,1.22,5.9,1.84,11.78,3.77,17.66,5.67,1,.32,1.96.73,2.97,1.03,3.55,1.04,5.33,3.53,4.61,7.94-.74,4.54-1.91,9.02-3.01,13.5-2.76,11.25-5.5,22.5-8.42,33.71-.72,2.75-1.91,5.41-3.18,7.95-1.57,3.13-4.51,4.09-7.74,3.57-3.08-.5-6.07-1.52-9.1-2.28-2.95-.74-5.93-1.39-8.87-2.15-2.61-.67-5.32-1.14-7.76-2.23-3.31-1.48-4.66-3.72-4.07-7.25,1.13-6.76,3.14-13.29,4.69-19.94,2.03-8.73,4.12-17.45,6.24-26.16.66-2.71,1.44-5.39,2.33-8.03,1.38-4.13,4.35-6.33,8.36-6.54Zm-20.81,61.31c-.2,1.78,1.23,4.17,2.97,4.95,1.66.74,3.38,1.44,5.15,1.88,3.8.95,7.65,1.67,11.45,2.6,2.96.72,5.89,1.58,8.82,2.41,2.94.84,6.6-.41,7.89-3.93,1.14-3.1,2.22-6.24,3.04-9.43,2.63-10.22,5.16-20.46,7.68-30.71,1.1-4.48,2.2-8.97,3.14-13.48.76-3.69-1.34-5.74-4.09-6.57-4.85-1.46-9.69-2.95-14.52-4.43-3-.92-5.97-1.96-8.99-2.79-4.14-1.14-7.46,1.31-8.51,4.62-1.08,3.41-2.24,6.8-3.09,10.27-3.11,12.6-6.09,25.24-9.14,37.85-.55,2.27-1.19,4.52-1.79,6.78Z"/>
      <path class="cls-16" d="m1166.51,443.88c3.86-11.93,2.89-22.37-9.36-29.43,1.2-.81,2.01-.26,2.77.18,3.32,1.95,5.91,4.6,7.57,8.1,2.65,5.57,3.31,11.33,1.48,17.27-.44,1.44-1.23,2.78-1.86,4.17-.2-.09-.4-.19-.6-.28Z"/>
      <path class="cls-16" d="m1033.62,509.27c3.83-1.2,7.11-2.8,11.28-2.26-2.48,1.63-5.14,1.31-7.34,2.3-2.14.96-4.23,2.02-6.56,2.83,2.37-5.75,4.87-11.31,5.98-17.42,1.58.54,1.16,1.41.94,2.08-1.07,3.32-2.19,6.61-3.31,9.91-.25.74-.56,1.45-1,2.56Z"/>
      <path class="cls-16" d="m1155.06,421.53c4.41,3.44,6.7,10.89,4.93,15-.53-2.67-.91-5.35-1.62-7.93-.69-2.52-2.7-4.49-3.31-7.06Z"/>
      <path class="cls-16" d="m1074.07,477.92c-.87,3.47-2.56,6.45-5.58,9.06-.7-1.74.8-2.29,1.27-3.19.56-1.08,1.3-2.06,1.94-3.09.62-1.02,1.22-2.05,1.82-3.08.18.1.37.2.55.3Z"/>
      <path class="cls-16" d="m1056.26,497.05c.04-.78-.07-1.24.09-1.37,1.83-1.45,3.57-3.07,5.94-3.64-1.57,2.02-3.47,3.6-6.03,5.01Z"/>
      <path class="cls-16" d="m1043.66,501.51c1.93-.98,3.86-1.95,5.8-2.93.1.19.2.38.3.57-1.6,1.63-3.43,2.83-5.62,3.38-.16-.34-.31-.68-.47-1.01Z"/>
      <path class="cls-17" d="m1114.27,422.89c.78.07,1.48.01,2.12.2,8.46,2.41,16.91,4.85,25.36,7.31,1.65.48,1.81.81,1.36,2.76-1.18,5.09-2.38,10.18-3.64,15.25-2.6,10.48-5.24,20.94-7.88,31.41-.04.16-.16.3-.24.46-1.73.19-25.45-5.32-28.61-6.66-1.02-2.45-.36-4.96.07-7.41,2.04-11.61,5.71-22.8,8.95-34.1.86-3,1.64-6.03,2.5-9.2Zm15.96,56.21c4.92-15.74,7.83-31.48,11.77-47.08-8.96-3.1-17.63-5.9-26.43-7.62-.31.33-.4.39-.42.46-3.23,11.67-6.56,23.32-9.63,35.03-1.11,4.23-1.62,8.63-2.35,12.62,9.23,2.25,18.09,4.4,27.06,6.58Z"/>
      <path class="cls-4" d="m1118.14,485.46c-.9-.36-1.89-.76-2.88-1.15.03-.14.06-.28.09-.42.72-.05,1.44-.09,2.1-.14,1.44-3.23-.32-3.62-3.01-4.28-1.6-.39-2.35.45-2.68,2.95.82.42,1.68.87,2.73,1.41-1.83.61-3.06.34-3.79-.69-.77-1.08-.51-2.12.12-3.16,1.08-1.77,2.26-2.23,4.4-1.68,4.25,1.09,5.01,2.67,3.27,6.78-.03.07-.11.13-.35.38Z"/>
    </g>
    <g class="cls-19">
      <path class="cls-14" d="m420.09,167.45c-2.22.5-4.49.85-6.65,1.52-7.38,2.3-14.73,4.71-22.09,7.1-1.25.4-2.46.92-3.71,1.28-4.44,1.3-6.66,4.41-5.76,9.93.93,5.68,2.39,11.29,3.76,16.89,3.45,14.07,6.88,28.14,10.54,42.16.89,3.43,2.38,6.76,3.98,9.95,1.96,3.91,5.64,5.12,9.68,4.46,3.85-.63,7.59-1.9,11.39-2.85,3.69-.92,7.41-1.74,11.1-2.69,3.26-.84,6.66-1.43,9.7-2.79,4.13-1.85,5.83-4.66,5.09-9.07-1.41-8.46-3.93-16.62-5.86-24.94-2.53-10.92-5.15-21.83-7.81-32.72-.83-3.38-1.81-6.74-2.91-10.04-1.72-5.17-5.44-7.92-10.45-8.18Zm26.03,76.67c.26,2.23-1.54,5.21-3.72,6.18-2.08.93-4.23,1.8-6.43,2.35-4.75,1.19-9.57,2.09-14.32,3.25-3.7.9-7.36,1.97-11.03,3.02-3.68,1.05-8.25-.51-9.86-4.91-1.42-3.88-2.77-7.8-3.8-11.8-3.29-12.78-6.45-25.59-9.61-38.4-1.38-5.6-2.75-11.21-3.92-16.86-.96-4.62,1.68-7.18,5.11-8.22,6.06-1.83,12.11-3.68,18.16-5.54,3.75-1.15,7.46-2.45,11.24-3.49,5.18-1.43,9.33,1.64,10.64,5.77,1.35,4.26,2.8,8.5,3.87,12.84,3.88,15.76,7.62,31.56,11.43,47.34.69,2.84,1.49,5.65,2.24,8.48Z"/>
      <path class="cls-16" d="m358.37,200.78c-4.83-14.92-3.62-27.97,11.71-36.81-1.5-1.02-2.52-.32-3.46.23-4.15,2.44-7.39,5.75-9.47,10.13-3.32,6.97-4.14,14.17-1.86,21.6.55,1.8,1.54,3.48,2.33,5.21.25-.12.5-.24.75-.35Z"/>
      <path class="cls-16" d="m524.55,282.55c-4.79-1.5-8.89-3.5-14.11-2.83,3.1,2.04,6.42,1.64,9.19,2.87,2.68,1.2,5.29,2.53,8.2,3.54-2.96-7.19-6.09-14.15-7.48-21.78-1.98.67-1.45,1.77-1.18,2.6,1.33,4.15,2.74,8.27,4.14,12.39.31.92.7,1.82,1.25,3.2Z"/>
      <path class="cls-16" d="m372.69,172.82c-5.51,4.3-8.38,13.61-6.17,18.76.66-3.34,1.14-6.69,2.02-9.92.87-3.15,3.37-5.62,4.14-8.83Z"/>
      <path class="cls-16" d="m473.96,243.35c1.09,4.34,3.21,8.07,6.97,11.33.88-2.18-1-2.86-1.59-3.99-.7-1.35-1.63-2.57-2.43-3.87-.78-1.27-1.52-2.57-2.28-3.85-.23.12-.46.25-.69.38Z"/>
      <path class="cls-16" d="m496.24,267.27c-.05-.97.08-1.55-.12-1.71-2.29-1.81-4.46-3.84-7.43-4.56,1.96,2.53,4.34,4.5,7.54,6.27Z"/>
      <path class="cls-16" d="m512,272.84c-2.42-1.22-4.83-2.44-7.25-3.66-.12.24-.25.47-.37.71,2,2.03,4.29,3.54,7.03,4.22.2-.42.39-.85.59-1.27Z"/>
      <path class="cls-17" d="m423.69,174.53c-.97.08-1.86.02-2.65.24-10.58,3.02-21.15,6.06-31.71,9.15-2.06.6-2.26,1.01-1.69,3.45,1.47,6.37,2.98,12.73,4.55,19.07,3.25,13.1,6.56,26.19,9.85,39.28.05.2.19.38.29.57,2.16.24,31.82-6.65,35.78-8.33,1.28-3.06.45-6.2-.09-9.27-2.55-14.52-7.14-28.52-11.2-42.65-1.08-3.76-2.05-7.54-3.13-11.51Zm-19.96,70.3c-6.15-19.69-9.79-39.37-14.72-58.87,11.21-3.88,22.05-7.38,33.05-9.53.38.42.5.49.53.58,4.04,14.6,8.2,29.16,12.05,43.81,1.39,5.29,2.03,10.79,2.94,15.78-11.54,2.81-22.62,5.5-33.84,8.23Z"/>
      <path class="cls-4" d="m418.85,252.78c1.13-.45,2.36-.95,3.6-1.44-.04-.17-.08-.35-.12-.52-.9-.06-1.8-.12-2.63-.17-1.8-4.04.4-4.53,3.77-5.35,2-.48,2.94.57,3.36,3.69-1.02.53-2.1,1.09-3.41,1.77,2.29.76,3.83.42,4.74-.87.96-1.35.64-2.65-.15-3.95-1.35-2.21-2.83-2.79-5.51-2.11-5.31,1.36-6.27,3.34-4.09,8.48.04.09.14.16.44.47Z"/>
    </g>
    <path class="cls-7" d="m1145.01,707.55c-.5-.36-.95-.93-1.5-1.06-8.5-2.02-13.8-7.23-15.84-15.74-.05-.19-.23-.34-.47-.67-7.33,1.91-14.51,1.59-21.03-2.89-6.52-4.48-10.14-10.81-10.17-18.65-.03-7.33,1.88-14.37,8.12-19.03,5.97-4.45,12.95-5.8,20.54-4.55.22-1.44.48-2.65.59-3.87,1.44-15.4,9.92-25.4,24.15-30.48,15.2-5.43,28.77-1.97,40.51,8.87,3.19,2.95,5.49,6.61,7.18,10.66,1.54,3.69.99,3.41,4.93,3.53,9.31.29,17.23,3.64,23.09,11.11,7.63,9.71,6.18,24.23-3.57,32.37-2.08,1.74-4.48,3.11-6.83,4.48-.97.57-1.63,1.09-1.98,2.23-3.25,10.42-10.98,15.49-21.2,17.45-7.87,1.51-15.27.1-22.2-3.88-.26-.15-.58-.22-.66-.25-2.24,2.08-4.19,4.33-6.57,5.95-2.12,1.45-4.72,2.19-7.09,3.29-.63.29-1.18.75-1.77,1.13h-8.23Zm22.74-12.94c.74.42,1.28.7,1.8,1.02,7.17,4.37,14.86,5.88,23.04,3.83,8.98-2.25,16.07-6.84,18.61-16.43.39-1.49,1.37-2.14,2.61-2.88,2.62-1.54,5.35-3.05,7.53-5.11,8.01-7.56,9.56-18.39,3.62-27.54-5.72-8.8-14.41-12.2-24.62-12.29-1.01,0-2.03,0-2.95,0-5.52-17.08-20.96-26.78-37.29-25.11-21.77,2.24-33.23,14.87-33.73,37.09-.81-.17-1.42-.28-2.02-.42-9.22-2.14-19.32,1.59-23.6,9.27-6.28,11.27-3.28,25.14,8.98,31.38,5.37,2.73,10.96,2.59,16.63,1.08.85-.23,1.69-.47,2.7-.75.71,9.09,5.62,14.79,13.74,16.93,10.41,2.75,19.14-.31,24.95-10.06Z"/>
    <g class="cls-19">
      <path class="cls-10" d="m139.91,587.23c-2.74,3.55-5.55,7.48-8.65,11.17-10.02,11.94-20.14,23.8-30.22,35.69-1.34,1.58-2.65,3.19-3.88,4.86-.5.68-.85,1.53-1.07,2.36-.87,3.38-2.99,4.56-6.17,3.19-1.25-.54-2.44-1.32-3.49-2.18-6.25-5.15-12.36-10.46-18.69-15.51-6.55-5.23-13.29-10.21-19.94-15.31-5.32-4.08-10.66-8.15-15.92-12.3-1.3-1.03-2.38-2.35-3.49-3.61-.34-.38-.44-.97-.87-2,.9.35,1.42.38,1.65.66,3.94,4.81,9.16,8.06,14.04,11.73,12.93,9.71,25.94,19.33,37.98,30.17,2.56,2.31,5.39,4.32,8.15,6.4,1.19.9,2.53,1.54,4.37.5-21.54-19.14-43.8-37.15-65.81-55.59.58-.49.65-.58.74-.62.08-.04.19-.05.28-.05.1,0,.2-.01.29.02.18.06.38.13.54.24.24.17.46.37.69.56,21.18,17.73,42.36,35.47,63.37,53.07,3.53-4.35,7.18-8.95,10.94-13.47,10.81-12.96,21.66-25.88,32.49-38.82.31-.37.55-.8.87-1.28-21.81-17.41-43.53-34.75-65.34-52.17-1.66,1.78-3.17,3.33-4.6,4.94-6.28,7.1-12.58,14.18-18.8,21.33-6.87,7.89-13.65,15.85-20.48,23.77-1.6,1.85-1.6,4.13-1.76,6.36-.1,1.39-.02,2.8-.41,4.16-1.04-3.96-2.04-7.91,1.05-11.52,4.88-5.69,9.67-11.46,14.58-17.13,5.69-6.57,11.43-13.08,17.2-19.58,3.4-3.84,6.92-7.58,10.32-11.42.77-.87,1.27-1.98,2.08-3.29.41.22,1.12.48,1.69.93,8.33,6.66,16.62,13.35,24.95,20.01,7.23,5.79,14.42,11.63,21.75,17.28,5,3.85,10.22,7.41,15.32,11.13.79.58,1.93.8,1.65,2.43-.11.65,1.38,1.57,2.6,2.85Z"/>
      <path class="cls-10" d="m72.75,585.33c-3.47-1.87-6.48-3.5-9.48-5.12-.69-.37-1.41-.71-2.05-1.16-3.62-2.56-3.87-5.36-.82-8.61,2.1-2.24,4.87-1.79,6.19,1.02.28.59.37,1.26.58,1.99.85-.58,1.56-1.1,2.3-1.56,1.77-1.1,3.57-1.09,5.26.11,1.77,1.25,2.5,3.02,2.06,5.15-.65,3.14-2.62,5.6-4.04,8.18Zm-7.18-7.04c-.18-.85-.32-1.21-.33-1.56-.03-1.38.13-2.78-.06-4.13-.28-2.02-1.95-2.61-3.36-1.19-2.85,2.85-2.39,4.87.38,6.46,3.14,1.8,6.42,3.35,9.59,4.98,2.41-2.49,3.47-4.93,3.2-7.16-.35-2.93-2.78-4.06-5.08-2.21-1.11.9-1.83,2.28-2.77,3.4-.37.44-.86.78-1.58,1.42Z"/>
      <path class="cls-10" d="m60.29,605.28c-3.59-3.98-7.2-7.96-10.76-11.97-.44-.5-.7-1.19-.95-1.82-1.33-3.36.66-6.06,4.23-5.63,1.74.21,3.45.75,5.18,1.1.73.15,1.49.17,2.24.24.25.02.7-.02.73.06.69,2.37,3.01,2.37,4.71,2.91,1.66.54,2.13,1.41,2.24,3.31-2.71-1.22-5.25-2.35-8.06-3.61-1.51,2.52-3,5.02-4.44,7.44,1.91,2.8,4.87,4.41,5.7,7.48-.27.17-.54.34-.81.5Zm-1.73-16.41c-2.34-.58-4.1-1.2-5.92-1.42-2.44-.3-3.5,1.2-2.61,3.44.85,2.12,2.18,3.88,4.2,5.24,1.39-2.33,2.72-4.56,4.33-7.26Z"/>
      <path class="cls-10" d="m89.14,556.82c1.84,3.49,1.17,6.85-1.58,9.02-4.09,3.23-8.78,3.22-12.14.22-3.34-2.98-4.14-8.03-1.81-11.85,1.21-1.99,3.41-3,5.39-2.29-1.85,1.38-4.13,2.19-4.79,4.58-.23.85-.63,1.72-.57,2.56.09,1.15.4,2.34.88,3.39,1.4,3.07,4.67,4.78,7.73,4.2,4.69-.89,6.47-3.33,6.87-9.81Z"/>
    </g>
    <g class="cls-19">
      <path class="cls-10" d="m504.71,95.23c2.74,3.55,5.55,7.48,8.65,11.17,10.02,11.94,20.14,23.8,30.22,35.69,1.34,1.58,2.65,3.19,3.88,4.86.5.68.85,1.53,1.07,2.36.87,3.38,2.99,4.56,6.17,3.19,1.25-.54,2.44-1.32,3.49-2.18,6.25-5.15,12.36-10.46,18.69-15.51,6.55-5.23,13.29-10.21,19.94-15.31,5.32-4.08,10.66-8.15,15.92-12.3,1.3-1.03,2.38-2.35,3.49-3.61.34-.38.44-.97.87-2-.9.35-1.42.38-1.65.66-3.94,4.81-9.16,8.06-14.04,11.73-12.93,9.71-25.94,19.33-37.98,30.17-2.56,2.31-5.39,4.32-8.15,6.4-1.19.9-2.53,1.54-4.37.5,21.54-19.14,43.8-37.15,65.81-55.59-.58-.49-.65-.58-.74-.62-.08-.04-.19-.05-.28-.05-.1,0-.2-.01-.29.02-.18.06-.38.13-.54.24-.24.17-.46.37-.69.56-21.18,17.73-42.36,35.47-63.37,53.07-3.53-4.35-7.18-8.95-10.94-13.47-10.81-12.96-21.66-25.88-32.49-38.82-.31-.37-.55-.8-.87-1.28,21.81-17.41,43.53-34.75,65.34-52.17,1.66,1.78,3.17,3.33,4.6,4.94,6.28,7.1,12.58,14.18,18.8,21.33,6.87,7.89,13.65,15.85,20.48,23.77,1.6,1.85,1.6,4.13,1.76,6.36.1,1.39.02,2.8.41,4.16,1.04-3.96,2.04-7.91-1.05-11.52-4.88-5.69-9.67-11.46-14.58-17.13-5.69-6.57-11.43-13.08-17.2-19.58-3.4-3.84-6.92-7.58-10.32-11.42-.77-.87-1.27-1.98-2.08-3.29-.41.22-1.12.48-1.69.93-8.33,6.66-16.62,13.35-24.95,20.01-7.23,5.79-14.42,11.63-21.75,17.28-5,3.85-10.22,7.41-15.32,11.13-.79.58-1.93.8-1.65,2.43.11.65-1.38,1.57-2.6,2.85Z"/>
      <path class="cls-10" d="m571.87,93.33c3.47-1.87,6.48-3.5,9.48-5.12.69-.37,1.41-.71,2.05-1.16,3.62-2.56,3.87-5.36.82-8.61-2.1-2.24-4.87-1.79-6.19,1.02-.28.59-.37,1.26-.58,1.99-.85-.58-1.56-1.1-2.3-1.56-1.77-1.1-3.57-1.09-5.26.11-1.77,1.25-2.5,3.02-2.06,5.15.65,3.14,2.62,5.6,4.04,8.18Zm7.18-7.04c.18-.85.32-1.21.33-1.56.03-1.38-.13-2.78.06-4.13.28-2.02,1.95-2.61,3.36-1.19,2.85,2.85,2.39,4.87-.38,6.46-3.14,1.8-6.42,3.35-9.59,4.98-2.41-2.49-3.47-4.93-3.2-7.16.35-2.93,2.78-4.06,5.08-2.21,1.11.9,1.83,2.28,2.77,3.4.37.44.86.78,1.58,1.42Z"/>
      <path class="cls-10" d="m584.32,113.28c3.59-3.98,7.2-7.96,10.76-11.97.44-.5.7-1.19.95-1.82,1.33-3.36-.66-6.06-4.23-5.63-1.74.21-3.45.75-5.18,1.1-.73.15-1.49.17-2.24.24-.25.02-.7-.02-.73.06-.69,2.37-3.01,2.37-4.71,2.91-1.66.54-2.13,1.41-2.24,3.31,2.71-1.22,5.25-2.35,8.06-3.61,1.51,2.52,3,5.02,4.44,7.44-1.91,2.8-4.87,4.41-5.7,7.48.27.17.54.34.81.5Zm1.73-16.41c2.34-.58,4.1-1.2,5.92-1.42,2.44-.3,3.5,1.2,2.61,3.44-.85,2.12-2.18,3.88-4.2,5.24-1.39-2.33-2.72-4.56-4.33-7.26Z"/>
      <path class="cls-10" d="m555.47,64.82c-1.84,3.49-1.17,6.85,1.58,9.02,4.09,3.23,8.78,3.22,12.14.22,3.34-2.98,4.14-8.03,1.81-11.85-1.21-1.99-3.41-3-5.39-2.29,1.85,1.38,4.13,2.19,4.79,4.58.23.85.63,1.72.57,2.56-.09,1.15-.4,2.34-.88,3.39-1.4,3.07-4.67,4.78-7.73,4.2-4.69-.89-6.47-3.33-6.87-9.81Z"/>
    </g>
    <g class="cls-19">
      <path class="cls-4" d="m1320.61,612.36c.76,1.87,1.46,3.51,2.09,5.17.51,1.35.27,1.94-1,2.59-.63.32-1.32.54-2.01.72-3.61.94-7.23,1.84-10.85,2.78-.98.25-2.02.43-2.87.92-.72.4-1.36,1.12-1.77,1.85-.49.87.08,1.85,1.11,1.95.8.08,1.69.04,2.45-.23,4.2-1.45,8.38-2.96,12.55-4.51.82-.31,1.58-.82,2.32-1.3.88-.57,1.08-.98,1.25-2.24.89.56.86,1.27.32,1.92-.48.58-1.09,1.11-1.73,1.49-3.24,1.91-6.8,3.09-10.36,4.25-1.85.6-3.77,1.02-5.62,1.62-.37.12-.6.69-.89,1.06.06.13.11.26.17.39.61,0,1.25.13,1.82-.02,3.79-.96,7.57-1.96,11.34-3,.68-.19,1.31-.57,1.93-.91,1.73-.95,2.04-1.34,2.71-3.42.13.46.26.68.25.9-.01.99-.04,1.94.28,2.94.39,1.26-.38,2.31-1.36,3.07-.59.45-.78.91-.77,1.65.03,3.25-2.07,5.52-5.39,5.85-.77.08-1.55.06-2.32.04-2.57-.07-3.91-1.12-4.6-3.57-4.01-.4-5.49-1.87-4.83-4.79-2.03-1.77-2.17-2.28-.95-4.7.31-.62.29-1.06,0-1.65-.96-1.91-1.89-3.83-2.78-5.77-.32-.69-.66-1.2-1.51-1.3-4.51-.58-8.05-2.83-10.56-6.54-4.38-6.5-5.83-13.59-2.69-20.93,3-7,8.55-11.25,16.15-12.53,6.21-1.05,11.95.35,17,4.05,5.09,3.73,7.64,8.91,7.95,15.23.26,5.27-1.19,9.96-4.42,14.12-.76.98-1.59,1.9-2.4,2.86Zm-7.14-15.42c.37-.26.65-.49.95-.67,1.62-.99,2.74-.72,3.76.85.93,1.42.79,2.88-.07,4.19-1.07,1.63-2.28,3.18-3.53,4.68-1.05,1.26-1.65,2.59-1.4,4.24.15,1,.24,2,.46,2.98.58,2.57,1.22,5.12,1.85,7.75,2.26-.64,4.61-.77,6.65-2.36-.66-1.62-1.22-3.25-1.99-4.77-.63-1.24-.24-2.17.52-3.09.6-.73,1.28-1.4,1.85-2.16,3.8-5.07,4.9-10.79,3.49-16.87-2.18-9.37-10-14.45-18.96-14.96-6.36-.36-11.75,1.87-16.12,6.54-2.97,3.18-4.88,6.79-5.16,11.23-.23,3.69.25,7.26,1.72,10.62,1.68,3.82,4.09,7.14,8.1,8.83,1.77.75,3.7,1.14,5.65,1.72,1.23,2.57,2.53,5.28,3.85,8.04,1.79-.52,3.35-.98,5.11-1.5-1.22-3.14-2.34-6.19-3.58-9.2-1.18-2.88-3.06-5.18-5.79-6.78-1.02-.59-1.99-1.32-2.83-2.13-1.92-1.85-1.68-3.72.56-5.1,1.9-1.17,4.12-1.33,6.2-1.88.91-.24,1.98.11,3,.19,2.22-2.42,3.19-2.51,5.7-.4Zm1.16,24.21c-.74-3.21-1.39-6.09-2.08-8.96-.69-2.85-.27-5.37,1.92-7.51.97-.95,1.79-2.07,2.54-3.2.71-1.06,1.1-2.25.56-3.54-.44-1.05-1.19-1.46-2.09-1.16-1,.33-1.4,1.08-1.16,2.2.05.23.23.52.15.67-.24.43-.53.92-.93,1.13-.18.09-.84-.38-.99-.73-.16-.37-.09-.93.06-1.33.33-.85-.05-1.37-.66-1.83-1.25-.94-2.36-.48-3.04,1.22.42.5.98.94,1.22,1.51.19.47.2,1.25-.08,1.62-.28.38-1.07.66-1.53.54-.43-.11-.88-.73-1.03-1.22-.2-.65-.12-1.39-.17-2.1-1.13-.57-2.18-.88-3.41-.15.21.28.36.46.49.65.36.53.82,1.03,1.05,1.62.37.93-.02,1.73-.75,2.38-.74.65-1.76.85-2.47.47-.81-.43-.93-1.17-.87-1.98.06-.8.14-1.6.22-2.47-1.24.05-2.15.54-2.97,1.25-1.25,1.07-1.34,2.02-.11,3.13.87.79,1.86,1.48,2.86,2.11,2.59,1.62,4.58,3.77,5.82,6.55.98,2.22,1.82,4.5,2.7,6.76.42,1.09.78,2.21,1.2,3.4,1.26-.35,2.38-.67,3.57-1Zm-8.51,10.86c.77,1.32,1.98,1.35,3.13,1.22,3.65-.42,7.28-.98,10.72-2.34.96-.38,1.84-1.06,2.64-1.73.76-.64.95-1.53.64-2.61-5.24,3.37-11.18,4.05-17.13,5.46Zm4.46,2.24c.22,1.31.91,1.94,1.8,2.34,2.19,1,5.82.41,7.53-1.29,1.02-1.02,1.69-2.23,1.34-3.62-3.59.86-7.07,1.7-10.66,2.56Zm-7.73-35.04c-.69,1.1-.71,2.14-.45,3.25,1.02.31,1.73.06,2.09-.84.35-.87-.26-1.77-1.64-2.41Zm5.56-.05c-.05.54-.15.79-.08.97.12.28.33.54.55.76.04.04.42-.13.42-.19,0-.31-.05-.64-.17-.93-.08-.18-.32-.28-.72-.61Z"/>
      <path class="cls-4" d="m1299.16,555.74c.74,4.46,1.45,8.73,2.15,13-.93-.79-1.08-1.84-1.29-2.84-.53-2.55-.99-5.11-1.44-7.68-.15-.84-.31-1.74.57-2.49Z"/>
      <path class="cls-4" d="m1274.28,591.45c-3.32-.54-6.63-1.08-10.01-1.63.08-.81.76-.74,1.29-.68,1.64.19,3.27.45,4.9.72.76.13,1.51.3,2.24.52.59.18,1.14.46,1.71.7-.04.12-.08.25-.12.37Z"/>
      <path class="cls-4" d="m1280.06,608.26c-1.61,2.82-5.2,6.57-6.46,6.89.36-1.26,4.16-5.39,6.46-6.89Z"/>
      <path class="cls-4" d="m1276.78,569.66c2.27.04,6.56,3.05,7.64,5.32-2.44-1.7-4.89-3.4-7.64-5.32Z"/>
    </g>
    <g class="cls-19">
      <path class="cls-3" d="m872.57,694.59c-.46.6-.92,1.19-1.38,1.79-.27-.17-.54-.33-.81-.5,1.4-2.6,2.72-5.25,4.22-7.8,5.73-9.73,11.71-19.33,17.24-29.17,6.51-11.6,12.64-23.4,18.94-35.11.53-.98,1.07-1.95,1.61-2.92,9.33.23,18.42.77,27.73,3.22,2.2,10.55,4.25,21.09,6.61,31.56,3.25,14.42,6.71,28.79,10.17,43.17.61,2.55,1.7,4.98,2.46,7.5.57,1.88.97,3.81,1.43,5.68-7.91-1.73-15.55-3.4-23.2-5.07-.24-.05-.5-.04-.75-.06-5.66-.56-8.91-3.7-10.45-9.13-.99-3.47-2.58-6.77-3.96-10.28-3.89-.6-7.83-1.21-11.86-1.84-2.97,4.84-5.83,9.51-8.78,14.32.63.53,1.17.98,1.92,1.62-.57.18-1.02.48-1.42.42-4.59-.64-9.2-1.23-13.77-2.05-4.3-.77-8.57-1.77-12.83-2.73-1.47-.33-3-.73-3.19-2.64,8.01,1.57,16.01,3.14,24,4.7,2.68.52,3.16.28,4.56-1.99,1.92-3.1,3.83-6.2,5.87-9.22.98-1.46,2-2.8.51-5.27,6.45,1.24,12.12,2.32,17.35,3.33,1.06,6.6,4.4,11.85,5.35,17.33,9.65,2.02,18.75,3.93,28.07,5.88-1.3-4.15-2.67-7.92-3.66-11.8-2.53-9.96-5.04-19.94-7.27-29.97-2.45-11.01-5.33-21.94-6.61-33.2-.24-2.08-1.18-4.08-1.81-6.11-.71-2.27-2.13-3.51-4.65-3.57-1.74-.04-3.47-.52-5.22-.69-5.22-.51-10.43-1.61-15.6-.69-1.51,2.79-3.03,5.4-4.37,8.1-9.01,18.27-19.66,35.62-29.97,53.16-2.02,3.44-4.33,6.71-6.51,10.06Z"/>
      <path class="cls-3" d="m964.86,670.69c-2.28.18-4.48.35-6.86.54-.7-3.81-1.81-7.52-.7-11.14h7.66c.25-3.09.47-5.9.7-8.85,3.96-.09,7.56-1,11.19.71v6.29c3.34.35,6.52.69,9.88,1.05v8.69c-3.1.22-6.04.43-9.24.65-.28,2.41-.64,4.61-.75,6.82-.09,1.91-1.01,2.68-2.81,2.77-2.57.13-5.13.33-7.92.52-.41-2.84-.76-5.29-1.16-8.06Zm-5.69-1.64h8.01c0,1.96-.07,3.58.02,5.2.1,1.96.89,2.72,2.84,2.56,1.73-.14,3.44-.56,5.58-.94v-8.83c3.24-.28,6.05-.52,9.01-.77v-5.67h-9.67c-.12-2.77-.23-5.19-.34-7.83-2.62.15-4.83.27-7.22.4v8.1c-2.8.48-5.47.94-8.22,1.42v6.37Z"/>
      <path class="cls-3" d="m925.09,643.31c1.6,8.91,3.04,16.9,4.57,25.45-7.4-1.2-14.41-2.5-21.31-5.06,3.32.12,4.39-2.27,5.75-4.45,2.78-4.48,5.65-8.9,8.52-13.32.46-.7,1.15-1.24,2.47-2.63Zm-11.43,20.38c4.85.63,8.82,2.09,13.5,2.43-1.08-6.28-2.07-11.99-3.22-18.65-4.16,5.46-6.85,10.74-10.28,16.22Z"/>
    </g>
  </g>
</svg>