<svg xmlns="http://www.w3.org/2000/svg" xmlns:xlink="http://www.w3.org/1999/xlink" viewBox="0 0 500 309.2"><defs><style>.cls-1{fill:none;}.cls-2{isolation:isolate;}.cls-3{fill:url(#Gradiente_sem_nome_3);}.cls-4{clip-path:url(#clip-path);}.cls-5{fill:url(#linear-gradient);}.cls-6{clip-path:url(#clip-path-2);}.cls-43,.cls-58,.cls-7{mix-blend-mode:soft-light;}.cls-7{opacity:0.8;}.cls-8{fill:#fcfdfe;}.cls-9{clip-path:url(#clip-path-3);}.cls-10{fill:url(#linear-gradient-2);}.cls-11{fill:url(#linear-gradient-3);}.cls-12{fill:#26264f;}.cls-13{fill:url(#linear-gradient-4);}.cls-14{fill:url(#linear-gradient-5);}.cls-15{fill:url(#linear-gradient-6);}.cls-16{fill:url(#linear-gradient-7);}.cls-17{fill:url(#linear-gradient-8);}.cls-18{fill:url(#linear-gradient-9);}.cls-19{fill:url(#linear-gradient-10);}.cls-20,.cls-30,.cls-44,.cls-53{mix-blend-mode:multiply;opacity:0.3;}.cls-20{fill:url(#linear-gradient-11);}.cls-21{fill:url(#linear-gradient-12);}.cls-22{fill:url(#linear-gradient-13);}.cls-23{fill:url(#linear-gradient-14);}.cls-24{fill:url(#linear-gradient-15);}.cls-25{fill:url(#linear-gradient-16);}.cls-26{fill:url(#linear-gradient-17);}.cls-27{fill:url(#linear-gradient-18);}.cls-28{fill:url(#linear-gradient-19);}.cls-29{fill:url(#linear-gradient-20);}.cls-30{fill:url(#linear-gradient-21);}.cls-31{fill:#d8dee8;}.cls-32{fill:url(#linear-gradient-22);}.cls-33{fill:#f4f7fa;}.cls-34{fill:url(#linear-gradient-23);}.cls-35{fill:url(#linear-gradient-24);}.cls-36{fill:url(#linear-gradient-25);}.cls-37{fill:url(#linear-gradient-26);}.cls-38{fill:url(#linear-gradient-27);}.cls-39{fill:url(#linear-gradient-28);}.cls-40{fill:url(#linear-gradient-29);}.cls-41{fill:url(#linear-gradient-30);}.cls-42{fill:url(#linear-gradient-31);}.cls-43,.cls-57,.cls-58{fill:#fff;}.cls-43{opacity:0.5;}.cls-44{fill:url(#linear-gradient-32);}.cls-45{fill:url(#linear-gradient-33);}.cls-46{fill:url(#linear-gradient-34);}.cls-47{fill:url(#linear-gradient-35);}.cls-48{fill:url(#linear-gradient-36);}.cls-49{fill:url(#linear-gradient-37);}.cls-50{fill:url(#linear-gradient-38);}.cls-51{fill:url(#linear-gradient-39);}.cls-52{fill:url(#linear-gradient-40);}.cls-53{fill:url(#linear-gradient-41);}.cls-54{fill:url(#linear-gradient-42);}.cls-55{fill:url(#linear-gradient-43);}.cls-56{fill:url(#linear-gradient-44);}.cls-58{opacity:0.6;}</style><linearGradient id="Gradiente_sem_nome_3" y1="150" x2="500" y2="150" gradientUnits="userSpaceOnUse"><stop offset="0" stop-color="#e38ddd"/><stop offset="1" stop-color="#562eff"/></linearGradient><clipPath id="clip-path"><rect id="SVGID" class="cls-1" x="209.22" y="89.82" width="187.88" height="206.59"/></clipPath><linearGradient id="linear-gradient" x1="-8010.83" y1="-5724.51" x2="-7947.16" y2="-5317.46" gradientTransform="matrix(-0.58, -0.81, -0.81, 0.58, -8918.66, -2962.36)" gradientUnits="userSpaceOnUse"><stop offset="0" stop-color="#e38ddd"/><stop offset="1" stop-color="#9571f6"/></linearGradient><clipPath id="clip-path-2"><path id="SVGID-2" data-name="SVGID" class="cls-1" d="M212.66,279.36c0,16-.63,32.32-.69,48.46,8.44,3.5,18.45,7.42,23.82-2.61,7.46-14,35-11.35,47.28-7.71,15.15,4.5,48.81,11.18,48.76-12.06,0-19.35-7.73-31.26,15.44-36s35.89-17.37,32.69-38.78c-3.36-22.53,24.17-42.66,9.44-61.12-25.68-32.17-68.48,16.31-76.32,47.9s-22.56,19.44-44.4,19.09c-29.82-.47-14.82,32-28.71,40.89C229.09,284.36,223.48,280.64,212.66,279.36Z"/></clipPath><clipPath id="clip-path-3"><path id="SVGID-3" data-name="SVGID" class="cls-1" d="M282.5,353.88q-17.58-2.58-35.12-6c-.19.17-4-25.31,8.07-38.67,23.93-25.89,7.81-49.12,3.21-62.89-7.36-19.41-3.58-43,17.8-38.58,20.83,3.8,24-39.08,20.39-72.12-3.07-16.08,12.11-35.59,27.25-40,15.45-4.94,30.88,5.17,35.6,37.22,7.16,37.11-19.93,59.49-29.95,78.1-9.87,18.26,13.08,33-5.39,49.22-15.54,14.38-35.13,24.72-28,42.78C303.76,320.77,302,335.37,282.5,353.88Z"/></clipPath><linearGradient id="linear-gradient-2" x1="-4869.05" y1="-2786.89" x2="-4953.22" y2="-2547.67" gradientTransform="matrix(-0.87, -0.5, -0.5, 0.87, -5286.03, 95.31)" gradientUnits="userSpaceOnUse"><stop offset="0" stop-color="#ffc444"/><stop offset="1" stop-color="#f36f56"/></linearGradient><linearGradient id="linear-gradient-3" x1="344.55" y1="37.51" x2="268.27" y2="33.76" gradientTransform="matrix(1, 0, 0, 1, 0, 0)" xlink:href="#linear-gradient-2"/><linearGradient id="linear-gradient-4" x1="-1481.84" y1="-1072.75" x2="-1479.23" y2="-1064.77" gradientTransform="translate(-33.81 1863.47) rotate(63.64)" xlink:href="#linear-gradient-2"/><linearGradient id="linear-gradient-5" x1="-1514.33" y1="-985.96" x2="-1483.53" y2="-1057.13" gradientTransform="translate(-33.81 1863.47) rotate(63.64)" gradientUnits="userSpaceOnUse"><stop offset="0" stop-color="#ff9085"/><stop offset="1" stop-color="#fb6fbb"/></linearGradient><linearGradient id="linear-gradient-6" x1="-4796.75" y1="426.51" x2="-4790.59" y2="426.51" gradientTransform="matrix(-1, 0.09, 0.09, 1, -4595.56, 156.52)" gradientUnits="userSpaceOnUse"><stop offset="0" stop-color="#444b8c"/><stop offset="1" stop-color="#26264f"/></linearGradient><linearGradient id="linear-gradient-7" x1="-5257.25" y1="331.23" x2="-5254.55" y2="325.64" gradientTransform="matrix(-1, 0.07, 0.07, 1, -5050.87, 185.72)" xlink:href="#linear-gradient-2"/><linearGradient id="linear-gradient-8" x1="-5014.96" y1="715.84" x2="-5008.42" y2="715.84" gradientTransform="matrix(-0.98, 0.21, 0.21, 0.98, -4810.82, 520.74)" xlink:href="#linear-gradient-6"/><linearGradient id="linear-gradient-9" x1="-5176.87" y1="531.1" x2="-5174.11" y2="525.4" gradientTransform="matrix(-0.99, 0.15, 0.15, 0.99, -4961.64, 377.95)" xlink:href="#linear-gradient-2"/><linearGradient id="linear-gradient-10" x1="568.32" y1="-61.35" x2="550.88" y2="-100.67" gradientTransform="translate(-330.9 170.66) rotate(3.06)" gradientUnits="userSpaceOnUse"><stop offset="0" stop-color="#311944"/><stop offset="1" stop-color="#893976"/></linearGradient><linearGradient id="linear-gradient-11" x1="565.62" y1="-60.15" x2="548.18" y2="-99.47" xlink:href="#linear-gradient-10"/><linearGradient id="linear-gradient-12" x1="262.98" y1="322.24" x2="245.54" y2="282.93" gradientTransform="translate(-54.62 -161.35) rotate(-3.98)" xlink:href="#linear-gradient-10"/><linearGradient id="linear-gradient-13" x1="206.65" y1="96.55" x2="233.31" y2="34.93" gradientTransform="matrix(1, 0, 0, 1, 0, 0)" xlink:href="#linear-gradient-5"/><linearGradient id="linear-gradient-14" x1="507.75" y1="-1592.42" x2="508.44" y2="-1610.71" gradientTransform="translate(-950.33 1255.06) rotate(26.56)" xlink:href="#linear-gradient-2"/><linearGradient id="linear-gradient-15" x1="-5711.86" y1="-302.33" x2="-5716.51" y2="-314.15" gradientTransform="matrix(-1, -0.05, -0.05, 1, -5503.3, 71.56)" gradientUnits="userSpaceOnUse"><stop offset="0" stop-color="#311944"/><stop offset="1" stop-color="#6b3976"/></linearGradient><linearGradient id="linear-gradient-16" x1="-77.36" y1="-142.38" x2="-77.58" y2="-125.13" gradientTransform="matrix(1, -0.01, 0.01, 1, 300.2, 186.05)" xlink:href="#linear-gradient-2"/><linearGradient id="linear-gradient-17" x1="-5713.28" y1="-301.76" x2="-5717.94" y2="-313.6" xlink:href="#linear-gradient-15"/><linearGradient id="linear-gradient-18" x1="-5717.84" y1="-308.89" x2="-5717.59" y2="-306.73" gradientTransform="matrix(-1, -0.05, -0.05, 1, -5503.3, 71.56)" gradientUnits="userSpaceOnUse"><stop offset="0" stop-color="#ffc444"/><stop offset="1" stop-color="#f36f56"/></linearGradient><linearGradient id="linear-gradient-19" x1="203.57" y1="83.76" x2="204.81" y2="87.54" gradientTransform="matrix(1, 0, 0, 1, 0, 0)" xlink:href="#linear-gradient-2"/><linearGradient id="linear-gradient-20" x1="186.22" y1="87.71" x2="212.88" y2="26.09" gradientTransform="matrix(1, 0, 0, 1, 0, 0)" xlink:href="#linear-gradient-5"/><linearGradient id="linear-gradient-21" x1="211.55" y1="98.67" x2="238.22" y2="37.06" gradientTransform="matrix(1, 0, 0, 1, 0, 0)" xlink:href="#linear-gradient-5"/><linearGradient id="linear-gradient-22" x1="1804.66" y1="174.46" x2="1893.87" y2="175.43" gradientTransform="translate(-1675.05)" gradientUnits="userSpaceOnUse"><stop offset="0" stop-color="#aa80f9"/><stop offset="1" stop-color="#6165d7"/></linearGradient><linearGradient id="linear-gradient-23" x1="997.44" y1="67.29" x2="757.11" y2="44.96" xlink:href="#linear-gradient-22"/><linearGradient id="linear-gradient-24" x1="1000.83" y1="105.51" x2="762.04" y2="83.31" xlink:href="#linear-gradient-22"/><linearGradient id="linear-gradient-25" x1="1859.4" y1="182.17" x2="1834.11" y2="267.38" gradientTransform="translate(-1675.05)" gradientUnits="userSpaceOnUse"><stop offset="0" stop-color="#40447e"/><stop offset="1" stop-color="#3c3b6b"/></linearGradient><linearGradient id="linear-gradient-26" x1="1872.81" y1="210.25" x2="2010.77" y2="210.25" xlink:href="#linear-gradient-25"/><linearGradient id="linear-gradient-27" x1="1862.32" y1="241.91" x2="1832.23" y2="343.28" xlink:href="#linear-gradient-25"/><linearGradient id="linear-gradient-28" x1="199.67" y1="279.17" x2="335.61" y2="279.17" gradientTransform="matrix(1, 0, 0, 1, 0, 0)" xlink:href="#linear-gradient-25"/><linearGradient id="linear-gradient-29" x1="1805.51" y1="241.55" x2="1894.35" y2="242.52" gradientTransform="translate(-1675.05)" xlink:href="#linear-gradient-2"/><linearGradient id="linear-gradient-30" x1="1004.83" y1="140.74" x2="766.29" y2="118.57" gradientTransform="translate(-1675.05)" xlink:href="#linear-gradient-2"/><linearGradient id="linear-gradient-31" x1="-672.68" y1="167.46" x2="-911.21" y2="145.3" gradientTransform="matrix(1, 0, 0, 1, 0, 0)" xlink:href="#linear-gradient-2"/><linearGradient id="linear-gradient-32" x1="1834.59" y1="263.85" x2="1828.36" y2="254.63" gradientTransform="translate(-1675.05)" xlink:href="#linear-gradient-2"/><linearGradient id="linear-gradient-33" x1="158.15" y1="269.1" x2="172.43" y2="316.53" gradientTransform="matrix(1, 0, 0, 1, 0, 0)" xlink:href="#linear-gradient"/><linearGradient id="linear-gradient-34" x1="102.9" y1="235.48" x2="155.74" y2="235.48" gradientTransform="matrix(1, 0, 0, 1, 0, 0)" xlink:href="#linear-gradient-22"/><linearGradient id="linear-gradient-35" x1="147.12" y1="184.36" x2="180.96" y2="184.36" gradientTransform="matrix(1, 0, 0, 1, 0, 0)" xlink:href="#linear-gradient-22"/><linearGradient id="linear-gradient-36" x1="137.97" y1="209.44" x2="171.8" y2="209.44" gradientTransform="matrix(1, 0, 0, 1, 0, 0)" xlink:href="#linear-gradient-22"/><linearGradient id="linear-gradient-37" x1="128.81" y1="234.91" x2="162.65" y2="234.91" gradientTransform="matrix(1, 0, 0, 1, 0, 0)" xlink:href="#linear-gradient-22"/><linearGradient id="linear-gradient-38" x1="119.26" y1="261.19" x2="153.09" y2="261.19" gradientTransform="matrix(1, 0, 0, 1, 0, 0)" xlink:href="#linear-gradient-22"/><linearGradient id="linear-gradient-39" x1="110.1" y1="286.26" x2="143.94" y2="286.26" gradientTransform="matrix(1, 0, 0, 1, 0, 0)" xlink:href="#linear-gradient-22"/><linearGradient id="linear-gradient-40" x1="133.3" y1="236.91" x2="187.88" y2="236.91" gradientTransform="matrix(1, 0, 0, 1, 0, 0)" xlink:href="#linear-gradient-22"/><linearGradient id="linear-gradient-41" x1="289.53" y1="265.32" x2="335.6" y2="265.32" gradientTransform="matrix(1, 0, 0, 1, 0, 0)" xlink:href="#linear-gradient-25"/><linearGradient id="linear-gradient-42" x1="293.51" y1="270.33" x2="366.03" y2="270.33" gradientTransform="translate(57.07 -57.48) rotate(10.9)" xlink:href="#linear-gradient-6"/><linearGradient id="linear-gradient-43" x1="337.94" y1="248.98" x2="323.04" y2="300.02" gradientTransform="matrix(1, 0, 0, 1, 0, 0)" xlink:href="#linear-gradient-22"/><linearGradient id="linear-gradient-44" x1="298.75" y1="267.59" x2="366.26" y2="267.59" gradientTransform="matrix(1, 0, 0, 1, 0, 0)" xlink:href="#linear-gradient-22"/></defs><g class="cls-2"><g id="Camada_2" data-name="Camada 2"><g id="Camada_4" data-name="Camada 4"><rect class="cls-3" width="500" height="300"/><g class="cls-4"><path class="cls-5" d="M230.56,327.44c-2.11-1-5.82-5-6.35-6.46-3.55-9.63-11.37-27.23-7.43-37.35.67-1.72,9.07-.81,10.69-2.07,5.5-.72,7.45-.63,12.33-3.88,14.43-9.59-1.11-41.39,28.85-41.11,22,.21,36.56,12.52,44.43-19.11s50.63-80.06,76.32-47.91c14.74,18.45-12.81,38.6-9.44,61.12,3.2,21.41-9.53,34.06-32.7,38.79s-15.45,16.62-15.43,36c0,23.26-33.56,16.52-48.8,12.08C270.76,313.94,237.1,313.12,230.56,327.44Z"/><g class="cls-6"><g class="cls-7"><path class="cls-8" d="M220.47,303.23l-.05-.39A186.72,186.72,0,0,0,276,285.93a193.78,193.78,0,0,0,46.58-31.86c27.43-25.25,48.6-58.7,61.21-96.72l.38.12c-12.64,38.09-33.84,71.6-61.32,96.89a194.07,194.07,0,0,1-46.67,31.93A187.48,187.48,0,0,1,220.47,303.23Z"/><path class="cls-8" d="M333,315.07c-16.88-12.31-48.41-22.69-70.28-23.16v-.4c21.94.47,53.57,10.89,70.5,23.24Z"/><path class="cls-8" d="M235.27,301l-.16-.36c10.39-4.66,18-14.39,22.69-28.91,3.42-10.65,5.2-23.58,5.29-38.43h.4c-.09,14.9-1.88,27.87-5.31,38.55C253.48,286.46,245.77,296.27,235.27,301Z"/><path class="cls-8" d="M326.59,250.61l-.18-.36c19.09-9.76,41.45-6.79,56.84-2.58l-.11.38C367.82,243.86,345.57,240.9,326.59,250.61Z"/><path class="cls-8" d="M357.84,212.75l-.37-.15c3.9-9.62,8.79-30.15-2.35-59.52l.37-.14a104.48,104.48,0,0,1,6.69,29.83C362.89,193.82,361.43,203.91,357.84,212.75Z"/></g></g><g class="cls-9"><path class="cls-10" d="M282.5,353.88q-17.58-2.58-35.12-6c-.19.17-4-25.31,8.07-38.67,23.93-25.89,7.81-49.12,3.21-62.89-7.28-19.4-3.45-40.4,16.29-40.71,21.9-.78,25.87-37,21.9-70-3.07-16.08,12.11-35.59,27.25-40,15.45-4.94,30.88,5.17,35.6,37.22,7.16,37.11-19.93,59.49-29.95,78.1-9.87,18.26,13.08,33-5.39,49.22-15.54,14.38-35.13,24.72-28,42.78C303.76,320.77,302,335.37,282.5,353.88Z"/><g class="cls-7"><path class="cls-8" d="M266.78,355.39h-.39c0-.23,11.19-53.82,30.51-106,2.67-8.45,5.57-17,8.37-25.21,7.5-22.07,15.26-44.88,19-67.6,4.12-25.4,2.65-48.27-4.49-69.93l.38-.13c7.16,21.72,8.63,44.66,4.5,70.12-3.69,22.75-11.45,45.59-19,67.67-2.8,8.23-5.69,16.75-8.36,25.21C278,301.51,266.81,355.09,266.78,355.39Z"/><path class="cls-8" d="M319.22,181.51l-.3-.27C332,166.72,347.76,146.09,356.23,135c6.61-8.65,6.84-8.89,7.1-8.85l-.06.39,0-.19.07.18c-.33.21-3.19,4-6.82,8.71C348.07,146.33,332.3,167,319.22,181.51Z"/><path class="cls-8" d="M323.23,161.62c-2.7-16.68-9.58-27.64-14.86-33.9-5.89-7-11.2-9.91-11.73-10a.09.09,0,0,0,.08,0l-.22-.33c.11-.07.24-.05.54.08,1.45.63,6.85,4,12.51,11,7.14,8.88,12,20.3,14.08,33Z"/><path class="cls-8" d="M285.8,283.51l-.39-.05c1.84-15.49-1.77-32.15-10.73-49.52A143.73,143.73,0,0,0,257,207.57c-.49-.59-.69-.83-.75-.93l.34-.2c0,.08.34.43.71.87A143.73,143.73,0,0,1,275,233.76C284,251.2,287.66,267.94,285.8,283.51Z"/><path class="cls-8" d="M291.09,267.19l-.34-.21c14.05-22.69,43.65-24.27,43.9-24.19l.15.19-.14.19-.06-.18,0,.19h0C334.06,243.18,305,244.7,291.09,267.19Zm43.45-24.39.06.18Z"/><path class="cls-8" d="M271.72,333.94l-.38-.11c1.48-5.12,7.32-15.15,29.78-24.82l.58-.26.19.36-.61.26C279,319,273.18,328.89,271.72,333.94Z"/></g></g></g><path class="cls-11" d="M267.84,12.23c12.89-5.43,25.17-4,31.31-1.66,7.25,2.73,9.66,4.78,16.08,5.81,5.7.92,11.63-5,16.07-.83a7.37,7.37,0,0,1,1.09,1.24c3.18,4.69-.58,10.35.46,20.23.53,5.06,1.82,6.46,3,16.18.45,3.69.35,4.24.23,4.67-2,6.55-17.41,5.31-28.29,2.49-15-3.91-19.84-10.45-29.69-7.47a25.92,25.92,0,0,0-10.2,6.22C268.92,43.55,266.84,27.79,267.84,12.23Z"/><path class="cls-12" d="M268,158.22a.6.6,0,0,1-.6-.61V7.61a.61.61,0,1,1,1.21,0v150A.61.61,0,0,1,268,158.22Z"/><path class="cls-13" d="M265.34,63.25l1.09-1.51a2,2,0,0,1,.14-1.38l.36-.58a1.33,1.33,0,0,1,1.34-.13.65.65,0,0,0,.59-.07c.52-.36.66.63.66.63a.65.65,0,0,1,0,.82,1.27,1.27,0,0,1-.47.85,13.16,13.16,0,0,1-1.54.77l-1.22,1.45Z"/><path class="cls-14" d="M265.17,61.65c-7.76,3.09-12.74,1.88-15.06,1a28.66,28.66,0,0,1-5.71-3.1c-3.94-2.84-5.49-5.66-9.38-6.27a8.56,8.56,0,0,0-2.11-.08c-5.61.49-11.86,7.92-11.06,12.86,1.4,8.56,25.23,17.37,38.32,7.84a21.82,21.82,0,0,0,7.39-10.2Z"/><path class="cls-15" d="M214.51,150.14c-.32.29-.34,1-.35,1.43a1.28,1.28,0,0,0,0,.37c.2.5,1.19.49,2.76.56,2.49.1,3.23.25,3.4-.13s-.31-.89-.36-1a2.28,2.28,0,0,0-1.26-.59c-1.19-.31-2-.47-2.23-.52C215,150,214.72,150,214.51,150.14Z"/><path class="cls-16" d="M216.25,147.67l.09,2.82a1.5,1.5,0,0,1-1.57.11l-.49-2.8Z"/><path class="cls-17" d="M235.41,150.18a1.39,1.39,0,0,0-.24,1.66c.33.41.86.14,2.32.27s2,.52,3,.28c.44-.09,1.22-.34,1.22-.65s-.38-.35-1.66-.86a17.65,17.65,0,0,0-2.18-.83C237,149.84,236,149.62,235.41,150.18Z"/><path class="cls-18" d="M236.55,147.67l.65,2.66a1.52,1.52,0,0,1-1.57.23l-1-2.61Z"/><path class="cls-19" d="M232.61,89.82a245.52,245.52,0,0,0,4.66,58.65l-3.06.65a25.53,25.53,0,0,1-6.72-11.81c-.79-3.34-.38-5-.78-9.09-.63-6.49-2.42-10-4.18-15.27A85,85,0,0,1,218.47,92Z"/><path class="cls-20" d="M231.2,131.07c-1.12-4.46-3.29-5.63-3.37-9.84-.05-3,1-3.21.95-6.06-.11-4.31-2.64-6.57-3.91-9.29s-1.85-7.47,1.76-15.13L218.47,92A85,85,0,0,0,222.53,113c1.76,5.3,3.55,8.78,4.18,15.27.4,4.08,0,5.75.78,9.09a25.53,25.53,0,0,0,6.72,11.81L235,149a15.11,15.11,0,0,1-3.78-8.2C230.82,137.07,232.33,135.55,231.2,131.07Z"/><path class="cls-21" d="M222.41,89.27q-1.83,16.77-3.34,34.19-1.12,13.06-2,25.8l-3.1.22a35.63,35.63,0,0,1-2.78-8.47c-.86-4.46-.47-7.06-.71-11.65-.26-5.15-1-6.3-2-12.83-2.12-13.25-3.18-19.88.18-23.78C209.7,91.48,213.08,88.33,222.41,89.27Z"/><path class="cls-22" d="M195.61,54.5a67.09,67.09,0,0,1,39.9-1.13c.56,3.11,1.11,6.23,1.67,9.34A110.78,110.78,0,0,1,237,75.05c-.35,5-.69,5.07-1.5,12.13-1.31,11.49-.76,14.49-3.07,15.88-1.5.89-2.05-.19-9.71-1-5.15-.51-7.77-.75-10.37.13-3.55,1.2-4.74,3.22-6.2,2.56s-1.58-3-1.75-7.27c-.26-6.51-.25-10.94-.27-12.52-.11-7.28-1.95-12.83-4.31-19.94A97.23,97.23,0,0,0,195.61,54.5Z"/><path class="cls-23" d="M219.47,43.73a22.41,22.41,0,0,1-.61,4.25,3.28,3.28,0,0,1-.68,1.64c-.32.34-.8.61-3.45,1.12-1.45.28-1.63.26-1.67.4-.19.68,3.57,3.24,7.62,2.89,2.47-.22,4.78-1.5,4.68-2.24s-2.57-.48-3.23-1.86c-.46-1,.18-2.25.91-3.31C222.46,45.36,220.05,45,219.47,43.73Z"/><path class="cls-24" d="M224,44.7a2.58,2.58,0,0,0,.1-3,2.81,2.81,0,0,0-2-1c-1.56-.26-3.58.29-4.34,1.69-.46.84.33,2.66.45,3s.42.51.67.8.88,1,1.75,2.09a6.18,6.18,0,0,1,.42-1,5.38,5.38,0,0,1,.81-1.21C222.75,45.08,223.4,45.4,224,44.7Z"/><path class="cls-25" d="M219.37,47.37a3.5,3.5,0,0,0,3,1.72c1.84,0,2.33-4.13,1.2-5.07a2.34,2.34,0,0,0-1.8-.33,10.27,10.27,0,0,1-1.15.36c-.58.12-.73.05-.91.19s-.41.6-.12,1.83a1,1,0,0,0-1-.41.56.56,0,0,0-.25.23C218,46.34,218.41,47,219.37,47.37Z"/><path class="cls-26" d="M219.65,44c.08.08-.21.39-.25.86A2.24,2.24,0,0,0,221.11,47c.55.08.72-.24,1.64-.29a4.18,4.18,0,0,1,1.33.15,2.2,2.2,0,0,1-.78,2.42,2.36,2.36,0,0,1-2,0,2.61,2.61,0,0,1-1.44-1.19c-.41-.81,0-1.26-.43-1.82a4,4,0,0,1-.88-.95,2.18,2.18,0,0,1-.17-.36C218.86,44.48,219.52,43.88,219.65,44Z"/><path class="cls-27" d="M223.4,47.22a2.21,2.21,0,0,1-1.1.11l-.07,0a.83.83,0,0,0,.82.29c.29-.06.53-.32.49-.4S223.46,47.21,223.4,47.22Z"/><path class="cls-28" d="M200.76,85l1.85-.1s2-1.7,2.95-1.59a7.65,7.65,0,0,1,2.48.88c.16.13-.51.88-1.18.81s-2.18.29-2.45.88-1.43,1-1.63.61l-2.49.49Z"/><path class="cls-29" d="M201.32,84.36a4.49,4.49,0,0,1-.75,3.26c-2.45,3.13-10.76,1.85-15.7-2.35A16.15,16.15,0,0,1,179.35,73c.14-8.44,8-16.7,19.59-19.56L204.1,68.9c-7.17.11-11.52,5.51-10.88,9.37C193.7,81.15,197.05,83.73,201.32,84.36Z"/><path class="cls-30" d="M229.45,99.28c-3.77-1.61-3.75-4.94-7.27-6.33-5-2-10.58,2.63-11.45,1.35s5.73-5.41,4.85-9.43c-.7-3.19-5.33-2.63-7.81-7-2.36-4.15-.08-8-2.16-9.43-.75-.52-2.06-.72-4.56.38,1.74,5.44,3,10.24,3.08,16.19,0,1.58,0,6,.27,12.52.17,4.22.35,6.64,1.75,7.27s2.65-1.36,6.2-2.56c2.6-.88,5.22-.64,10.37-.13,7.66.76,8.21,1.84,9.71,1,1-.59,1.44-1.47,1.76-3.16A9.34,9.34,0,0,1,229.45,99.28Z"/><path class="cls-31" d="M209.56,193.7q-32,1.13-64,2.59c-5.88.27-10.67-6.23-10.8-14.51l-.09-5.63c-.13-8.28,4.48-15.48,10.4-16.08q32.15-3.27,64.37-6.2Z"/><path class="cls-32" d="M200.56,195.54q-27.1,1.22-54.2,2.65c-7.66.32-13.9-8.16-14.08-18.93v-.11c-.17-10.77,5.83-20.18,13.54-21q27.23-3.36,54.51-6.49c1-.09,12.07.87,12.07,2s-10.36,2.11-11.31,2.2q-27.63,2.94-55.22,6.11c-6.23.61-11.09,8.2-11,16.91v.12c.14,8.71,5.2,15.55,11.4,15.25q27.1-1.62,54.22-3c.95,0,12,1.11,12,2.29S201.51,195.5,200.56,195.54Z"/><path class="cls-33" d="M332.72,192.37q-65.43-.15-130.83,1-.09-19.86-.19-39.72,65.81.54,131.58,2.4Q333,174.23,332.72,192.37Z"/><path class="cls-34" d="M334.33,158.16q-67-1.8-134-2.24a2,2,0,0,1-1.65-2.13,1.9,1.9,0,0,1,1.63-2.11q67,.62,134.06,2.61c.75,0,1.35.91,1.33,2S335.08,158.18,334.33,158.16Z"/><path class="cls-35" d="M333.77,194.31q-66.61-.08-133.21,1.23a1.89,1.89,0,0,1-1.64-2.09,2,2,0,0,1,1.61-2.15q66.65-1.11,133.3-.86c.75,0,1.34.87,1.33,1.94S334.52,194.31,333.77,194.31Z"/><path class="cls-36" d="M210.4,194.91h0l-2,0-8.8.27-52,1.81a13.63,13.63,0,0,0-4.39.84c-6,2.26-10.06,8.7-9.61,16.14V214c.5,8.23,6.37,14.88,13.55,15.9a13.24,13.24,0,0,0,2.27.13l43.54-1.7,6.89-.27,2.66-.1,7.65-.34,1.6-.11h0l.54,0,1.11,0,0-.32.13-1.39,0-.17.1-1.14,2.45-26.78.16-1.69.07-.81.07-.64Z"/><path class="cls-33" d="M332.93,225.38l-114.73.72c-9.54.06-17.44-5.5-17.69-12.44l-.17-4.73c-.24-7,7.32-12.77,16.93-12.91l115.64-1.66Z"/><path class="cls-37" d="M334.17,227l-120.84.71c-8.26,0-15.23-7.25-15.55-16.3v-.1c-.32-9.09,6.16-16.62,14.5-16.74l121.89-1.8a1.58,1.58,0,0,1,1.56,1.64,1.64,1.64,0,0,1-1.56,1.69l-121.79,1.7c-6.72.09-12,6.15-11.69,13.48v.1c.26,7.31,5.88,13.19,12.55,13.15l120.94-.81a1.58,1.58,0,0,1,1.55,1.63A1.61,1.61,0,0,1,334.17,227Z"/><path class="cls-38" d="M212,255l-1.9.06-6.93.23-3.7.13-31.7,1.07-1.33.05-6,.2-9.65.33-3.89.13a9.5,9.5,0,0,0-3.53.75,11.17,11.17,0,0,0-2.17,1.23c-4.77,3.37-8,10.69-8,19.09v.13c0,11.46,6.08,21.06,13.75,21.41l63.21,1.77,4,.11.22-2.24.11-1.09,3.73-37.25.26-2.15.28-2.32h0l.1-1.49,0-.39Z"/><path class="cls-33" d="M333,257.4v38.66L301.5,297.3l-80.05,3.16a19.66,19.66,0,0,1-7.09-1,17,17,0,0,1-11.91-16.05v-6.67c0-8.86,7-16.29,16-17.77a20.35,20.35,0,0,1,3.05-.26l70.16-.82Z"/><path class="cls-39" d="M335.61,296c0,1.13-.61,2.08-1.36,2.11L304,299.31l-87.9,3.6a11.85,11.85,0,0,1-5.91-1.33c-6.2-3.13-10.55-11.42-10.55-21.3v-.14c0-12.8,7.36-23.31,16.45-23.47h0l2.53,0,73.85-.78,41.7-.45h0c.75,0,1.35.94,1.35,2.07s-.61,2.08-1.36,2.09l-1.07,0-42.19.56-72.76,1-2,0c-7.35.09-13.33,8.58-13.33,18.92v.14c0,9.56,5.11,17.28,11.7,18.16a9.48,9.48,0,0,0,1.6.08l83.36-3.17L333.18,294l1.08,0C335,293.93,335.61,294.82,335.61,296Z"/><path class="cls-31" d="M210.13,255.54l-64,1.44a10.3,10.3,0,0,1-10.58-10.4v-4a11.42,11.42,0,0,1,10.58-11.3l64-4Z"/><path class="cls-40" d="M201.12,256.82l-54.21,1.52a13.45,13.45,0,0,1-13.78-13.57v-.08A14.92,14.92,0,0,1,146.91,230l54.21-4.23c.95-.06,12,.65,12,1.48s-10.3,1.47-11.25,1.53l-54.94,4a12,12,0,0,0-11.15,11.88v.08a10.83,10.83,0,0,0,11.15,10.93l54.21-1.78c.94,0,12,.83,12,1.66S202.07,256.8,201.12,256.82Z"/><polygon class="cls-33" points="333.02 228.35 333.02 254.1 293.11 254.47 218.78 255.15 212.73 255.21 210.11 255.23 203.18 255.29 202.45 255.3 202.45 227.14 209.51 227.15 209.52 227.15 213.09 227.21 213.42 227.23 244.68 227.53 333.02 228.35"/><path class="cls-41" d="M334.26,229.82l-133.14-1.1a1.58,1.58,0,0,1-1.63-1.52,1.55,1.55,0,0,1,1.63-1.48l133.14,1.36a1.37,1.37,0,0,1,1.35,1.38A1.35,1.35,0,0,1,334.26,229.82Z"/><path class="cls-42" d="M335.61,254.05a1.35,1.35,0,0,1-1.35,1.36h0l-41.72.45-73.85.77-2.55,0-.1.1-14.91.25h0a1.69,1.69,0,0,1-1.54-1.14,1.76,1.76,0,0,1-.07-.4v-.11a1.6,1.6,0,0,1,1.63-1.54h1.35l7.65-.07,83.8-.69,39.26-.33,1.07,0A1.35,1.35,0,0,1,335.61,254.05Z"/><path class="cls-43" d="M196.14,296.47l-14.3-.81c-3.45-9.85-3.19-19.35,0-30.9l14.3,0A63.88,63.88,0,0,0,196.14,296.47Z"/><path class="cls-44" d="M166.51,258.11l-.46-17.83-16.41,18.07s-8.87,4.78-7.34,13.17l10.14-4,9,3.12S161.68,261.79,166.51,258.11Z"/><path class="cls-45" d="M147.8,241.4l18.25-1.12s-8.58,6.53-4.6,30.32c0,0-7.8-2.47-11.2-6.72l-7.95,7.64S137.44,250.36,147.8,241.4Z"/><path class="cls-46" d="M154.79,165.66a1.3,1.3,0,0,0-1.71.67L103,303.69a1.32,1.32,0,0,0,.88,1.62,1.3,1.3,0,0,0,1.71-.67l50.12-137.37A1.3,1.3,0,0,0,154.79,165.66Z"/><rect class="cls-47" x="147.12" y="182.97" width="33.84" height="2.79" rx="1.32"/><rect class="cls-48" x="137.97" y="208.04" width="33.84" height="2.79" rx="1.32"/><rect class="cls-49" x="128.81" y="233.52" width="33.84" height="2.79" rx="1.32"/><rect class="cls-50" x="119.26" y="259.79" width="33.84" height="2.79" rx="1.32"/><rect class="cls-51" x="110.1" y="284.87" width="33.84" height="2.79" rx="1.32"/><path class="cls-52" d="M186.9,164.71a1.35,1.35,0,0,0-1.77.69l-51.76,142a1.44,1.44,0,0,0,2.68,1l51.76-142A1.35,1.35,0,0,0,186.9,164.71Z"/><path class="cls-53" d="M333,259.59V294l1.15,0c.75,0,1.4.87,1.4,2s-.59,2.08-1.34,2.11L304,299.31a31.37,31.37,0,0,1-2.44-2c-.72-.65-1.42-1.32-2.09-2a36.21,36.21,0,0,1-8.5-35.12c.22-.77.46-1.52.74-2.27s.51-1.34.8-2c.21-.47.43-.95.66-1.41s.47-.95.73-1.42a36.53,36.53,0,0,1,7.65-9.68,36,36,0,0,1,26.87-12,31.32,31.32,0,0,1,4.58.29v21.09h1.15a1.4,1.4,0,0,1,1.4,1.36,1.37,1.37,0,0,1-1.33,1.39c.75,0,1.36.91,1.36,2s-.68,2.07-1.43,2.08Z"/><circle class="cls-54" cx="329.77" cy="270.33" r="36.26" transform="translate(-45.17 67.24) rotate(-10.9)"/><circle class="cls-55" cx="332.5" cy="267.59" r="36.26"/><path class="cls-56" d="M366.26,267.59a33.76,33.76,0,1,1-33.76-33.75h.93A33.75,33.75,0,0,1,366.26,267.59Z"/><polygon class="cls-57" points="332.5 252.08 302.19 261.32 332.5 270.56 362.82 261.32 332.5 252.08"/><path class="cls-57" d="M332.5,273.8,313.42,268v13.28a4.62,4.62,0,0,0,3.66,4.52,67.68,67.68,0,0,0,29.54.07,4.6,4.6,0,0,0,3.56-4.49V268.42Z"/><path class="cls-57" d="M309.21,279.31a4.61,4.61,0,0,1-4.35.05,1,1,0,0,1-.46-1l2.7-13.42,2.68,13.32A1,1,0,0,1,309.21,279.31Z"/><polygon class="cls-57" points="332.5 259.95 306.7 262.69 306.7 267.17 307.47 267.17 307.55 263.25 332.5 259.95"/><path class="cls-58" d="M366.26,267.59a33.76,33.76,0,0,1-51.83,28.52c3.18-8.64,12.35-17.91,21.85-23.72,17.59-10.75,4.23-30.18-2.85-38.54A33.75,33.75,0,0,1,366.26,267.59Z"/></g></g></g></svg>