<svg xmlns="http://www.w3.org/2000/svg" xmlns:xlink="http://www.w3.org/1999/xlink" viewBox="0 0 500 300.5"><defs><style>.cls-1{isolation:isolate;}.cls-2{fill:url(#Gradiente_sem_nome_3);}.cls-3{fill:#007bb3;}.cls-10,.cls-3,.cls-35,.cls-37,.cls-47{mix-blend-mode:multiply;}.cls-3,.cls-37{opacity:0.2;}.cls-4{fill:#008063;}.cls-5{fill:#4c301f;}.cls-6{fill:#008e6e;}.cls-7{fill:#00a684;}.cls-8{fill:#633f2a;}.cls-9{fill:#ffdfc3;opacity:0.6;}.cls-10,.cls-37{fill:#672381;}.cls-10{opacity:0.1;}.cls-11{fill:#4d709d;}.cls-12{fill:#5276ac;}.cls-13{fill:#405a90;}.cls-14{fill:#394e86;}.cls-15{fill:#2a3e80;}.cls-16{fill:#2b406f;}.cls-17{fill:#5ea4e2;}.cls-18{fill:#fbd657;}.cls-19{fill:#cf4a50;}.cls-20{fill:#e43c71;}.cls-21{fill:#0062a5;}.cls-22{fill:#11b2c7;}.cls-23{fill:#e0d6ce;}.cls-24{fill:#4b1a00;}.cls-25{fill:#f4ad24;}.cls-26{fill:#d7cac1;}.cls-27{fill:#e3ac8c;}.cls-28{fill:#b8b0a9;}.cls-29{fill:#844c23;}.cls-30{fill:#432918;}.cls-31{fill:#9f5244;}.cls-32{fill:#cf7123;}.cls-33{fill:#5f3612;}.cls-34,.cls-45{fill:#fff;}.cls-35{fill:#d3698d;}.cls-35,.cls-45,.cls-47{opacity:0.3;}.cls-36{fill:#da6050;}.cls-38{fill:#6a242b;}.cls-39{fill:#f0c8b9;}.cls-40{fill:#011017;}.cls-41{fill:#9bc0de;}.cls-42{fill:#e58563;}.cls-43{fill:#fb9a58;}.cls-44{fill:#d93f8a;}.cls-45{mix-blend-mode:soft-light;}.cls-46{fill:#b45c52;}.cls-47{fill:#e18192;}.cls-48{fill:#4f3327;}.cls-49{fill:#561820;}.cls-50{fill:#41060e;}.cls-51{fill:#ff7dba;}.cls-52{fill:#7099b3;}.cls-53{fill:#006cb2;}.cls-54{fill:#f9c723;}.cls-55{fill:#eab545;}.cls-56{fill:#ffe442;}.cls-57{fill:#230e00;}.cls-58{fill:#20071f;}.cls-59{fill:#21323b;}.cls-60{fill:#0060a8;}.cls-61{fill:#061920;}.cls-62{fill:#ae4f41;}.cls-63{fill:#005095;}.cls-64{fill:#d38d5b;}</style><linearGradient id="Gradiente_sem_nome_3" y1="150" x2="500" y2="150" gradientUnits="userSpaceOnUse"><stop offset="0" stop-color="#e38ddd"/><stop offset="1" stop-color="#562eff"/></linearGradient></defs><g class="cls-1"><g id="Camada_2" data-name="Camada 2"><g id="Camada_4" data-name="Camada 4"><rect class="cls-2" width="500" height="300"/><path class="cls-3" d="M121.45,169.53c-7.73,1.06-36.42,12-38.28,24.87s24.83,18.67,22,28.92-18.56,20.19.31,29.42,39.73.46,42.55,11.37S136.47,293.75,169,292s80.11-57.64,99.22-58.2,1.29,15.39,19.17,18c38.05,5.58,74.25-3.42,81.22-17.6,9.78-19.88-25.59-30.83-14-39.84s21.3-5.67,24.08-13.86-7.58-6.38.78-10.82,32.79-11.06,24.22-19.53-65.06-19.66-79.81-28.28-17.52-22.1-57.06-9.14S156.66,164.72,121.45,169.53Z"/><path class="cls-4" d="M373.2,77.24a2.07,2.07,0,0,1,0,.35c-.21,1.12-1.39,2.18-3.34,3.13-4.8,8.88-16.35,11.2-32.66,11.2-16.81,0-23.8.58-30.43-10.81-2.47-1-3.95-2.25-4.19-3.52a2.07,2.07,0,0,1,0-.35c0-4.51,15.83-8.17,35.34-8.17S373.2,72.73,373.2,77.24Z"/><path class="cls-5" d="M369.83,80.72c-5.66,2.77-17.85,4.69-32,4.69-13.45,0-25.15-1.74-31.12-4.3,1-4.44,14.8-8,31.6-8C354.66,73.15,368.08,76.46,369.83,80.72Z"/><path class="cls-6" d="M391.77,98c5.46,7.9,4.39,34.57-18.31,31h-.26v-6h0c16.69,2.49,17.47-15.87,13.47-21.3-4.82-6.54-11.82-3.12-13.48-2.18V94.21C374.91,93.23,385,88.09,391.77,98Z"/><path class="cls-7" d="M373.17,77.59c-.21,1.12-1.39,2.18-3.34,3.13-5.66,2.77-17.85,4.69-32,4.69-13.45,0-25.15-1.74-31.12-4.3-2.47-1-3.95-2.25-4.19-3.52h0v78.16c0,4.7,15.83,8.51,35.34,8.51s35.34-3.81,35.34-8.51V77.6Z"/><path class="cls-8" d="M363,79.16c-3.55-3.53-10-3.57-15.06-3.58-4.35,0-8.74.17-13.09.34-2.35.09-22.16.37-20.43,4.44.22.52,1.07.3,1-.24-.49-2.67,17.88-3.1,20.08-3.18,7.06-.26,14.68-.91,21.56.55a14.49,14.49,0,0,1,2.87,1c2.08.93,1.66,1.2-.25,1.86a31.13,31.13,0,0,1-8.52,1.1c-4.69.2-9.39.26-14.08.47a42.77,42.77,0,0,1-8.24-.31c-.95-.14-3.48-.37-1.42-1a33.79,33.79,0,0,1,4.28-.87c6-.93,12.24-.32,18.25.14.71.05.67-.85,0-.91-8-.77-17.07-.9-24.68,1.6-.32.1-.4.45-.09.62,5.64,3,13.26,1.48,19.51,1.33,5.77-.13,13.61,1,18.35-2.52A.53.53,0,0,0,363,79.16Z"/><path class="cls-9" d="M339.66,78.82s4-6.92.19-12.25-10.87-5.45-9-10.37,11.59-14.83,1.4-21.21-13.79-2-13.79-2,6.37-18-6.07-26.62S280.6-.71,272.32,13.09s2.37,19,.51,22.31S266,58.06,286.92,65.69s23.47,1.66,33.78,2C328.89,68,336.84,69.73,339.66,78.82Z"/><path class="cls-10" d="M365,89.6c-3.81,2.68-1.16,27.47-12.77,40.24s-35.32,10.55-40.63,15.86c-2.32,2.32-7.35,9.12,3.1,12.39,12.38,3.86,51.07,4.25,53.39-8.13s2.43-29,2.52-39.85C370.83,87.47,371.61,85,365,89.6Z"/><path class="cls-11" d="M357.29,155.77s-36.38,7.74-60.75,27.08c-17.69,14-19.74,24.51-19.74,24.51a0,0,0,0,0,0,0c-1.16-.95-75.62-61.41-82-64a6.22,6.22,0,0,0-1-.29c1.12-1.25,31.65-34.56,70.38-36.08C264.17,107,353.16,149.83,357.29,155.77Z"/><path class="cls-12" d="M193.79,143.09a6.22,6.22,0,0,1,1,.29c6.39,2.56,80.85,63,82,64-34.31-14.16-86.4,37.41-87.43,37.41-4,0-78.68-70.81-79.71-73.13s15.48-15.47,33.28-21C168.46,142.65,187.77,141.66,193.79,143.09Z"/><path class="cls-13" d="M109.9,178.72l-.25-7.09c1,2.32,75.71,73.13,79.71,73.13l1.93,6.58-.13,7.86C147.31,220.26,110,182.85,110,182.85Z"/><path class="cls-14" d="M356.79,161.62a16.21,16.21,0,0,0,.88,6.34,271,271,0,0,0-42.43,18.25,231.82,231.82,0,0,0-33,21.23c-2,1.59-3.07,2.5-3.07,2.5S258.75,212,230.89,229.8c-33.48,21.39-39.73,29.4-39.73,29.4l-1.8-14.44c2.13-3.1,53.12-51.57,87.43-37.41a0,0,0,0,1,0,0s2.05-10.48,19.74-24.51c24.37-19.34,60.75-27.08,60.75-27.08A45.57,45.57,0,0,0,356.79,161.62Z"/><path class="cls-15" d="M365.22,167.57c.13.91-19.38,9.64-38.5,19C306,196.61,285.48,207.32,284.22,208l-2-.53a231.82,231.82,0,0,1,33-21.23A271,271,0,0,1,357.67,168a16.21,16.21,0,0,1-.88-6.34C357.66,162.11,365,166.29,365.22,167.57Z"/><path class="cls-15" d="M284.16,208s-1.36,3.48-4.26,4.64a12.81,12.81,0,0,1-5.8.77s-22.44,11.31-43.21,24.89c-18.8,12.3-38.57,26.44-40.5,26.06-7.62-1.53-86.63-79.44-87.45-81.9-.25-.76,6.64-3.62,7-3.75l.14,4.13s37.27,37.41,81.12,76.35c0,0,6.25-8,39.73-29.4,27.86-17.8,48.24-19.86,48.24-19.86s1.05-.91,3.07-2.5l2,.53Z"/><path class="cls-16" d="M193.6,246.68s1.09-1,3-2.78,4.77-4.19,8.29-7c1.75-1.4,3.69-2.87,5.74-4.41s4.27-3.11,6.59-4.69,4.74-3.17,7.25-4.71,5.1-3.05,7.72-4.49,5.33-2.74,8-3.93c1.35-.59,2.68-1.19,4-1.71l2-.79,2-.71c1.32-.48,2.64-.88,3.94-1.26s2.58-.7,3.83-1a59.1,59.1,0,0,1,7.15-1.27c1.11-.17,2.2-.19,3.22-.26.51,0,1-.06,1.5-.07l1.42,0,1.32,0a8.34,8.34,0,0,1,1.24.08l2.16.23a12,12,0,0,1,1.73.28l1.27.25,1.06.21a.21.21,0,0,1,.16.24.2.2,0,0,1-.23.16h0l-1.05-.19-1.26-.23a14.13,14.13,0,0,0-1.72-.25l-2.14-.19a8,8,0,0,0-1.22-.06H268l-1.48.09c-1,.08-2.08.1-3.18.28a60.18,60.18,0,0,0-7.07,1.29c-1.24.32-2.52.61-3.79,1s-2.6.78-3.91,1.28l-2,.7-2,.8c-1.34.52-2.66,1.12-4,1.72-2.67,1.2-5.32,2.55-8,4s-5.21,2.89-7.71,4.43-4.93,3.1-7.25,4.66-4.51,3.13-6.58,4.64-4,3-5.75,4.37c-3.51,2.77-6.39,5.14-8.36,6.85s-3.07,2.73-3.07,2.73a.21.21,0,0,1-.28-.3Z"/><path class="cls-16" d="M278.1,209.11l-1.09.06c-.7.06-1.75.09-3.07.21l-2.17.26-1.24.14-1.31.23c-.91.17-1.88.31-2.89.53l-3.18.71c-1.1.28-2.24.61-3.42.93s-2.37.74-3.61,1.12c-2.47.83-5,1.8-7.66,2.89-1.31.54-2.62,1.15-4,1.73l-4,1.92c-2.66,1.35-5.33,2.78-8,4.29A209.67,209.67,0,0,0,205.11,243c-3.54,2.86-6.42,5.32-8.41,7.08s-3.07,2.82-3.07,2.82a.22.22,0,0,1-.29,0,.21.21,0,0,1,0-.29s1.09-1.07,3-2.86,4.81-4.32,8.34-7.21a211.19,211.19,0,0,1,27.44-19.08c2.63-1.52,5.34-2.93,8-4.28l4-1.9c1.34-.58,2.66-1.19,4-1.73,2.64-1.08,5.23-2,7.71-2.86,1.26-.38,2.46-.8,3.65-1.12s2.34-.63,3.45-.91l3.2-.7c1-.2,2-.33,2.92-.48l1.33-.21,1.25-.14,2.2-.22c1.33-.11,2.37-.12,3.08-.16l1.09-.05a.22.22,0,0,1,.22.2A.22.22,0,0,1,278.1,209.11Z"/><path class="cls-16" d="M355.4,160.42l-1,.24-2.86.76-4.43,1.3-5.69,1.85L334.73,167l-7.31,3-7.65,3.59-7.66,4.15c-1.27.7-2.51,1.5-3.76,2.25l-1.87,1.13-1.8,1.2c-2.41,1.55-4.69,3.24-6.88,4.87-1.07.86-2.12,1.69-3.16,2.51l-2.91,2.53-2.66,2.51-2.38,2.44-2.09,2.35-1.78,2.19c-1.08,1.42-2,2.68-2.64,3.77a27.71,27.71,0,0,0-1.46,2.56c-.31.61-.44.94-.44.94a.2.2,0,0,1-.26.12.21.21,0,0,1-.12-.26,10.22,10.22,0,0,1,.44-1,27.26,27.26,0,0,1,1.44-2.63c.66-1.11,1.55-2.4,2.61-3.84l1.77-2.24,2.09-2.38,2.38-2.48,2.67-2.54,2.92-2.56,3.16-2.54c2.2-1.66,4.48-3.37,6.91-5l1.81-1.21,1.86-1.15c1.25-.75,2.46-1.55,3.76-2.27l7.73-4.14,7.7-3.57,7.35-3,6.69-2.39c2.09-.68,4-1.27,5.73-1.8l4.46-1.23,2.9-.72,1-.23a.19.19,0,0,1,.24.15A.21.21,0,0,1,355.4,160.42Z"/><path class="cls-16" d="M353.85,165.25l-1,.23c-.62.18-1.55.39-2.71.73s-2.58.73-4.17,1.28-3.41,1.1-5.35,1.84-4.08,1.45-6.26,2.39-4.54,1.81-6.88,2.94l-3.58,1.65-1.83.84c-.61.29-1.21.62-1.81.93L313,181.87c-1.2.69-2.42,1.34-3.6,2.06s-2.34,1.42-3.47,2.17c-2.28,1.49-4.48,3-6.56,4.55-4.18,3.08-7.91,6.17-11,8.91s-5.64,5.1-7.37,6.79-2.69,2.7-2.69,2.7a.2.2,0,0,1-.29,0,.2.2,0,0,1,0-.28s.94-1,2.66-2.75,4.19-4.15,7.3-6.91,6.85-5.89,11-9c2.09-1.56,4.29-3.11,6.57-4.62,1.14-.76,2.33-1.46,3.5-2.21s2.4-1.38,3.59-2.08c2.47-1.31,4.95-2.53,7.38-3.78.61-.31,1.21-.63,1.83-.92l1.84-.83,3.6-1.64c2.35-1.12,4.72-2,6.92-2.91s4.34-1.64,6.29-2.36,3.79-1.27,5.4-1.79,3-.87,4.21-1.21,2.11-.53,2.74-.69l1-.22a.21.21,0,0,1,.24.16.19.19,0,0,1-.15.24Z"/><path class="cls-16" d="M132.11,176.56s.86-.72,2.43-1.86,3.84-2.75,6.7-4.48,6.21-3.68,10-5.49c1.87-.91,3.84-1.8,5.85-2.66s4.08-1.69,6.19-2.41,4.23-1.4,6.34-2,4.21-1.11,6.26-1.55,4-.75,5.94-1,3.71-.44,5.38-.53,3.2-.12,4.56-.16,2.54.06,3.52.1l3.05.24a.61.61,0,0,1-.05,1.22h0l-3,0c-1,0-2.11,0-3.44.1s-2.82.16-4.45.35-3.38.4-5.23.69c-.92.17-1.87.32-2.84.52l-2.94.62c-2,.46-4,1-6.1,1.58s-4.14,1.27-6.19,2-4.1,1.5-6.09,2.31-3.93,1.67-5.78,2.55-3.63,1.76-5.31,2.61-3.24,1.7-4.67,2.51c-2.85,1.62-5.21,3-6.81,4.07s-2.51,1.65-2.51,1.65a.61.61,0,0,1-.85-.16.59.59,0,0,1,.1-.81Z"/><path class="cls-16" d="M147.74,188l.63-.47c.42-.31,1-.76,1.84-1.29s1.79-1.16,2.93-1.88,2.43-1.5,3.89-2.27l2.26-1.24,2.45-1.25c1.67-.9,3.52-1.67,5.39-2.53l2.92-1.19c1-.39,2-.83,3-1.17,2-.71,4.11-1.53,6.24-2.11l3.17-.92c1.07-.28,2.14-.52,3.19-.77s2.11-.51,3.15-.73l3.11-.54c1-.18,2-.37,3-.5l2.91-.29,2.75-.27c.89-.08,1.76-.06,2.58-.1,1.66,0,3.18-.09,4.52-.09l3.48.21,3,.2a.61.61,0,0,1,0,1.22h-3l-3.41,0-4.42.3c-.81.06-1.66.07-2.52.18l-2.69.36-2.83.38c-1,.16-1.94.37-2.94.54l-3,.57c-1,.22-2,.5-3.07.75s-2.08.49-3.12.78l-3.1.94c-2.08.58-4.12,1.33-6.13,2-1,.32-2,.74-3,1.11L168,179.11l-2.75,1.19-1.33.57-1.28.59-2.47,1.15-2.26,1.14c-1.46.72-2.76,1.45-3.94,2.06s-2.17,1.19-3,1.68-1.46.86-1.88,1.13l-.66.41h0a.61.61,0,0,1-.84-.2A.6.6,0,0,1,147.74,188Z"/><path class="cls-16" d="M166.89,208.72s.81-.83,2.29-2.15,3.66-3.17,6.4-5.2c1.37-1,2.88-2.09,4.49-3.2s3.35-2.23,5.2-3.3,3.77-2.17,5.75-3.22,4-2.05,6.14-3l1.57-.68,1.59-.63c1.05-.43,2.12-.81,3.18-1.19,2.12-.76,4.24-1.41,6.3-2s4.1-1,6-1.37,3.77-.63,5.48-.8,3.28-.25,4.67-.34,2.61,0,3.61,0l3.13.16a.62.62,0,0,1,0,1.23h0l-3.08,0c-1,0-2.16.11-3.51.2s-2.89.28-4.54.54-3.44.56-5.31.95c-.94.22-1.9.42-2.87.68s-2,.51-3,.8c-2,.59-4.07,1.25-6.13,2-1,.38-2.07.76-3.1,1.2l-1.54.63-1.53.68c-2.05.89-4.07,1.85-6,2.84s-3.87,2-5.68,3.09-3.54,2.11-5.18,3.13-3.15,2-4.52,3c-2.76,1.93-5,3.59-6.56,4.81s-2.39,1.93-2.39,1.93a.61.61,0,0,1-.84-.89Z"/><path class="cls-16" d="M183.15,225.73s.83-.81,2.35-2.14,3.7-3.21,6.45-5.31c1.37-1.05,2.86-2.18,4.47-3.34s3.33-2.35,5.14-3.53,3.7-2.38,5.66-3.53,4-2.31,6-3.39c1-.53,2.07-1,3.09-1.56l3.12-1.45c2.08-.93,4.15-1.81,6.18-2.57s4-1.42,5.95-2,3.75-1,5.44-1.39l2.46-.48,2.23-.33c1.4-.21,2.64-.27,3.64-.38s1.82-.06,2.36-.09l.83,0a.61.61,0,0,1,.63.59.62.62,0,0,1-.54.63h0l-3.1.32c-1,.16-2.17.27-3.53.55l-2.15.43-2.37.56c-1.65.42-3.42.91-5.27,1.53s-3.78,1.32-5.76,2.08-4,1.65-6,2.58l-3,1.46c-1,.53-2,1-3,1.57-2,1.07-4,2.14-5.95,3.28s-3.81,2.28-5.62,3.42c-3.59,2.31-6.92,4.52-9.69,6.52s-5.07,3.71-6.64,4.94-2.45,2-2.45,2a.61.61,0,0,1-.81-.92Z"/><path class="cls-17" d="M235.28,122.49s15.21-8.77,27.34-10.58l30.44,14.71S272.93,129.2,258.23,140Z"/><path class="cls-16" d="M216.46,148.71l.18-.31c.13-.21.31-.5.55-.86s.56-.8.92-1.29.78-1,1.27-1.6,1-1.18,1.6-1.81,1.22-1.28,1.92-1.91,1.39-1.29,2.17-1.9,1.54-1.24,2.36-1.82,1.65-1.13,2.47-1.67,1.7-1,2.5-1.46,1.66-.81,2.42-1.2a23.4,23.4,0,0,1,2.23-.94c.7-.27,1.33-.53,1.92-.7l1.5-.45,1.32-.37a.61.61,0,0,1,.75.44.63.63,0,0,1-.33.71h0l-1.21.56-1.4.61c-.53.23-1.11.57-1.76.87s-1.35.66-2.07,1.08-1.49.79-2.25,1.28-1.57.93-2.34,1.47-1.6,1-2.35,1.63l-1.16.85c-.38.28-.75.59-1.12.88-.75.58-1.45,1.18-2.14,1.76s-1.32,1.18-1.94,1.73-1.17,1.09-1.68,1.61c-1,1-1.86,1.88-2.42,2.51l-.64.72-.23.27h0a.61.61,0,0,1-.86.07A.62.62,0,0,1,216.46,148.71Z"/><path class="cls-16" d="M229.59,160.87l.17-.33c.12-.22.29-.53.53-.91a34.3,34.3,0,0,1,2.1-3c.48-.59,1-1.25,1.57-1.89l.89-1,1-1a55.48,55.48,0,0,1,4.41-4l2.4-1.82,2.42-1.65,2.33-1.42c.74-.45,1.48-.81,2.14-1.17,1.32-.74,2.5-1.21,3.29-1.58l1.27-.56a.61.61,0,0,1,.57,1.08l0,0-1.16.73-1.33.81c-.52.3-1.07.69-1.69,1.09s-1.3.82-2,1.3-1.42,1-2.18,1.5L244,148.72l-2.31,1.8c-.74.63-1.51,1.24-2.23,1.87s-1.44,1.26-2.1,1.9-1.31,1.23-1.9,1.83-1.13,1.17-1.65,1.69-1,1-1.35,1.48-.72.84-1,1.17l-.61.77-.21.27,0,0a.61.61,0,0,1-1-.65Z"/><path class="cls-16" d="M245.39,173.42s.74-.93,2.11-2.44,3.38-3.66,5.94-6.06,5.6-5.17,9.06-7.88c1.72-1.36,3.54-2.72,5.41-4.07s3.81-2.67,5.81-3.91,4-2.43,6-3.55,4.06-2.14,6-3.09,4-1.76,5.84-2.5,3.68-1.38,5.37-1.9,3.24-1,4.62-1.33,2.61-.61,3.61-.82l3.18-.57a.61.61,0,0,1,.71.5.62.62,0,0,1-.46.7h0l-3.09.76c-1,.26-2.15.6-3.5,1s-2.85.9-4.47,1.5-3.37,1.27-5.19,2c-.91.4-1.84.79-2.79,1.23l-2.87,1.36c-1.94,1-3.92,2-5.89,3.1s-4,2.29-5.89,3.55-3.88,2.5-5.74,3.8-3.67,2.62-5.38,4-3.35,2.63-4.89,3.88-3,2.48-4.26,3.63c-2.59,2.31-4.71,4.27-6.15,5.7s-2.23,2.25-2.23,2.25a.62.62,0,0,1-.87,0,.61.61,0,0,1-.06-.82Z"/><path class="cls-16" d="M262.63,188.69s.16-.26.51-.74.83-1.2,1.49-2.07,1.49-1.92,2.45-3.1l1.57-1.85c.55-.66,1.18-1.3,1.81-2,1.24-1.41,2.69-2.83,4.21-4.36s3.2-3,5-4.58,3.63-3.1,5.62-4.55l3-2.24c1-.71,2.06-1.42,3.11-2.11l1.56-1,.78-.51.81-.48,3.21-1.88c2.1-1.31,4.32-2.31,6.4-3.4l1.55-.79c.51-.26,1.06-.45,1.57-.68l3.06-1.27c1-.41,2-.84,2.9-1.18l2.78-.94c1.78-.59,3.4-1.18,4.87-1.56l3.83-.94,3.34-.8a.61.61,0,0,1,.32,1.17l0,0-3.25,1-3.72,1.11c-.73.19-1.46.52-2.25.81l-2.48.92-2.7,1c-.92.37-1.85.82-2.82,1.25-1.91.89-4,1.72-6,2.84s-4.19,2.08-6.23,3.39L295.69,161l-.78.48-.77.51-1.52,1-3.06,2-2.93,2.18c-2,1.4-3.77,3-5.57,4.41-.91.72-1.72,1.51-2.56,2.24s-1.67,1.42-2.43,2.16c-1.53,1.45-3,2.81-4.27,4.15s-2.45,2.56-3.48,3.65-1.87,2.1-2.56,2.92-1.24,1.47-1.58,1.92-.55.7-.55.7a.61.61,0,0,1-.85.13.61.61,0,0,1-.16-.82Z"/><path class="cls-18" d="M393.66,136.68s9.28-4.9,8.51-20.12S387.73,82.25,397,79.67,421.52,121.72,393.66,136.68Z"/><path class="cls-19" d="M398,141.06c-.92.08,5.94-2.84,11.87-13.93,4.25-7.94,5.42-15.73,9.8-13.15S418.68,139.26,398,141.06Z"/><path class="cls-20" d="M202.58,123.48c1.3-.73-15.68-26.37-44.93-33s-47,2.21-46.75,11.33,28.73-.91,55.81,6.17S200.28,124.78,202.58,123.48Z"/><path class="cls-20" d="M275.06,222.35c-.21-.88-18.19,4.61-26.93,20.52s-6.46,27.76-1,29.17,4.21-16.89,12.87-31.45S275.45,223.91,275.06,222.35Z"/><path class="cls-18" d="M202.91,118.85c1.22,3.09,2.77-13.67-10.12-28.2-7.81-8.8-19.54-13.09-22.88-9C163.64,89.27,195.7,100.5,202.91,118.85Z"/><path class="cls-18" d="M354.17,187.62c-1.4-1.1,2.39,7.08,12.27,10.34,6,2,12.58.8,13-2C380.32,190.75,362.44,194.18,354.17,187.62Z"/><path class="cls-7" d="M209.74,88.44c-.82,2.45-10.06-9.55-8.26-26.57s8-17,9.29-15-4.13,19.34-3.61,29.4S210.12,87.28,209.74,88.44Z"/><path class="cls-21" d="M195.36,71.22c-1.07.64-9.1-13.74-6.39-29.79s9.87-19,10.06-13-4.59,16.86-5.22,25C192.84,65.8,196.32,70.64,195.36,71.22Z"/><path class="cls-21" d="M137.37,137.91c-.12-2.18-26-4.95-44.49,10.9S77,178.35,84.94,174.38s17.88-19.47,27.87-26.28C128.08,137.69,137.47,139.89,137.37,137.91Z"/><path class="cls-22" d="M165.5,87.34c1.5-.38-8.48-2.1-16.7-10.16-6.51-6.38-9.59-16-12.92-9.7C131.46,75.9,155.18,89.92,165.5,87.34Z"/><path class="cls-22" d="M136.27,133.89c.95,1.23-8-3.61-19.4-2.37-9.06,1-17.46,6.64-16.15-.4C102.47,121.77,129.77,125.47,136.27,133.89Z"/><path class="cls-22" d="M279,223.53c1.28-.88-4.08,7.73-3.52,19.22.44,9.11,5.6,17.83-1.35,16.1C264.85,256.56,270.16,229.52,279,223.53Z"/><path class="cls-23" d="M349,211.32c.51,5.8.49,11-.6,12-2.71,2.52-26.89,7-30.57,7.16a10.24,10.24,0,0,1-1.81-.1v0l-.39-3.24c-.25-2.22-.61-5.36-1-8.76-.89-8.43-1.75-18.46-1.1-20s8.51-3,16.24-4.22c7.07-1.08,14.87-2.45,16-2.26C347.16,192.08,348.23,202.75,349,211.32Z"/><path class="cls-23" d="M345.52,191.83c-1.74,0-9.06,1.26-15.72,2.28-7.73,1.18-15.63,2.8-16.24,4.22s.21,11.56,1.1,20c.35,3.4.71,6.54,1,8.76l.39,3.24v0a10.24,10.24,0,0,0,1.81.1c.33,0,.83-.07,1.46-.15C331.28,220.28,341.13,206.8,345.52,191.83Z"/><path class="cls-24" d="M339.09,243.42c2.88,3.77,2.12,10.13.91,10.37s-3.13-2.75-5.63-3.62a14,14,0,0,0,.67-9.28l0-.13a12.22,12.22,0,0,1,3.36,1.94A7.31,7.31,0,0,1,339.09,243.42Z"/><path class="cls-24" d="M333,249.92c-1.81,1.42-2.54,7.34-3.87,6.84-2.06-.77-2.84-6.07-2.84-6.07v-.08C329.74,250.24,332.23,249.92,333,249.92Z"/><path class="cls-25" d="M299,207.24c-4.28,1.17-9.25-2.2-9.25-2.2l-.17,0c1.3-4.6,3.13-8.82,4.88-10.92,4.06-4.84,10.51-1,10.51-1a7.57,7.57,0,0,0,7.1,2.71c3.61-.5,4.76-2.19,4.76-2.19l.09-.55.18,0s5.54-2.44,8.25-1.42a23.22,23.22,0,0,1,4.5,2.49c-7.73,1.18-15.63,2.8-16.24,4.22s.21,11.56,1.1,20h-.07l-1.8.42-.08,0c-1.27-2-4-4.69-5.34-5a25.11,25.11,0,0,0-9.11,0l-.05-.27c.26-2.45.78-6.19.78-6.19Z"/><path class="cls-26" d="M316,230.32v0a100.18,100.18,0,0,1-16.18-4.15,2,2,0,0,1-.64-.45,3.8,3.8,0,0,1-.72-2.84v0h0l1.64-.28v0l15.38,4.48h.12Z"/><path class="cls-27" d="M323.49,173.05c-.25-9.67-1.8-12.51-1.8-12.51l-.05-.44a10.12,10.12,0,0,1-1.24.05,22.82,22.82,0,0,1-9.67-2.18c.13.15,1.74,2.1.38,3.34-1.66,1.52-9.87,1.42-12.83-.13,0,0,2,11.1-1.74,16.38a3.19,3.19,0,0,0-3.54-.93c-2,.86-3.29,4.06-2,6.87,1.83,4,7.35,2.58,7.35,2.58a43.52,43.52,0,0,0,6.84,4.55l-.26,2.41a7.57,7.57,0,0,0,7.1,2.71c3.61-.5,4.76-2.19,4.76-2.19l.09-.55.18-1.11c4.82-2.29,8.63-7.67,8.63-10.08C325.68,178.86,323.49,173.05,323.49,173.05Z"/><path class="cls-10" d="M313.56,192.91c-2.62.27-5.69-.87-8.38-2.28l-.05.4a12.27,12.27,0,0,0,11.51,2.71,1.16,1.16,0,0,0,.14-.18l.09-.55.18-1.11A10.9,10.9,0,0,1,313.56,192.91Z"/><path class="cls-28" d="M314.66,218.32c.35,3.4.71,6.54,1,8.76h-.12l-15.38-4.48v0c2-.38,3.39-.78,3.39-.78s2.16,1.92,3.55,1.35a1.74,1.74,0,0,0,1-1.74s.77.64,1.29.25.51-1.67.51-1.67,2.58,2,3.48.84c.29-.37,0-1.15-.59-2.07l.08,0,1.8-.42Z"/><path class="cls-29" d="M335.09,240.76l0,.13a14,14,0,0,1-.67,9.28,3.87,3.87,0,0,0-1.33-.25c-.81,0-3.3.32-6.71.69-9.78,1-27.14,2.55-34.31-1.72-9.54-5.68-8.51-19.86,3.36-23.48a15.12,15.12,0,0,0,3.74.4l.07-.07a2,2,0,0,0,.64.45A100.18,100.18,0,0,0,316,230.34a10.24,10.24,0,0,0,1.81.1c3.68-.19,27.86-4.64,30.57-7.16,1.09-1,1.11-6.16.6-12,1.75-.51,7.91-1.74,11.65,5.07,4.38,8-6.9,20.31-21.55,27a7.31,7.31,0,0,0-.64-.72A12.22,12.22,0,0,0,335.09,240.76Z"/><path class="cls-27" d="M309.82,220s0,1.29-.51,1.67-1.29-.25-1.29-.25a1.74,1.74,0,0,1-1,1.74c-1.39.57-3.55-1.35-3.55-1.35s-1.42.4-3.39.78l-1.64.28h0c-.85.14-1.74.24-2.63.31-3.29.26-6.57-.07-7.43-2.15-1.39-3.36-.58-10,1.12-16l.17,0s5,3.37,9.25,2.2l0,.12s-.52,3.74-.78,6.19l.05.27a25.11,25.11,0,0,1,9.11,0c1.33.27,4.07,2.94,5.34,5,.59.92.88,1.7.59,2.07C312.4,222,309.82,220,309.82,220Z"/><path class="cls-25" d="M298.47,222.9a3.8,3.8,0,0,0,.72,2.84l-.07.07a15.12,15.12,0,0,1-3.74-.4l.46-2.23c.89-.07,1.78-.17,2.63-.31Z"/><path class="cls-30" d="M322.73,151.5c.25-.18,6.06-4.17,6.82-.63.94,4.35-2.64,8.73-7.91,9.23a10.12,10.12,0,0,1-1.24.05,22.82,22.82,0,0,1-9.67-2.18c.13.15,1.74,2.1.38,3.34-1.66,1.52-9.87,1.42-12.83-.13,0,0,2,11.1-1.74,16.38a3.19,3.19,0,0,0-3.54-.93l-.07-.61s-3.1-7.36-1.68-13.29c.73-3.07,3-2.71,3-2.71s-1.68-5.29,2.06-8.25,8.25-3.61,11.22-6.19,3.87-6.32,5.93-5.16.72,4.82.65,5c.17-.08,2.8-1.35,5-2.18a5.15,5.15,0,0,1,5,1.28C325.49,146.15,324.52,149.57,322.73,151.5Z"/><path class="cls-31" d="M313.3,220.84a.74.74,0,0,0,.08-.23,1.39,1.39,0,0,0-.13-.65,5.29,5.29,0,0,0-.52-.92c-.23-.32-.53-.7-.84-1.09s-.69-.79-1.1-1.2-.85-.82-1.32-1.22a8.32,8.32,0,0,0-.74-.59,6.32,6.32,0,0,0-.8-.51,1.38,1.38,0,0,0-.4-.17,1.09,1.09,0,0,0-.43-.11l-1-.15c-.67-.09-1.32-.11-2-.17s-1.3,0-1.93,0h-.92l-.88.09-1.62.16c-.51,0-.94.15-1.36.21l-1,.2-.93.15a.2.2,0,0,1-.23-.16.21.21,0,0,1,.15-.24l.9-.24,1-.27a8.78,8.78,0,0,1,1.37-.3l1.65-.23.91-.12c.31,0,.63,0,1,0,.65,0,1.31-.05,2,0s1.39.08,2.07.18l1,.17a2,2,0,0,1,.54.16,2.19,2.19,0,0,1,.51.24,6.9,6.9,0,0,1,.86.6,7.88,7.88,0,0,1,.75.64,13.64,13.64,0,0,1,1.3,1.35c.38.45.72.89,1,1.32a11.82,11.82,0,0,1,.74,1.19,5.33,5.33,0,0,1,.42,1,1.24,1.24,0,0,1,0,.7A.7.7,0,0,1,313.3,220.84Z"/><path class="cls-32" d="M300.74,200.92c0,1,0,1.94,0,2.91s0,1.93-.08,2.9a.36.36,0,0,1-.19.31,6.85,6.85,0,0,1-1.4.57H299c-.43,0-.86.09-1.29.08a11,11,0,0,1-1.28,0,13.41,13.41,0,0,1-2.52-.43,14.64,14.64,0,0,1-2.4-.87,12.13,12.13,0,0,1-2.2-1.28.2.2,0,0,1,0-.28.2.2,0,0,1,.27-.06h0a14.38,14.38,0,0,0,2.2,1.06,15,15,0,0,0,2.33.73,12.32,12.32,0,0,0,2.41.37,9.78,9.78,0,0,0,1.21,0c.41,0,.81-.05,1.21-.07l-.06,0a5.91,5.91,0,0,0,1.25-.49l-.19.31c0-1,.12-1.93.18-2.9s.15-1.93.24-2.9a.2.2,0,0,1,.22-.18A.21.21,0,0,1,300.74,200.92Z"/><path class="cls-33" d="M306.57,231.47s1.83.32,4.55.95c1.35.33,2.94.69,4.61,1.16s3.47,1,5.25,1.52c.89.27,1.77.54,2.64.85l2.54.89,2.36.86c.75.29,1.45.52,2.11.82,1.27.57,2.32,1.07,3.06,1.41l1.15.56a.14.14,0,0,1,.06.19.14.14,0,0,1-.17.08l-1.23-.36c-.77-.25-1.89-.58-3.21-1-.62-.22-1.39-.38-2.14-.61l-2.4-.69-2.56-.75c-.87-.28-1.76-.53-2.65-.77-1.78-.5-3.56-1-5.22-1.52s-3.22-.94-4.54-1.36-2.42-.79-3.2-1-1.21-.41-1.21-.41a.41.41,0,0,1-.26-.52A.43.43,0,0,1,306.57,231.47Z"/><path class="cls-33" d="M335.2,230s-.24.62-.64,1.51c-.2.44-.44.95-.72,1.48s-.57,1.12-.88,1.69-.64,1.12-.92,1.65-.58,1-.83,1.42-.48.76-.64,1l-.19.27-.06.1h0a.42.42,0,0,1-.75-.34.39.39,0,0,0,0-.11,3.43,3.43,0,0,1,.1-.33c.09-.27.22-.66.4-1.12s.4-1,.65-1.56.56-1.14.86-1.72.63-1.14.95-1.67.64-1,.93-1.39a13.21,13.21,0,0,1,1-1.3h0a.41.41,0,0,1,.59,0A.43.43,0,0,1,335.2,230Z"/><path class="cls-31" d="M292.25,180.68a1.18,1.18,0,0,1,.11-.22,2.11,2.11,0,0,1,.37-.51,2.19,2.19,0,0,1,.77-.54,1.53,1.53,0,0,1,.54-.14,1.88,1.88,0,0,1,.58,0,2.26,2.26,0,0,1,.54.16,1.82,1.82,0,0,1,.46.25,3.24,3.24,0,0,1,.66.58c.17.19.26.38.35.49l.11.19a.28.28,0,0,1-.11.37.29.29,0,0,1-.27,0l0,0-.17-.12c-.1-.07-.24-.19-.42-.31l-.28-.19c-.1-.07-.21-.1-.32-.17a1.92,1.92,0,0,0-.33-.14,1.89,1.89,0,0,0-.34-.09,1.74,1.74,0,0,0-.32,0,1.65,1.65,0,0,0-.32.06,2.18,2.18,0,0,0-.58.26,2.84,2.84,0,0,0-.41.28l-.14.12a.27.27,0,0,1-.37.07A.26.26,0,0,1,292.25,180.68Z"/><path class="cls-31" d="M314.52,173.49a14.3,14.3,0,0,1,.59,1.5,16.27,16.27,0,0,1,.81,3.48,5.36,5.36,0,0,1,0,1.06c0,.09,0,.18-.05.28l-.12.32v0h0l0,0h0l0,0-.07.09a1.46,1.46,0,0,1-.22.23,1.8,1.8,0,0,1-1,.44,3.61,3.61,0,0,1-.88,0,6,6,0,0,1-1.18-.32l-.43-.19a.27.27,0,0,1,.19-.5h0l.4.08a5.69,5.69,0,0,0,1.08.12,3,3,0,0,0,.67,0,1.1,1.1,0,0,0,.51-.24.3.3,0,0,0,.09-.1l.06-.1,0,0v0h0s0-.05,0,0h0a.5.5,0,0,1,0-.13c0-.05,0-.12,0-.17a4.1,4.1,0,0,0,0-.85c-.05-.59-.17-1.21-.27-1.78s-.23-1.12-.32-1.58c-.19-.93-.31-1.55-.31-1.55a.27.27,0,0,1,.21-.32A.28.28,0,0,1,314.52,173.49Z"/><path class="cls-30" d="M307.37,171.05c-.68-1-2.53.16-3.17.68s-1.16,1.32-.55,1.93,1.64-.32,2.35-.64S308,172,307.37,171.05Z"/><path class="cls-30" d="M315.9,168.92c.43-1.11,2.5-.44,3.25-.09s1.44,1,1,1.76-1.68.07-2.44-.08S315.48,170,315.9,168.92Z"/><path class="cls-31" d="M309.23,218.64a2.08,2.08,0,0,1,.38.39,2.54,2.54,0,0,1,.47,1.1,2.22,2.22,0,0,1,0,.68,1.39,1.39,0,0,1-.24.58,1.17,1.17,0,0,1-.48.36.11.11,0,0,1-.14,0,.11.11,0,0,1,0-.14.58.58,0,0,1,.05-.13,1.35,1.35,0,0,0,.09-.3,2.74,2.74,0,0,0,0-.41,2.94,2.94,0,0,0-.08-.49c-.06-.35-.16-.71-.23-1s-.09-.5-.09-.5a.14.14,0,0,1,.12-.16A.2.2,0,0,1,309.23,218.64Z"/><path class="cls-31" d="M306.64,219.53a4.9,4.9,0,0,1,.41.33,4.06,4.06,0,0,1,.88,1.08,2,2,0,0,1,.28,1,1.61,1.61,0,0,1-.49,1.17l-.19.16a2.43,2.43,0,0,1-.32.18,1.92,1.92,0,0,1-.64.15,3.12,3.12,0,0,1-1.19-.15,4.75,4.75,0,0,1-1.93-1.2,1.94,1.94,0,0,1-.53-1v-.31a1.22,1.22,0,0,1,.07-.25.73.73,0,0,1,.41-.45,1.15,1.15,0,0,1,.88.07,2.62,2.62,0,0,1,.52.32,1.11,1.11,0,0,1,.34.43.1.1,0,0,1-.06.13.09.09,0,0,1-.11,0h0a.93.93,0,0,0-.33-.27,1.65,1.65,0,0,0-.48-.21.85.85,0,0,0-.55,0,.3.3,0,0,0-.12.17.62.62,0,0,0,0,.18v.06s0,0,0,0l0,.07a1.6,1.6,0,0,0,.44.64,4.28,4.28,0,0,0,1.68.91,2.64,2.64,0,0,0,.91.11,1.18,1.18,0,0,0,.37-.09l.14-.06.19-.16a1,1,0,0,0,.25-.57,1.35,1.35,0,0,0-.16-.67,4.14,4.14,0,0,0-.68-1,4.61,4.61,0,0,0-.32-.34.27.27,0,0,1,0-.37.26.26,0,0,1,.34,0Z"/><path class="cls-10" d="M349,211.32c-.76-8.57-1.83-19.24-3.21-19.47a1,1,0,0,0-.26,0c-4.39,15-14.24,28.45-26.24,38.46,6.38-.82,26.64-4.72,29.11-7C349.48,222.27,349.5,217.12,349,211.32Z"/><path class="cls-34" d="M331.33,205.62c-1.65.55-2.67,4.27-1.26,6.38,2,3,6.33,1.73,6.58,0,.32-2.19-2.16-2.69-3.1-3.9C332.78,207.13,332.78,205.13,331.33,205.62Z"/><path class="cls-34" d="M331.69,204.23c-.42,0-.29-3.22,1.16-2.64C334.14,202.1,332.27,204.23,331.69,204.23Z"/><path class="cls-35" d="M308.57,182.33a4.29,4.29,0,1,0-4.29,4.29A4.3,4.3,0,0,0,308.57,182.33Z"/><path class="cls-35" d="M324.85,181.56a3.81,3.81,0,1,0-3.81,3.81A3.81,3.81,0,0,0,324.85,181.56Z"/><ellipse cx="305.92" cy="178.02" rx="1.35" ry="1.55"/><ellipse cx="319.46" cy="175.6" rx="1.35" ry="1.55"/><path d="M308.88,181.6l.08.09.21.2.37.31.52.35c.2.1.41.23.64.34s.49.2.75.29l.83.19.89.07a3.59,3.59,0,0,0,.45,0,2.37,2.37,0,0,0,.41-.06,4.55,4.55,0,0,0,.8-.23,5.21,5.21,0,0,0,.71-.35c.21-.14.41-.27.59-.41a6.8,6.8,0,0,0,.8-.76c.18-.2.27-.32.27-.32h0a.26.26,0,0,1,.37-.05.25.25,0,0,1,.08.31,3.36,3.36,0,0,1-.23.43,5.6,5.6,0,0,1-.77,1,4.93,4.93,0,0,1-1.46,1,4.35,4.35,0,0,1-1,.33,3.93,3.93,0,0,1-.54.08,4.1,4.1,0,0,1-.52,0l-1-.09c-.34-.07-.66-.18-1-.27a7.47,7.47,0,0,1-.85-.4,8.49,8.49,0,0,1-.7-.48,5.53,5.53,0,0,1-.88-.89,3.21,3.21,0,0,1-.26-.4h0a.28.28,0,0,1,.12-.36A.27.27,0,0,1,308.88,181.6Z"/><path class="cls-22" d="M323.24,27.11c-1.16.73,2.7-5-1-15.28-.79-2.21-.19-6,2.32-4.65C328.24,9.15,328.46,23.82,323.24,27.11Z"/><path class="cls-18" d="M127.93,80.3c1.35-.17-5.29-2.17-8.94-12.44-.78-2.2-3.65-4.76-4.74-2.12C112.68,69.57,121.8,81.07,127.93,80.3Z"/><path class="cls-36" d="M211.39,22.34c-1.16-1-2-3.64-2.47-5.07a29.69,29.69,0,0,1-1.42-8.09c-.19-2.87-4.48-2.86-4.52,0,0,3.3,1.2,6.54,2.52,9.51,1,2.27,2.19,4.41,4.54,5.38C211.12,24.56,212.44,23.26,211.39,22.34Z"/><path class="cls-36" d="M219.14,3.82c-.08-2-2.23-2.54-3.62-1.44-4.35,3.45-3.36,11.93-1.2,16.36.86,1.76,3.54.79,3.54-1A48.92,48.92,0,0,1,218,10.6C218.32,8.31,219.24,6.16,219.14,3.82Z"/><path class="cls-21" d="M147.84,241c-.1,1.54-1.69,3.78-2.51,5.06a29.55,29.55,0,0,1-5.54,6.06c-2.16,1.9.47,5.29,2.8,3.55,2.64-2,4.44-4.94,6-7.8,1.19-2.19,2.16-4.42,1.5-6.87C149.76,239.89,147.93,239.64,147.84,241Z"/><path class="cls-22" d="M128.44,246.19c-1.52,1.28-.65,3.32,1.07,3.75,5.39,1.34,11.5-4.62,13.69-9,.87-1.74-1.53-3.28-2.94-2.2a49.13,49.13,0,0,1-5.75,4.26C132.5,244.1,130.23,244.69,128.44,246.19Z"/><path class="cls-22" d="M351.87,179.75c-.49,1.82,18.19,11.61,37.92,4.26s21.19-22.13,12.77-24.76c-6.19-1.94-9.93,12.76-23.09,18.18C362.71,184.34,352.26,178.34,351.87,179.75Z"/><path class="cls-37" d="M186.78,207.1s13.54-3.29,17.67-.45,9.11,9.86,3.48,15.67c-6.19,6.38-19.34,22.63-19.73,20.31-1.16-6.95-29.54-25-22.31-32.18S183.43,208.13,186.78,207.1Z"/><path class="cls-38" d="M155.65,131c.61,2.53,2.18,10.7-.92,18l.19.08s2.39,5.54,2.19,6.32.2,4.59,1.55,6.19c1.63,1.93,6.9,4,11.86,3.91v.22l.64,5a11.34,11.34,0,0,0-1.71-.19,8,8,0,0,0-5.25,1.35c-2.58,2.06-4.84,6.42-4.84,6.42l-.05,0c-1.67-1.92-5.57-6.29-6.33-5.69-.42.34-.73,3.94-.9,8-3.42,2.35-7.61-1.36-7.61-4.53s-5.45-.81-7.1-6.46c-1.8-6.19,2.84-10.44,5.93-14.7s2-21.47,3.87-26.12c2.52-6.19,6.58-4.45,6.58-4.45s12.61-12.3,24.57-9.09c10.84,2.9,13.93,20.12,19,23s12.77,5.81,12.77,12.19-3.87,9.09-1.16,13c2,2.81,3.87,7.35.39,10.84-4.45,4.45-9.1,3.87-9.1,3.87l-.68.09A32.1,32.1,0,0,0,197.1,172c-2.32-3.86-5-3-5-3l0-.05a11.43,11.43,0,0,0-2.27,3.28,5,5,0,0,1-2.49,2.47c-2.81,1.22-6.46-.65-7.44-3.25a12.38,12.38,0,0,1-.52-1.71,17.45,17.45,0,0,1-.05-7.61,19.87,19.87,0,0,0,5.75-8.74,5.84,5.84,0,0,0,4.17-4.25c1-3.58-1.07-7.94-4.36-7a5,5,0,0,0-3.19,3.39,4.67,4.67,0,0,1-2.64-2.7l-.07-.38a17.38,17.38,0,0,1-6.68-.12A27.48,27.48,0,0,1,155.65,131Z"/><path class="cls-39" d="M184.81,142.22a5,5,0,0,0-3.19,3.39,4.67,4.67,0,0,1-2.64-2.7l-.07-.38a17.38,17.38,0,0,1-6.68-.12A27.48,27.48,0,0,1,155.65,131c.61,2.53,2.18,10.7-.92,18l.19.08s2.39,5.54,2.19,6.32.2,4.59,1.55,6.19c1.63,1.93,6.9,4,11.86,3.91v.22l.64,5a7.59,7.59,0,0,0,8-.91l.13,0a17.45,17.45,0,0,1-.05-7.61,19.87,19.87,0,0,0,5.75-8.74,5.84,5.84,0,0,0,4.17-4.25C190.2,145.61,188.1,141.25,184.81,142.22Z"/><path class="cls-40" d="M194.78,246.11c1.54,3.1-.58,11.22-1.94,11.42s0-2.9-1.35-6.39a5.16,5.16,0,0,0-2.27-2h0c1.53-1.19,3.06-5.69,3.32-6.46A27.24,27.24,0,0,1,194.78,246.11Z"/><path class="cls-40" d="M186.71,287.57c.71,3,1.09,5.29.85,6.21-1,3.87-4.14,7-5.42,6.71s2.06-5.68-.52-10.07c3.1,0,5-2.84,5-2.84Z"/><path class="cls-41" d="M186.71,287.57h-.06s-1.93,2.84-5,2.84C179,286,158.92,259.21,162,245.28a35.54,35.54,0,0,1,1.79-5.61c8.2,2.83,16.11,5.39,21.37,7.58-3,4.47-5.31,8.05-5.63,9.64C178.77,260.82,184.43,277.94,186.71,287.57Z"/><path class="cls-41" d="M163.81,239.67c-3.56-1.23-7.16-2.49-10.63-3.81-16.83-6.39-7.35-19.35-1.93-24.38s20.7-12,20.7-12l.05-.07a21.4,21.4,0,0,0,10,3.94c8.57,1.29,13.88-.78,15-3.14l.28.14s7.93,4.93,6.25,16.54c-.65,4.54-7.17,14.19-13.26,23,.88,1,1.63,2,2.27,2.82-.26.77-1.79,5.27-3.32,6.46h0a38.56,38.56,0,0,0-4-1.91C179.92,245.06,172,242.5,163.81,239.67Z"/><path class="cls-42" d="M154.24,182.18c-.22-.41-1.14.28-2.1,1.12l-.14-.16c0-.4,0-.81,0-1.21s0-.84.05-1.25c.17-4.08.48-7.68.9-8,.76-.6,4.66,3.77,6.33,5.69.47.54.76.89.76.89s-.71,12.56-.71,20.23c-2-.91-6.62-5.67-7.16-6.56a8.46,8.46,0,0,1-.23-2.24c2.07-.7,4.27-3.38,4.13-3.76-.2-.6-3.07.82-3.37,1,.29-.29,3.27-3.07,3-3.88s-3.59,1.63-3.94,1.89C152.08,185.57,154.62,182.86,154.24,182.18Z"/><path class="cls-43" d="M173.5,185.9c-.52-.37-1-.54-1.36-.24-1,.9,1,3,1,3-1.29-.38-6.45-3.73-6.83-2.83s3.13,3.94,3.34,4.12c-.23-.14-4.64-2.8-4.89-1.8s3.69,4,4,4.25c-.29-.08-4-1.26-4.11-.77s2.06,2.06,7.48,4.26l.58.23-.07,2.29-1.54.19c-3.13.37-10,1.18-11.23,1a1.81,1.81,0,0,1-.45-.15c0-7.67.71-20.23.71-20.23l6.71-1.24c3.32-.61,6.71-1.21,7.09-1.21C174.63,176.79,173.59,185.19,173.5,185.9Z"/><path class="cls-44" d="M197.08,200a.83.83,0,0,1-.07.18c-1.12,2.36-6.43,4.43-15,3.14a21.4,21.4,0,0,1-10-3.94,11,11,0,0,1-.95-.83l1.54-.19.07-2.29C177.38,197.88,190.1,201.35,197.08,200Z"/><path class="cls-44" d="M171.17,170.73a7.59,7.59,0,0,0,8-.91l.13,0a12.38,12.38,0,0,0,.52,1.71c1,2.6,4.63,4.47,7.44,3.25-.14,1.31-.53,6.78,2.49,8,.59,2.67,1.27,5.93,1.41,7.45v.16c-5.8-.15-15.33-2.09-15.33-2.09a12.83,12.83,0,0,0-2.32-2.37c.09-.71,1.13-9.11.38-9.11-.38,0-3.77.6-7.09,1.21V178a20.8,20.8,0,0,1,2.67-7.41A11.34,11.34,0,0,1,171.17,170.73Z"/><path class="cls-39" d="M164.21,171.89a8,8,0,0,1,5.25-1.35,20.8,20.8,0,0,0-2.67,7.41V178l-6.71,1.24s-.29-.35-.76-.89l.05,0S161.63,174,164.21,171.89Z"/><path class="cls-39" d="M154.24,182.18c.38.68-2.16,3.39-2.45,3.71.35-.26,3.66-2.69,3.94-1.89s-2.7,3.59-3,3.88c.3-.15,3.17-1.57,3.37-1,.14.38-2.06,3.06-4.13,3.76a2.44,2.44,0,0,1-.44.13c-1.35.27-3.16-2-2.72-4.9a5.58,5.58,0,0,1,3.16-4H152c0,.4,0,.81,0,1.21l.14.16C153.1,182.46,154,181.77,154.24,182.18Z"/><path class="cls-39" d="M197.08,200c-7,1.31-19.7-2.16-24.42-3.93l-.58-.23c-5.42-2.2-7.62-3.74-7.48-4.26s3.82.69,4.11.77a0,0,0,0,0,0,0h0c-.29-.22-4.24-3.26-4-4.25s4.66,1.66,4.89,1.8c-.21-.18-3.72-3.24-3.34-4.12s5.54,2.45,6.83,2.83c0,0-2-2.09-1-3,.33-.3.84-.13,1.36.24a12.83,12.83,0,0,1,2.32,2.37s9.53,1.94,15.33,2.09v-.16c-.14-1.52-.82-4.78-1.41-7.45-3-1.22-2.63-6.69-2.49-8a5,5,0,0,0,2.49-2.47A11.43,11.43,0,0,1,192,169l0,.05s2.71-.9,5,3a32.1,32.1,0,0,1,2.41,6.29c1.88,6.38,3.48,15.27,2,18.87C200.92,198.74,199.29,199.63,197.08,200Z"/><path class="cls-37" d="M179.25,162.18a14,14,0,0,1-6.14,3,14.89,14.89,0,0,1-2.59.3v.22l.22,1.73a11.9,11.9,0,0,0,8.23-3.67A14.61,14.61,0,0,1,179.25,162.18Z"/><path class="cls-45" d="M178.4,119.78c-1.49.78,2.45,4,.9,4.64-1.07.45-4.9-3-6.71-1.29s1.42,5.94-.13,6.71-8.65-4.87-9.28-2.32c-1.29,5.16,13,13.65,17.54,11.09,3-1.68-1.81-6.71-.26-8.51s4.9.69,6.06-1.29C188.33,125.71,180.59,118.62,178.4,119.78Z"/><path class="cls-46" d="M182.71,148.17a4,4,0,0,1,.11-.9,4.25,4.25,0,0,1,.31-.88,3.53,3.53,0,0,1,.66-.93,2.43,2.43,0,0,1,1-.6,1.83,1.83,0,0,1,.55-.08,1.54,1.54,0,0,1,.49.05,2.12,2.12,0,0,1,.65.22l.23.12a.26.26,0,0,1,.09.36.24.24,0,0,1-.24.13h-.26l-.24,0c-.1,0-.2,0-.3,0a1,1,0,0,0-.34,0l-.17,0-.16.07a1.48,1.48,0,0,0-.33.17,2.42,2.42,0,0,0-.31.25,4.28,4.28,0,0,0-.52.67c-.15.24-.28.48-.39.69-.22.43-.35.73-.35.73a.26.26,0,0,1-.35.14A.29.29,0,0,1,182.71,148.17Z"/><path d="M171,148.71a1.78,1.78,0,0,1,1-2.3,1.62,1.62,0,0,1,.9-.06,3.13,3.13,0,0,0,.29-.42c.52-.94.41-1.43.66-1.43a2.66,2.66,0,0,1,.09,2.49,1.81,1.81,0,0,1,.31.54,1.74,1.74,0,1,1-3.26,1.18Z"/><path d="M158.11,151c.15-.16.38.23,1.29.51a3.12,3.12,0,0,0,.44.09,1.39,1.39,0,0,1,.61-.51,1.6,1.6,0,1,1-.76,2.08,2,2,0,0,1-.13-.53C158.55,152.22,158,151.13,158.11,151Z"/><path class="cls-47" d="M164.9,153c0-.8.58-2.71,2-3a2.33,2.33,0,0,1,2.48,2.1,2.64,2.64,0,0,1-2.22,2.23A1.86,1.86,0,0,1,164.9,153Z"/><path class="cls-48" d="M168.13,153.78c-.14,0,.69-1.05,1-.93S168.64,153.91,168.13,153.78Z"/><path class="cls-46" d="M165.69,150.84a2.69,2.69,0,0,0-.5.54,3.2,3.2,0,0,0-.36.67,2.4,2.4,0,0,0-.13.9,1.1,1.1,0,0,0,.17.51,2.56,2.56,0,0,0,.26.36,2.25,2.25,0,0,0,.63.48,1.43,1.43,0,0,0,.54.16h.22a.17.17,0,0,0,.14-.18.16.16,0,0,0-.11-.13h0l-.16-.06a1.67,1.67,0,0,1-.38-.21,2,2,0,0,1-.44-.43,1.38,1.38,0,0,1-.19-.28.75.75,0,0,1-.08-.27,2.46,2.46,0,0,1,.3-1.29,4.25,4.25,0,0,1,.32-.56.16.16,0,0,0,0-.22A.17.17,0,0,0,165.69,150.84Z"/><path class="cls-47" d="M181.55,151.8a3.77,3.77,0,1,0-3.77,3.77A3.77,3.77,0,0,0,181.55,151.8Z"/><path class="cls-47" d="M165.69,157.6a3.77,3.77,0,1,0-3.77,3.78A3.77,3.77,0,0,0,165.69,157.6Z"/><path class="cls-49" d="M161.42,146.23c-.18-.43-1.61-.88-3.09.1s-1.79,2.56-1.47,2.93.84-.24,1.93-1.13S161.84,147.25,161.42,146.23Z"/><path class="cls-49" d="M168.25,143.68c-.15-.44.64-1.72,2.4-2s3,.77,3,1.25-.79.38-2.19.42S168.59,144.73,168.25,143.68Z"/><path class="cls-50" d="M154.31,128.47l.22.36c.13.25.37.57.66,1s.61.93,1.07,1.5,1,1.18,1.53,1.83a30.55,30.55,0,0,0,4.38,4A26.46,26.46,0,0,0,165,139c.49.29,1,.54,1.52.81s1.05.49,1.58.71a26.15,26.15,0,0,0,3.26,1.12l.82.22a8.07,8.07,0,0,0,.82.15,12.42,12.42,0,0,0,1.64.23,18.75,18.75,0,0,0,3.09,0c.49-.06,1-.08,1.43-.17s.92-.16,1.35-.26l1.2-.32,1.07-.34c.67-.24,1.25-.46,1.72-.68.93-.41,1.43-.7,1.43-.7h0a.14.14,0,0,1,.19.05.15.15,0,0,1,0,.18l-.36.24c-.24.15-.58.38-1.05.62a17.21,17.21,0,0,1-1.7.82l-1.08.43-1.24.4c-.43.12-.88.21-1.34.33s-1,.16-1.5.25a16.89,16.89,0,0,1-3.29.11,15.6,15.6,0,0,1-1.69-.2c-.29-.06-.54-.07-.88-.16l-.86-.21a26.58,26.58,0,0,1-3.41-1.11c-.57-.21-1.1-.5-1.65-.74s-1.06-.56-1.56-.87a27,27,0,0,1-5.31-4.1c-.72-.74-1.37-1.46-1.94-2.16a24.06,24.06,0,0,1-1.46-2c-.4-.59-.71-1.17-1-1.62a9.68,9.68,0,0,1-.58-1.06l-.18-.38a.17.17,0,0,1,.08-.24A.19.19,0,0,1,154.31,128.47Z"/><path class="cls-50" d="M155.83,131s.11.31.27.87.37,1.36.54,2.34a29.2,29.2,0,0,1,.42,3.37c.05.63.06,1.27.06,1.93s0,1.32-.09,2-.15,1.33-.23,2-.24,1.29-.4,1.89a16,16,0,0,1-.53,1.73c-.18.55-.4,1-.6,1.5a9.22,9.22,0,0,1-.61,1.22,7.67,7.67,0,0,1-.53.9c-.32.49-.51.76-.51.76a.13.13,0,0,1-.19,0,.14.14,0,0,1,0-.17h0l.37-.81c.12-.25.26-.57.4-.94s.3-.79.45-1.25.32-.95.45-1.49.27-1.1.39-1.69.21-1.21.31-1.83.17-1.27.2-1.91.07-1.28.1-1.92,0-1.26,0-1.86c0-1.21-.08-2.35-.19-3.31s-.17-1.78-.26-2.34-.13-.9-.13-.9a.18.18,0,0,1,.16-.2.18.18,0,0,1,.19.12Z"/><path class="cls-46" d="M169.53,190h0l-.32-.13-.34-.15c-.21-.11-.43-.24-.63-.37a6.47,6.47,0,0,1-1.15-.94,6.66,6.66,0,0,1-.49-.59,4.14,4.14,0,0,1-.37-.69,2.72,2.72,0,0,1-.11-.38,1.37,1.37,0,0,1-.05-.4,1.08,1.08,0,0,1,0-.4c0-.08,0-.1.05-.22l0,0a.3.3,0,0,1,.08-.08l.11,0a.1.1,0,0,1,.12.07.09.09,0,0,1,0,.1h0s0,0,0,.05h0v0s0,.1,0,.14a1.57,1.57,0,0,0,.08.31,1.36,1.36,0,0,0,.13.3,1.91,1.91,0,0,0,.15.28,6.42,6.42,0,0,0,.38.53c.16.16.29.34.46.49.32.32.66.63,1,.94l.52.47.26.25a2.28,2.28,0,0,1,.27.27h0a.14.14,0,0,1,0,.19A.19.19,0,0,1,169.53,190Z"/><path class="cls-46" d="M168.63,192.5l-.24-.08c-.16-.06-.4-.12-.68-.24a7.25,7.25,0,0,1-.91-.47,5.74,5.74,0,0,1-1-.73,4.59,4.59,0,0,1-.77-.94,3.44,3.44,0,0,1-.25-.51,2.46,2.46,0,0,1-.16-.48,2.76,2.76,0,0,1-.07-.75v-.14c0-.09,0,0,0-.06l0,0a.39.39,0,0,1,.08-.09.05.05,0,0,1,.08,0h0l.06.1v.06s0,.06,0,0v0a1,1,0,0,1,0,.1,3.33,3.33,0,0,0,.25.62c0,.12.15.24.22.38s.19.25.28.39a6.56,6.56,0,0,0,.73.77,18.12,18.12,0,0,0,1.61,1.26l.57.42a1.24,1.24,0,0,1,.22.18h0a.13.13,0,0,1-.15.21Z"/><path class="cls-51" d="M171.36,170.37l.33.07c.22,0,.52.1.89.15l.59.07c.21,0,.43,0,.65.05s.46,0,.7,0a5.74,5.74,0,0,0,.71,0,5.62,5.62,0,0,0,.7-.1c.23,0,.45-.1.67-.15s.42-.13.61-.19a4.89,4.89,0,0,0,.55-.21c.17-.08.34-.12.47-.2l.36-.17.32-.14,0,0a.41.41,0,0,1,.54.21.39.39,0,0,1-.07.44,3.37,3.37,0,0,1-.27.28l-.32.32a3.83,3.83,0,0,1-.47.35,3.12,3.12,0,0,1-.59.37,4.79,4.79,0,0,1-.72.34,6.77,6.77,0,0,1-.8.25,7,7,0,0,1-1.74.19,7.33,7.33,0,0,1-.83-.07,7,7,0,0,1-1.43-.38,5.33,5.33,0,0,1-.93-.46,2.65,2.65,0,0,1-.33-.24.41.41,0,0,1-.18-.55A.4.4,0,0,1,171.36,170.37Z"/><path class="cls-51" d="M187.56,175l-.05.09a1.17,1.17,0,0,0,0,.11l0,.07a1.82,1.82,0,0,1,0,.31c0,.15,0,.32,0,.51s0,.41.06.63.06.46.1.7A14,14,0,0,0,188,179c.08.25.13.5.23.73a4.31,4.31,0,0,0,.27.69,4.8,4.8,0,0,0,.3.6c.09.2.22.34.31.51a4.53,4.53,0,0,0,.32.38,1.37,1.37,0,0,0,.27.27l.26.24.07.07a.4.4,0,0,1,0,.57.41.41,0,0,1-.42.1l-.41-.16a1.66,1.66,0,0,1-.45-.24,3.56,3.56,0,0,1-.54-.4,4.19,4.19,0,0,1-.53-.57,4.64,4.64,0,0,1-.48-.71,5.05,5.05,0,0,1-.39-.81,8.75,8.75,0,0,1-.3-.86,8.58,8.58,0,0,1-.28-1.76,7.21,7.21,0,0,1,.06-1.57,4.87,4.87,0,0,1,.15-.63,2.49,2.49,0,0,1,.23-.55c.05-.1.11-.17.15-.24l.1-.08.08-.06a.41.41,0,0,1,.58.07.39.39,0,0,1,0,.45Z"/><path class="cls-46" d="M154.14,182.26l0,0s0,0-.05,0a1.46,1.46,0,0,0-.39.26c-.18.14-.38.32-.61.51l-.71.63a13.83,13.83,0,0,1-1.42,1.1c-.42.27-.72.42-.72.42a.09.09,0,0,1-.13,0,.09.09,0,0,1,0-.1h0s.19-.28.51-.67a13.56,13.56,0,0,1,1.26-1.29c.1-.1.25-.21.37-.31s.26-.2.39-.3a4.7,4.7,0,0,1,.77-.44,1.29,1.29,0,0,1,.71-.12.39.39,0,0,1,.24.16l0,.05a.14.14,0,0,1-.06.18A.17.17,0,0,1,154.14,182.26Z"/><path class="cls-46" d="M155.61,184.06l0,0c0-.05,0,0-.05,0a1.7,1.7,0,0,0-.36.15c-.34.17-.81.48-1.29.76s-1,.56-1.36.74-.67.29-.67.29a.1.1,0,0,1-.13-.06.09.09,0,0,1,0-.1,5.75,5.75,0,0,1,.49-.55,8.78,8.78,0,0,1,1.26-1,4.47,4.47,0,0,1,1.52-.64,1,1,0,0,1,.66.06.32.32,0,0,1,.17.19v.05a.13.13,0,0,1-.1.16A.15.15,0,0,1,155.61,184.06Z"/><path class="cls-46" d="M156,187v0s0-.06,0,0,0,0,0,0h0c0,.05,0,0,0,0v0s0,0,0,0h0l-.16.05c-.27.09-.7.27-1.13.42a12,12,0,0,1-1.22.39c-.35.08-.6.11-.6.11s-.11,0-.11-.09a.1.1,0,0,1,0-.09,4.09,4.09,0,0,1,.46-.4,6,6,0,0,1,1.17-.64,3.41,3.41,0,0,1,1.37-.27.94.94,0,0,1,.32.08.65.65,0,0,1,.15.1c.06.06.1.13.09.14v0s0,0,0,0v0a.21.21,0,0,1,0,.08c0,.07,0,0,0,.07l0,0h0a.13.13,0,0,1-.19.05A.11.11,0,0,1,156,187Z"/><path class="cls-52" d="M171.6,225.6a.53.53,0,0,1-.27-.08.51.51,0,0,1-.16-.69c1.73-2.73,3.44-5.28,4.94-7.53,2.51-3.74,4.67-7,4.75-7.92a.52.52,0,0,1,.55-.46.51.51,0,0,1,.46.55c-.1,1.15-1.76,3.67-4.92,8.39-1.5,2.24-3.21,4.79-4.93,7.5A.49.49,0,0,1,171.6,225.6Z"/><path class="cls-52" d="M176.44,205.58l.24.15c.14.12.37.22.61.39s.5.36.84.54.64.4,1,.62a10.61,10.61,0,0,0,1,.62c.32.19.61.38.86.55.49.34.81.61.81.61l0,0a.33.33,0,0,1,.05.46.33.33,0,0,1-.34.11s-.4-.11-1-.33c-.29-.11-.63-.25-1-.41l-.55-.26c-.18-.1-.35-.22-.53-.33-.34-.24-.69-.48-1-.72a5.83,5.83,0,0,1-.8-.74A4.18,4.18,0,0,1,176,206a.34.34,0,0,1,.47-.46Z"/><path class="cls-52" d="M192,242.5l-1-1.12-1.11-1.27-1.53-1.61c-.55-.62-1.2-1.18-1.86-1.83l-1-1-1.12-1c-.75-.67-1.52-1.38-2.37-2s-1.66-1.33-2.53-2l-2.63-1.85c-.87-.59-1.78-1.1-2.64-1.63l-1.26-.78c-.42-.24-.85-.45-1.25-.67l-2.31-1.21c-.7-.4-1.4-.65-2-.93l-1.55-.69-1.36-.61h0a.32.32,0,0,1-.16-.43.34.34,0,0,1,.41-.18l1.41.52,1.61.6a21.1,21.1,0,0,1,2.08.84l2.38,1.15c.43.21.87.41,1.3.64l1.31.76c.88.53,1.81,1,2.71,1.64l2.69,1.85c.9.63,1.72,1.36,2.57,2s1.63,1.39,2.39,2.07l1.12,1c.35.36.69.7,1,1,.65.69,1.3,1.31,1.82,1.93l1.45,1.69,1.05,1.38.9,1.19a.33.33,0,0,1-.51.41Z"/><path class="cls-52" d="M143.75,223.87s0,.22,0,.62a10.25,10.25,0,0,0,.08,1.72,8.9,8.9,0,0,0,.75,2.54,10,10,0,0,0,2,2.74,15.29,15.29,0,0,0,3.28,2.35,29.52,29.52,0,0,0,4.18,1.79l9.51,3.29,9.52,3.26c1.52.51,3,1,4.36,1.57l3.89,1.5,3.27,1.28c1,.36,1.8.8,2.48,1.1s1.2.64,1.56.82l.55.3a.34.34,0,0,1,.13.45.33.33,0,0,1-.42.14h0l-.55-.26c-.36-.16-.87-.42-1.56-.7s-1.52-.67-2.51-1l-3.31-1.15c-1.2-.44-2.51-.9-3.89-1.39s-2.86-1-4.38-1.5l-9.53-3.27-9.43-3.51a22.8,22.8,0,0,1-4.25-2,15.66,15.66,0,0,1-3.32-2.63,9.7,9.7,0,0,1-1.94-3,8.9,8.9,0,0,1-.51-4.43C143.72,224.09,143.75,223.87,143.75,223.87Z"/><path class="cls-50" d="M179.25,162.18s0,.46-.06,1.27c0,.4,0,.89,0,1.44s0,1.19.09,1.87a16,16,0,0,0,.3,2.15c.1.38.16.73.3,1.14s.26.78.4,1.16c.05.13.18.37.26.55s.18.31.31.47a6.23,6.23,0,0,0,.82.89,6,6,0,0,0,2.18,1.22,4.89,4.89,0,0,0,2.45.21,3.53,3.53,0,0,0,.58-.16l.15,0h.05l.08,0,.3-.14a4,4,0,0,0,.93-.68,7.49,7.49,0,0,0,1.34-1.93,12.76,12.76,0,0,1,1.3-1.89,6.3,6.3,0,0,1,1.46-1.31,3.21,3.21,0,0,1,1.46-.51,2.14,2.14,0,0,1,1,.16.93.93,0,0,1,.32.18.12.12,0,0,1,0,.19.14.14,0,0,1-.19,0,1.54,1.54,0,0,0-1.11-.18,2.72,2.72,0,0,0-1.22.53A6.43,6.43,0,0,0,191.5,170a12.09,12.09,0,0,0-1.12,1.85,7.87,7.87,0,0,1-1.39,2.21,5.42,5.42,0,0,1-1.14.89l-.3.16-.08,0-.1,0-.18.07a4.44,4.44,0,0,1-.71.21,5.87,5.87,0,0,1-3-.12,6.86,6.86,0,0,1-2.59-1.43,5.1,5.1,0,0,1-1-1.09,4.77,4.77,0,0,1-.39-.66c-.09-.22-.17-.36-.26-.64-.13-.44-.27-.87-.35-1.27s-.15-.85-.21-1.24a15.17,15.17,0,0,1-.12-2.28,21.48,21.48,0,0,1,.36-3.35C179.12,162.62,179.25,162.18,179.25,162.18Z"/><path class="cls-46" d="M189,178.55s.23.7.52,1.78c.14.53.32,1.16.48,1.83.09.34.17.71.25,1.05l.24,1.08c.14.73.29,1.46.42,2.14s.19,1.34.28,1.9c.13,1.11.2,1.85.2,1.85a.21.21,0,0,1-.19.22.2.2,0,0,1-.21-.15v0s-.18-.72-.4-1.8c-.11-.54-.21-1.17-.37-1.84s-.32-1.4-.48-2.13c-.07-.36-.14-.72-.22-1.08s-.14-.7-.21-1c-.16-.68-.27-1.32-.38-1.86-.21-1.09-.32-1.83-.32-1.83a.2.2,0,0,1,.17-.23A.2.2,0,0,1,189,178.55Z"/><path d="M163,156.38l.14.09.4.24a8.33,8.33,0,0,0,1.52.69,6.29,6.29,0,0,0,1.06.29,3.81,3.81,0,0,0,.59.08,4.21,4.21,0,0,0,.62,0,6.32,6.32,0,0,0,1.29-.09,5,5,0,0,0,.65-.13l.29-.07.35-.13.34-.12.28-.14a3.06,3.06,0,0,0,.55-.31,4.15,4.15,0,0,0,.53-.37,3.9,3.9,0,0,0,.48-.42,6.88,6.88,0,0,0,.82-.91,7.9,7.9,0,0,0,.62-.93,11.49,11.49,0,0,0,.75-1.51c.15-.38.22-.6.22-.6h0a.31.31,0,0,1,.6.13,5.76,5.76,0,0,1-.14.69c-.06.21-.13.47-.23.76a7.76,7.76,0,0,1-.39,1,8.06,8.06,0,0,1-.61,1.08,5.12,5.12,0,0,1-.4.55,3.93,3.93,0,0,1-.47.55,4.38,4.38,0,0,1-.54.51,4.64,4.64,0,0,1-.61.46,4.77,4.77,0,0,1-.7.41l-.37.18-.34.12-.35.13c-.18.06-.27.06-.41.1a6.38,6.38,0,0,1-.76.15,7,7,0,0,1-1.51,0,6.62,6.62,0,0,1-1.38-.24,7.08,7.08,0,0,1-1.18-.42,6.78,6.78,0,0,1-2.11-1.42.32.32,0,0,1,0-.44A.3.3,0,0,1,163,156.38Z"/><path class="cls-46" d="M175.88,188.07l.71.17,1.87.42c.78.19,1.7.32,2.67.53.48.09,1,.17,1.51.25s1,.19,1.56.24c1.05.12,2.09.31,3.08.36l1.43.1c.45,0,.88.09,1.28.08,1.58,0,2.64,0,2.64,0h0a.2.2,0,0,1,0,.4s-1.06.09-2.68.17c-.4,0-.84,0-1.3,0l-1.45-.05c-1,0-2.07-.21-3.14-.31-.53-.06-1.06-.18-1.58-.27s-1-.17-1.52-.28c-1-.22-1.9-.42-2.67-.64s-1.42-.41-1.87-.56-.69-.24-.69-.24h0a.21.21,0,0,1-.11-.27A.22.22,0,0,1,175.88,188.07Z"/><path class="cls-37" d="M300.41,132c-8,5.42-19.3,6.29-29,10-10.64,4.06-16.83,9.28-22.06,12-5.85,3-16.12,9.68-13.54,13.55s9.93,13.41,14.32,10.83S254.94,164.86,272,154c13.41-8.53,11.49-2.66,21.73-9.09C302,139.71,301.56,131.25,300.41,132Z"/><path class="cls-53" d="M249.29,90.77a3.66,3.66,0,0,0,.55-.79,2.81,2.81,0,0,0,.22-.51c.88,0,8.32-.11,6.11-8.64l0-.11a5.62,5.62,0,0,0,1.66.47l0,.16c.89,3,.84,5.3.22,7C255.93,94.12,247,93,247,93l-.09-.17A12,12,0,0,0,249.29,90.77Z"/><path class="cls-53" d="M237.41,57.31a5.08,5.08,0,0,1,2-2.41,5.16,5.16,0,0,1,3.73-.72,4,4,0,0,1,2.06,1.11v0a6.83,6.83,0,0,0-5.06,1.59h0c-.62,1.25-1.2,3.58-.46,7.65a1.4,1.4,0,0,0-.77-.16,11,11,0,0,0-2.45.33v0S236.07,60.36,237.41,57.31Z"/><path class="cls-54" d="M239.66,64.58c1,.77,2.25,9.16,3.87,12.12,2.1,3.83,7.85,9,6.53,12.77a2.81,2.81,0,0,1-.22.51,3.66,3.66,0,0,1-.55.79c-5.4,1.44-10.27-16-10.27-16h0c-.72-3.92-1.9-8.93-.09-10.33v0A1.4,1.4,0,0,1,239.66,64.58Z"/><path class="cls-55" d="M234,82.6c2.49-1.17,4.62-2.36,5.17-3.06s.25-2.53-.16-4.76h0s4.87,17.44,10.27,16a12,12,0,0,1-2.37,2c-4.8,3.34-13.52,6.62-15.25,5.58-1.3-.77-4.65-4.77-5.81-12.25h-.73a46.82,46.82,0,0,0,5.52-2c.31,1.25.79,2.62,1.17,2.62a4.3,4.3,0,0,0,3.05-1.7A5.46,5.46,0,0,0,234,82.6Z"/><path class="cls-56" d="M224.44,86.25c-1.55,0-3.61-8.38-3.1-12,.22-1.52,1.5-2.86,3.16-4a52.39,52.39,0,0,1,7.29-3.84,23.63,23.63,0,0,1,4.65-1.63,11,11,0,0,1,2.45-.33v0c-1.81,1.4-.63,6.41.09,10.33.41,2.23.68,4.11.16,4.76s-2.68,1.89-5.17,3.06c-.49-.92-1-1.73-1.23-1.71-.64.09-2.23.58-2.37,1.23a7.18,7.18,0,0,0,.28,2,46.82,46.82,0,0,1-5.52,2,1.84,1.84,0,0,1-.3.07A1.77,1.77,0,0,1,224.44,86.25Z"/><path class="cls-57" d="M245.12,27.05c-3.26,1.05-7.1.92-7.91,2.45-1.29,2.44,2.06,4.64,3,7.35a4.78,4.78,0,0,1-.26,4.26l-.65-.27a3.73,3.73,0,0,0-4.51.14c-2,1.54-1,6,2,7.28l0,.07c3.15,4.06-.13,5.67-2.46,6.83a3.86,3.86,0,0,1-1.07.36,8.44,8.44,0,0,1-6-1.39c-5.93-5.16-7.48-10.19-9.29-14.57S219,32.85,219,32.85c-2.19-5.42,5.16-8.77,5.16-8.77s-2.32-2.06,1.55-5.93,7.61.51,9.29-1,.13-6.84,5.67-7.23,7,7.1,7,7.1c1.81-.91,4,.77,1.94,6.32A6.41,6.41,0,0,1,245.12,27.05Z"/><path class="cls-39" d="M248.56,56.45c1.61-1.73,5.6.1,7.85,3.34h0s-.37,3.27-2.55,4a24.64,24.64,0,0,0-4.48-6.47,7.12,7.12,0,0,0-.92-.72Z"/><path class="cls-39" d="M236.72,48.26c-3-1.25-3.95-5.74-2-7.28a3.73,3.73,0,0,1,4.51-.14l.65.27a4.78,4.78,0,0,0,.26-4.26c-.91-2.71-4.26-4.91-3-7.35.81-1.53,4.65-1.4,7.91-2.45.27.22,1.68,1.54,3.25,5.28.55,1.33,4.73,3.58,4.93,5.13s-1.55,3.1-1.55,3.1,1.65,7.83-.29,9.57-6.1,4.09-8.32,4v0a5.16,5.16,0,0,0-3.73.72,5.08,5.08,0,0,0-2,2.41c-1.7.76-4.46-.08-4.46-.08l.22-1.71a3.86,3.86,0,0,0,1.07-.36c2.33-1.16,4.52-4.13,2.46-6.83Z"/><path class="cls-36" d="M224.44,70.13C227,59.68,233,57.23,233,57.23s2.76.84,4.46.08c-1.34,3-1,7.4-1,7.4v0a23.63,23.63,0,0,0-4.65,1.63,52.39,52.39,0,0,0-7.29,3.84Z"/><path class="cls-36" d="M256.69,60.19c2.19,3.48,9.87,15.66,4,20.25a3.57,3.57,0,0,1-2.81.75,5.62,5.62,0,0,1-1.66-.47l0,.11c2.21,8.53-5.23,8.66-6.11,8.64,1.32-3.82-4.43-8.94-6.53-12.77-1.62-3-2.84-11.35-3.87-12.12-.74-4.07-.16-6.4.46-7.65h0a6.83,6.83,0,0,1,5.06-1.59,6.16,6.16,0,0,1,1.05.22,7.37,7.37,0,0,1,2.2,1.07,7.12,7.12,0,0,1,.92.72,24.64,24.64,0,0,1,4.48,6.47c2.18-.74,2.55-4,2.55-4h0C256.51,59.92,256.6,60.05,256.69,60.19Z"/><path class="cls-36" d="M229.24,104.84a3.5,3.5,0,0,1-1.71-1.18c-.74-1-2.16-9-2.7-17.47a1.84,1.84,0,0,0,.3-.07h.73c1.16,7.48,4.51,11.48,5.81,12.25,1.73,1,10.45-2.24,15.25-5.58L247,93s8.92,1.16,11.06-4.64l.06,0a20.66,20.66,0,0,0,2.55,4.35,2.41,2.41,0,0,1-.09,1.35C258.61,100.08,236.3,107.39,229.24,104.84Z"/><path class="cls-58" d="M292.28,133.32c.78,2.07,5.68-2.06,6.19-.77s-4.9,9-7.48,9.55c-.69.14-1.79-1.13-3.07-3.11C290.49,137.69,292.28,133.32,292.28,133.32Z"/><path class="cls-58" d="M244.54,165.6c-.57,3.82,3,7.75,2.09,8.23s-4.39-1.82-7.49-6.46c-.91-1.37-1.06-3.62-.8-6.31C238.9,161.85,241.84,165.78,244.54,165.6Z"/><path class="cls-59" d="M255.39,113.72s1.3,11.86,1.81,17c.8,8-10.84,29.67-12.39,33.8a5,5,0,0,0-.27,1.06c-2.7.18-5.64-3.75-6.2-4.54.61-6.41,3.53-15.32,3.9-20.77a35.81,35.81,0,0,0-7.48-23.22,25.54,25.54,0,0,1-5.52-12.23c7.06,2.55,29.37-4.76,31.35-10.8l.22.08s18.32,7.47,22.44,11.61,8.26,25.53,9,27.59c0,0-1.79,4.37-4.36,5.67-3.54-5.41-8.52-16.15-10.6-18.05C274.48,118.36,263.87,113,255.39,113.72Z"/><path class="cls-60" d="M234,82.6c-.49-.92-1-1.73-1.23-1.71-.64.09-2.23.58-2.37,1.23a7.18,7.18,0,0,0,.28,2c.31,1.25.79,2.62,1.17,2.62a4.3,4.3,0,0,0,3.05-1.7A5.46,5.46,0,0,0,234,82.6Z"/><path class="cls-61" d="M236.88,107s.11.12.33.32.58.51,1,.88a18.7,18.7,0,0,0,1.74,1.21c.34.22.72.43,1.12.65s.83.43,1.28.65a26.83,26.83,0,0,0,3,1.17c.54.18,1.12.3,1.7.46s1.19.23,1.81.35,1.25.15,1.89.22,1.3.06,1.95.09,1.33,0,2,0l2.08-.07c.71,0,1.46,0,2.16.12s1.4.15,2.08.29,1.36.27,2,.44,1.3.35,1.93.54a37.38,37.38,0,0,1,3.54,1.31l1.59.71,1.46.72c.93.48,1.75,1,2.47,1.42s1.32.88,1.81,1.24a12,12,0,0,1,1.08.91l.36.34-.41-.29c-.25-.2-.67-.43-1.17-.75s-1.16-.65-1.91-1-1.61-.74-2.55-1.16l-1.48-.6-1.6-.58c-1.12-.37-2.3-.72-3.53-1-.62-.16-1.24-.32-1.88-.44l-1-.19-1-.15c-.65-.12-1.31-.15-2-.22s-1.3-.06-2-.06l-2,.09c-.7,0-1.4.1-2.1.07s-1.39,0-2.07-.09-1.36-.15-2-.26-1.3-.24-1.92-.4-1.22-.34-1.8-.55a21.32,21.32,0,0,1-3.15-1.37,17.75,17.75,0,0,1-2.46-1.54A18.43,18.43,0,0,1,237.6,109a11.45,11.45,0,0,1-1-1c-.23-.26-.33-.4-.33-.4h0a.41.41,0,0,1,.08-.57A.43.43,0,0,1,236.88,107Z"/><path class="cls-62" d="M240,56.76l.22-.18a7.86,7.86,0,0,1,.69-.49,7,7,0,0,1,1.17-.61,5.91,5.91,0,0,1,1.66-.45,4.61,4.61,0,0,1,1,0c.18,0,.32,0,.55,0l.5.1.52.09.07,0h0l.06,0,.13,0,.25.1a5,5,0,0,1,1,.47l.53.3c.09.06.17.09.28.17l.23.18.46.37.12.09.06,0h0l0,.05,0,0,.21.22a12.49,12.49,0,0,1,1.58,1.85c.24.34.51.67.72,1s.42.69.62,1c.43.68.78,1.38,1.16,2s.7,1.31,1,1.92.66,1.17.95,1.7l.85,1.4c.24.42.51.75.71,1l.63.9v0a.2.2,0,0,1-.33.24l-.69-.88a12.51,12.51,0,0,1-.77-1c-.28-.41-.6-.86-.93-1.38-.64-1-1.36-2.26-2.09-3.58-.38-.65-.74-1.35-1.17-2l-.62-1c-.21-.34-.45-.63-.68-.95a10.53,10.53,0,0,0-.71-.94c-.28-.29-.55-.58-.82-.88l-.2-.21,0,0h0s.07.07,0,0v0l-.06,0-.12-.09-.46-.37-.22-.18L248,56.8l-.45-.27a5.18,5.18,0,0,0-1-.46l-.26-.1-.12,0-.06,0h-.06c.11,0,0,0,0,0l-.51-.12-.5-.11-.45,0a4.38,4.38,0,0,0-.89,0,6.24,6.24,0,0,0-1.54.33,7.49,7.49,0,0,0-1.12.51,6.52,6.52,0,0,0-.9.6.21.21,0,1,1-.26-.32h0Z"/><path class="cls-62" d="M246.8,71.11s.35.52,1,1.41,1.68,2.13,3,3.52A28.34,28.34,0,0,0,253,78.17a14.68,14.68,0,0,0,2.77,1.93l.38.2.18.09.22.07a4.17,4.17,0,0,0,.85.27l.41.08a2.54,2.54,0,0,0,.43,0,2.78,2.78,0,0,0,.84-.07,3.72,3.72,0,0,0,.79-.28l.37-.24.16-.1.18-.16c.11-.1.25-.21.35-.32l.27-.32a4.08,4.08,0,0,0,.48-.74,6.81,6.81,0,0,0,.66-3.52,16.19,16.19,0,0,0-.63-3.56,37.41,37.41,0,0,0-2.43-6c-.85-1.71-1.63-3.11-2.19-4.07l-.9-1.52a.2.2,0,0,1,.07-.28.19.19,0,0,1,.27.07l1,1.48c.59,1,1.44,2.33,2.34,4a36,36,0,0,1,2.57,6.11,17.13,17.13,0,0,1,.69,3.72,7.59,7.59,0,0,1-.73,3.92,4.77,4.77,0,0,1-.56.87l-.35.4c-.12.13-.24.22-.36.33l-.18.15-.24.16-.45.28a4.85,4.85,0,0,1-1,.35,3.72,3.72,0,0,1-1,.07,3.31,3.31,0,0,1-.5,0l-.5-.1a4.85,4.85,0,0,1-.91-.29l-.21-.08a1.67,1.67,0,0,1-.23-.11l-.42-.21a15.33,15.33,0,0,1-2.88-2.06,31,31,0,0,1-2.22-2.23,43.92,43.92,0,0,1-2.91-3.66c-.65-.92-1-1.47-1-1.47a.2.2,0,0,1,.07-.28A.21.21,0,0,1,246.8,71.11Z"/><path class="cls-63" d="M240.75,55.5a3.68,3.68,0,0,0-.13.38c-.09.23-.18.57-.31,1a5.92,5.92,0,0,0-.18.67c0,.24-.13.49-.17.75l-.15.81a7.9,7.9,0,0,0-.11.85l-.09.84a5.68,5.68,0,0,0,0,.82c0,.27,0,.53,0,.78a3.9,3.9,0,0,0,0,.69c.08.85.1,1.43.1,1.43v0a.19.19,0,0,1-.19.21.21.21,0,0,1-.21-.15s-.14-.58-.31-1.46a3.93,3.93,0,0,1-.09-.72c0-.25,0-.53,0-.81a8.22,8.22,0,0,1,0-.86c0-.3,0-.59.08-.89a13.26,13.26,0,0,1,.31-1.73,5.92,5.92,0,0,1,.23-.78c.09-.24.15-.47.24-.68.17-.41.33-.75.46-1a2.79,2.79,0,0,1,.21-.35h0a.2.2,0,0,1,.28-.05A.19.19,0,0,1,240.75,55.5Z"/><path class="cls-64" d="M239.14,74.74c.58,1.57,1.15,3.14,1.77,4.69.32.78.61,1.55.94,2.32s.68,1.52,1,2.27a25.53,25.53,0,0,0,2.46,4.29A8,8,0,0,0,247,90.06a3.38,3.38,0,0,0,1.05.54,2.76,2.76,0,0,0,1.18.07h0a.11.11,0,0,1,.13,0,.1.1,0,0,1,0,.14l-.09,0h0a2.52,2.52,0,0,1-1.31.07,3.94,3.94,0,0,1-1.23-.48,8.4,8.4,0,0,1-1.91-1.75,16.87,16.87,0,0,1-1.46-2.11c-.43-.73-.83-1.47-1.21-2.23a47.68,47.68,0,0,1-1.91-4.7,44.8,44.8,0,0,1-1.39-4.85.14.14,0,0,1,.1-.16A.13.13,0,0,1,239.14,74.74Z"/><path class="cls-46" d="M252.11,58.1l-.35-.13a2.26,2.26,0,0,0-.33-.13c-.12,0-.21-.1-.33-.12l-.32-.09-.33-.07a1.73,1.73,0,0,0-.32,0,.74.74,0,0,0-.33,0h-.35l.07,0h0l-.11,0a.19.19,0,0,1-.24-.12.21.21,0,0,1,.06-.2h0a.1.1,0,0,1,0,0h0a2.38,2.38,0,0,1,.39-.2,1.24,1.24,0,0,1,.42-.11,1.64,1.64,0,0,1,.44,0l.44.06a3.83,3.83,0,0,1,.77.34,2.37,2.37,0,0,1,.62.56.21.21,0,0,1,0,.29.19.19,0,0,1-.2,0Z"/><path class="cls-46" d="M235.59,43.51a2.23,2.23,0,0,1,.47-.58,2.49,2.49,0,0,1,.67-.42,2.21,2.21,0,0,1,.46-.11,1.74,1.74,0,0,1,.51,0,2.59,2.59,0,0,1,.48.12,4.16,4.16,0,0,1,.42.23,2.49,2.49,0,0,1,.81,1,1,1,0,0,1,.08.18.26.26,0,0,1-.15.35.27.27,0,0,1-.25,0l0,0-.13-.11c-.09-.06-.2-.17-.35-.27l-.22-.16a1.57,1.57,0,0,1-.25-.14,1.63,1.63,0,0,0-.52-.15,2.1,2.1,0,0,0-1.07.21,5,5,0,0,0-.52.26h0a.28.28,0,0,1-.38-.09A.34.34,0,0,1,235.59,43.51Z"/><path d="M247.4,35.15a1.09,1.09,0,1,1-1.42-.89A1.2,1.2,0,0,1,247.4,35.15Z"/><path d="M244.84,41.33s.41.23,1.06.54c.33.16.71.32,1.12.48a10.57,10.57,0,0,0,1.31.43,7.13,7.13,0,0,0,1.32.22,5.36,5.36,0,0,0,1.16,0l.46-.09a3.44,3.44,0,0,0,.34-.11l.31-.1h0a.24.24,0,0,1,.2.44l-.31.19a3.44,3.44,0,0,1-.87.39,5.33,5.33,0,0,1-.63.14,3.39,3.39,0,0,1-.72.06,6.56,6.56,0,0,1-.76,0c-.26,0-.52-.09-.77-.15a7.8,7.8,0,0,1-1.43-.52,8.26,8.26,0,0,1-1.13-.65,7.14,7.14,0,0,1-1-.79.26.26,0,0,1,0-.35A.26.26,0,0,1,244.84,41.33Z"/><path d="M244.37,30.53c-1.16.13-2.58,2.58-1.68,3.29.65.51,1.55-.84,1.87-1.36S245.9,30.36,244.37,30.53Z"/><path class="cls-47" d="M247.91,41.91a3.77,3.77,0,1,0-3.77,3.77A3.77,3.77,0,0,0,247.91,41.91Z"/></g></g></g></svg>